<?xml version="1.0" encoding="UTF-8" standalone="no"?><!DOCTYPE svg PUBLIC "-//W3C//DTD SVG 1.1//EN" "http://www.w3.org/Graphics/SVG/1.1/DTD/svg11.dtd"><svg width="100%" height="100%" viewBox="0 0 100 100" version="1.1" xmlns="http://www.w3.org/2000/svg" xmlns:xlink="http://www.w3.org/1999/xlink" xml:space="preserve" xmlns:serif="http://www.serif.com/" style="fill-rule:evenodd;clip-rule:evenodd;stroke-linejoin:round;stroke-miterlimit:2;"><path d="M81.354,66.571l0,-64.529l-8.579,-0l-0,12.108l-0.267,-0c-0.879,-1.896 -2.004,-3.713 -3.508,-5.446c-1.5,-1.717 -3.196,-3.237 -5.133,-4.558c-1.942,-1.309 -4.009,-2.338 -6.33,-3.067c-2.304,-0.704 -4.75,-1.079 -7.379,-1.079c-5.041,-0 -9.583,0.937 -13.525,2.792c-3.946,1.862 -7.262,4.404 -9.937,7.625c-2.675,3.22 -4.721,6.983 -6.125,11.296c-1.4,4.32 -2.109,8.87 -2.109,13.679c0,4.996 0.588,9.691 1.771,14.091c1.192,4.404 3.071,8.234 5.7,11.509c2.629,3.25 5.884,5.82 9.896,7.637c4.004,1.817 8.829,2.754 14.463,2.754c5.2,0 9.708,-1.312 13.591,-3.941c3.884,-2.63 6.825,-6.138 8.829,-10.521l0.255,-0l-0,9.516c-0,8.517 -1.755,15.03 -5.267,19.605c-3.5,4.504 -9.267,6.825 -17.275,6.825c-2.383,-0 -4.7,-0.255 -6.954,-0.755c-2.259,-0.5 -4.317,-1.312 -6.196,-2.375c-1.821,-1.129 -3.446,-2.504 -4.763,-4.325c-1.316,-1.812 -2.191,-4.004 -2.633,-6.637l-8.779,-0c0.279,3.696 1.312,6.892 3.071,9.583c1.766,2.692 4.004,4.884 6.675,6.638c2.671,1.691 5.696,2.941 9.05,3.758c3.379,0.808 6.829,1.25 10.391,1.25c5.763,0 10.588,-0.812 14.526,-2.312c3.945,-1.567 7.141,-3.759 9.587,-6.7c2.504,-2.95 4.254,-6.455 5.387,-10.65c1.125,-4.196 1.751,-8.892 1.751,-14.03l-0.184,0.259Zm-31.183,-2.321c-3.979,-0 -7.434,-0.788 -10.329,-2.379c-2.905,-1.584 -5.321,-3.675 -7.217,-6.263c-1.946,-2.587 -3.321,-5.55 -4.258,-8.912c-0.938,-3.363 -1.384,-6.804 -1.384,-10.35c0,-3.629 0.438,-7.188 1.254,-10.679c0.875,-3.5 2.25,-6.613 4.134,-9.334c1.879,-2.716 4.321,-4.925 7.2,-6.6c2.879,-1.675 6.387,-2.521 10.458,-2.521c4.071,0 7.513,0.871 10.396,2.588c2.817,1.729 5.196,3.996 7.012,6.808c1.817,2.821 3.13,5.954 3.946,9.396c0.813,3.442 1.188,6.9 1.188,10.342c-0,3.55 -0.5,6.991 -1.438,10.35c-0.941,3.362 -2.383,6.325 -4.325,8.912c-1.937,2.588 -4.254,4.679 -7.075,6.263c-2.816,1.591 -6.075,2.379 -9.829,2.379l0.267,-0Z" style="fill:#1269d3;fill-rule:nonzero;"/></svg>