<?xml version="1.0" encoding="UTF-8" standalone="no"?><!DOCTYPE svg PUBLIC "-//W3C//DTD SVG 1.1//EN" "http://www.w3.org/Graphics/SVG/1.1/DTD/svg11.dtd"><svg width="100%" height="100%" viewBox="0 0 100 100" version="1.1" xmlns="http://www.w3.org/2000/svg" xmlns:xlink="http://www.w3.org/1999/xlink" xml:space="preserve" xmlns:serif="http://www.serif.com/" style="fill-rule:evenodd;clip-rule:evenodd;stroke-linejoin:round;stroke-miterlimit:2;"><path d="M50,0c-13.583,0 -15.279,0.063 -20.612,0.3c-5.325,0.25 -8.95,1.088 -12.138,2.325c-3.288,1.275 -6.079,2.988 -8.858,5.767c-2.779,2.779 -4.496,5.566 -5.767,8.858c-1.237,3.188 -2.079,6.813 -2.325,12.138c-0.25,5.333 -0.3,7.029 -0.3,20.612c0,13.583 0.063,15.279 0.3,20.612c0.25,5.321 1.088,8.951 2.325,12.138c1.275,3.283 2.988,6.079 5.767,8.858c2.779,2.775 5.566,4.496 8.858,5.767c3.192,1.233 6.817,2.079 12.137,2.325c5.334,0.25 7.03,0.3 20.613,0.3c13.583,0 15.279,-0.063 20.612,-0.3c5.321,-0.25 8.951,-1.092 12.138,-2.325c3.283,-1.275 6.079,-2.992 8.858,-5.767c2.775,-2.779 4.496,-5.562 5.767,-8.858c1.233,-3.188 2.079,-6.817 2.325,-12.138c0.25,-5.333 0.3,-7.029 0.3,-20.612c0,-13.583 -0.063,-15.279 -0.3,-20.612c-0.25,-5.321 -1.092,-8.955 -2.325,-12.138c-1.275,-3.287 -2.992,-6.079 -5.767,-8.858c-2.779,-2.779 -5.562,-4.496 -8.858,-5.767c-3.188,-1.237 -6.817,-2.079 -12.138,-2.325c-5.333,-0.25 -7.029,-0.3 -20.612,-0.3Zm0,9c13.346,0 14.938,0.067 20.208,0.296c4.875,0.229 7.521,1.037 9.28,1.729c2.341,0.904 4,1.988 5.758,3.733c1.746,1.75 2.829,3.413 3.733,5.755c0.684,1.758 1.5,4.404 1.721,9.279c0.238,5.275 0.292,6.858 0.292,20.208c-0,13.35 -0.063,14.938 -0.309,20.208c-0.254,4.875 -1.066,7.521 -1.754,9.28c-0.933,2.341 -1.996,4 -3.746,5.758c-1.745,1.746 -3.433,2.829 -5.75,3.733c-1.75,0.684 -4.437,1.5 -9.312,1.721c-5.308,0.238 -6.871,0.292 -20.246,0.292c-13.379,-0 -14.942,-0.063 -20.246,-0.309c-4.879,-0.254 -7.566,-1.066 -9.316,-1.754c-2.371,-0.933 -4,-1.996 -5.746,-3.746c-1.755,-1.745 -2.875,-3.433 -3.75,-5.75c-0.688,-1.75 -1.496,-4.437 -1.75,-9.312c-0.188,-5.25 -0.255,-6.871 -0.255,-20.183c0.001,-13.317 0.067,-14.942 0.255,-20.255c0.254,-4.875 1.062,-7.558 1.75,-9.308c0.875,-2.375 1.995,-4 3.75,-5.754c1.746,-1.746 3.375,-2.871 5.746,-3.742c1.75,-0.691 4.379,-1.504 9.254,-1.754c5.312,-0.187 6.875,-0.25 20.246,-0.25l0.187,0.125Zm-0,15.325c-14.188,-0 -25.675,11.5 -25.675,25.675c-0,14.187 11.5,25.675 25.675,25.675c14.187,-0 25.675,-11.5 25.675,-25.675c-0,-14.188 -11.5,-25.675 -25.675,-25.675Zm-0,42.342c-9.208,-0 -16.667,-7.459 -16.667,-16.667c0,-9.208 7.459,-16.667 16.667,-16.667c9.208,0 16.667,7.459 16.667,16.667c-0,9.208 -7.459,16.667 -16.667,16.667Zm32.692,-43.355c-0,3.313 -2.692,6 -6,6c-3.313,0 -6,-2.691 -6,-6c-0,-3.308 2.691,-5.995 6,-5.995c3.304,-0.005 6,2.687 6,5.995Z" style="fill:#1269d3;fill-rule:nonzero;"/></svg>