<?xml version="1.0" encoding="UTF-8" standalone="no"?><!DOCTYPE svg PUBLIC "-//W3C//DTD SVG 1.1//EN" "http://www.w3.org/Graphics/SVG/1.1/DTD/svg11.dtd"><svg width="100%" height="100%" viewBox="0 0 100 100" version="1.1" xmlns="http://www.w3.org/2000/svg" xmlns:xlink="http://www.w3.org/1999/xlink" xml:space="preserve" xmlns:serif="http://www.serif.com/" style="fill-rule:evenodd;clip-rule:evenodd;stroke-linejoin:round;stroke-miterlimit:2;"><path d="M85.2,85.217l-14.813,-0l0.001,-23.204c-0.001,-5.534 -0.113,-12.655 -7.717,-12.655c-7.721,0 -8.9,6.021 -8.9,12.246l-0,23.613l-14.809,-0l0.001,-47.717l14.225,0l-0,6.504l0.191,0c1.988,-3.75 6.821,-7.708 14.042,-7.708c15.004,-0 17.779,9.875 17.779,22.729l0,26.192Zm-62.963,-54.246c-4.766,-0 -8.595,-3.858 -8.595,-8.604c-0,-4.742 3.833,-8.596 8.596,-8.596c4.75,-0 8.6,3.854 8.6,8.596c-0,4.746 -3.855,8.604 -8.601,8.604Zm7.425,54.246l-14.85,-0l0,-47.717l14.85,0l0,47.717Zm62.942,-85.217l-85.225,0c-4.079,0 -7.379,3.225 -7.379,7.204l0,85.592c0,3.983 3.3,7.204 7.379,7.204l85.213,0c4.075,0 7.408,-3.221 7.408,-7.204l0,-85.592c0,-3.979 -3.333,-7.204 -7.408,-7.204l0.012,0Z" style="fill:#1269d3;fill-rule:nonzero;"/></svg>