<?xml version="1.0" encoding="UTF-8" standalone="no"?><!DOCTYPE svg PUBLIC "-//W3C//DTD SVG 1.1//EN" "http://www.w3.org/Graphics/SVG/1.1/DTD/svg11.dtd"><svg width="100%" height="100%" viewBox="0 0 100 100" version="1.1" xmlns="http://www.w3.org/2000/svg" xmlns:xlink="http://www.w3.org/1999/xlink" xml:space="preserve" xmlns:serif="http://www.serif.com/" style="fill-rule:evenodd;clip-rule:evenodd;stroke-linejoin:round;stroke-miterlimit:2;"><path d="M0,0l0,100l100,0l0,-100l-100,0Zm83.075,23.692l-5.362,5.141c-0.463,0.353 -0.694,0.935 -0.596,1.509l-0,37.779c-0.096,0.572 0.134,1.152 0.596,1.504l5.237,5.142l0,1.129l-26.342,-0l0,-1.125l5.425,-5.271c0.534,-0.533 0.534,-0.687 0.534,-1.5l-0,-30.542l-15.084,38.313l-2.041,-0l-17.567,-38.313l-0,25.679c-0.146,1.079 0.212,2.166 0.971,2.946l7.058,8.559l0,1.129l-20.008,-0l-0,-1.125l7.062,-8.563c0.753,-0.781 1.091,-1.876 0.909,-2.946l-0,-29.691c0.084,-0.824 -0.231,-1.641 -0.846,-2.196l-6.275,-7.558l-0,-1.125l19.475,-0l15.054,33.012l13.233,-33.017l18.567,0l0,1.13Z" style="fill:#1269d3;fill-rule:nonzero;"/></svg>