<?xml version="1.0" encoding="UTF-8" standalone="no"?><!DOCTYPE svg PUBLIC "-//W3C//DTD SVG 1.1//EN" "http://www.w3.org/Graphics/SVG/1.1/DTD/svg11.dtd"><svg width="100%" height="100%" viewBox="0 0 1067 609" version="1.1" xmlns="http://www.w3.org/2000/svg" xmlns:xlink="http://www.w3.org/1999/xlink" xml:space="preserve" xmlns:serif="http://www.serif.com/" style="fill-rule:evenodd;clip-rule:evenodd;stroke-linejoin:round;stroke-miterlimit:2;"><g><path d="M300.837,0c166.148,0 300.827,135.619 300.827,302.902c0,167.283 -134.689,302.891 -300.827,302.891c-166.138,0 -300.837,-135.608 -300.837,-302.891c0,-167.283 134.689,-302.902 300.837,-302.902Zm480.416,17.743c83.074,0 150.418,127.657 150.418,285.159l0.01,-0c0,157.46 -67.344,285.158 -150.418,285.158c-83.074,0 -150.419,-127.698 -150.419,-285.158c0,-157.461 67.334,-285.159 150.409,-285.159Zm232.511,29.702c29.211,-0 52.903,114.37 52.903,255.457c-0,141.046 -23.682,255.457 -52.903,255.457c-29.221,-0 -52.892,-114.38 -52.892,-255.457c-0,-141.077 23.681,-255.457 52.892,-255.457Z" style="fill:#1269d3;fill-rule:nonzero;"/></g></svg>