<?xml version="1.0" encoding="UTF-8" standalone="no"?><!DOCTYPE svg PUBLIC "-//W3C//DTD SVG 1.1//EN" "http://www.w3.org/Graphics/SVG/1.1/DTD/svg11.dtd"><svg width="100%" height="100%" viewBox="0 0 100 100" version="1.1" xmlns="http://www.w3.org/2000/svg" xmlns:xlink="http://www.w3.org/1999/xlink" xml:space="preserve" xmlns:serif="http://www.serif.com/" style="fill-rule:evenodd;clip-rule:evenodd;stroke-linejoin:round;stroke-miterlimit:2;"><path d="M4.896,50.938c-0.213,-0.001 -0.392,0.191 -0.421,0.416l-0.971,8.975l0.971,8.771c0.029,0.242 0.208,0.408 0.421,0.408c0.208,0 0.375,-0.166 0.412,-0.408l1.063,-8.771l-1.125,-8.975c-0,-0.237 -0.188,-0.416 -0.375,-0.416m-3.746,3.45c-0.25,-0 -0.379,0.154 -0.433,0.391l-0.692,5.55l0.688,5.45c-0,0.229 0.187,0.392 0.375,0.392c0.187,-0 0.37,-0.188 0.433,-0.433l0.875,-5.496l-0.875,-5.559c-0,-0.254 -0.183,-0.375 -0.375,-0.375m7.625,-5.12c-0.254,-0 -0.5,0.187 -0.5,0.433l-0.875,10.679l0.937,10.242c0,0.25 0.188,0.5 0.496,0.5c0.254,-0 0.438,-0.254 0.504,-0.5l1.059,-10.309l-1.059,-10.616c-0.066,-0.25 -0.254,-0.5 -0.504,-0.5m3.938,-0.371c-0.313,-0 -0.563,0.25 -0.625,0.562l-0.804,11l0.875,10.6c0.066,0.321 0.312,0.575 0.62,0.575c0.313,0 0.563,-0.254 0.625,-0.625l1,-10.55l-1,-10.929c0,-0.312 -0.25,-0.562 -0.562,-0.562l-0.129,-0.071Zm4.812,1.5c-0.021,-0.375 -0.312,-0.621 -0.662,-0.621c-0.375,0 -0.659,0.25 -0.684,0.621l-0.904,10.125l0.834,10.679c-0,0.375 0.312,0.654 0.662,0.654c0.308,0 0.617,-0.283 0.617,-0.658l0.946,-10.679l-0.946,-10.184l0.137,0.063Zm3.371,-7.121c-0.421,0 -0.75,0.375 -0.75,0.754l-0.875,16.488l0.779,10.679c0,0.375 0.334,0.683 0.75,0.683c0.392,0 0.725,-0.375 0.75,-0.75l0.871,-10.679l-0.871,-16.55c-0.033,-0.433 -0.366,-0.75 -0.75,-0.75m3.996,-3.808c-0.437,-0 -0.812,0.375 -0.846,0.808l-0.75,20.3l0.688,10.617c-0,0.5 0.375,0.871 0.812,0.871c0.434,-0 0.809,-0.371 0.875,-0.871l0.804,-10.617l-0.8,-20.233c-0.066,-0.5 -0.437,-0.875 -0.875,-0.875m4.121,-1.871c-0.504,-0 -0.879,0.371 -0.937,0.871l-0.688,21.979l0.688,10.5c0.058,0.496 0.433,0.937 0.937,0.937c0.496,0 0.938,-0.437 0.938,-0.937l0.812,-10.5l-0.816,-21.979c-0,-0.5 -0.438,-0.938 -0.938,-0.938m5.188,0.188c-0,-0.563 -0.438,-1 -1,-1c-0.496,-0 -1,0.437 -1,1l-0.621,22.671l0.621,10.429c0.066,0.562 0.504,1 1.066,1c0.563,-0 1,-0.438 1,-1l0.684,-10.429l-0.684,-22.734l-0.066,0.063Zm3.12,-0.559c-0.562,0 -1.062,0.496 -1.062,1.059l-0.625,22.175l0.625,10.304c-0,0.625 0.5,1.062 1.062,1.062c0.563,0 1.063,-0.5 1.063,-1.125l0.625,-10.308l-0.688,-22.112c0,-0.617 -0.5,-1.125 -1.129,-1.125m4.188,0.691c-0.684,0 -1.184,0.563 -1.184,1.188l-0.429,21.429l0.563,10.308c-0,0.621 0.496,1.154 1.183,1.154c0.621,0 1.129,-0.5 1.183,-1.187l0.505,-10.179l-0.563,-21.3c-0.05,-0.684 -0.562,-1.188 -1.187,-1.188m4.933,-3.937c-0.188,-0.121 -0.438,-0.184 -0.688,-0.184c-0.25,0 -0.495,0.063 -0.687,0.184c-0.375,0.225 -0.621,0.625 -0.621,1.062l0,0.254l-0.433,25.2l0.479,10.205l-0,0.033c0.033,0.25 0.125,0.562 0.308,0.75c0.242,0.254 0.592,0.433 0.975,0.433c0.334,0 0.659,-0.183 0.871,-0.375c0.242,-0.25 0.379,-0.562 0.379,-0.937l0.063,-1l0.487,-9.179l-0.562,-25.359c-0,-0.433 -0.254,-0.804 -0.563,-0.996l-0.008,-0.091Zm4.192,-2.279c-0.188,-0.188 -0.375,-0.255 -0.625,-0.255c-0.309,0 -0.621,0.067 -0.871,0.255c-0.313,0.254 -0.496,0.625 -0.496,1l-0,0.12l-0.571,27.538l0.317,5.062l0.254,4.938c-0,0.683 0.617,1.308 1.367,1.308c0.754,0 1.375,-0.625 1.375,-1.371l0.625,-10.058l-0.625,-27.654c-0,-0.5 -0.309,-0.921 -0.688,-1.154m37.225,15.737c-1.687,0 -3.312,0.358 -4.746,0.967c-1,-11.059 -10.25,-19.734 -21.616,-19.734c-2.746,0 -5.438,0.563 -7.871,1.496c-0.938,0.375 -1.125,0.75 -1.188,1.496l0,39.034c0.067,0.749 0.625,1.374 1.375,1.437l34.104,0c6.746,0.067 12.242,-5.367 12.242,-12.175c0,-6.808 -5.496,-12.3 -12.242,-12.3" style="fill:#1269d3;fill-rule:nonzero;"/></svg>