<?xml version="1.0" encoding="UTF-8" standalone="no"?><!DOCTYPE svg PUBLIC "-//W3C//DTD SVG 1.1//EN" "http://www.w3.org/Graphics/SVG/1.1/DTD/svg11.dtd"><svg width="100%" height="100%" viewBox="0 0 100 100" version="1.1" xmlns="http://www.w3.org/2000/svg" xmlns:xlink="http://www.w3.org/1999/xlink" xml:space="preserve" xmlns:serif="http://www.serif.com/" style="fill-rule:evenodd;clip-rule:evenodd;stroke-linejoin:round;stroke-miterlimit:2;"><path d="M50,0c-27.5,0 -50,22.5 -50,50c0,27.5 22.5,50 50,50c27.5,0 50,-22.5 50,-50c0,-27.5 -22.25,-50 -50,-50Zm23.004,72.25c-1,1.496 -2.75,2 -4.254,1c-11.75,-7.25 -26.5,-8.754 -44.004,-4.754c-1.742,0.508 -3.246,-0.746 -3.746,-2.246c-0.5,-1.754 0.75,-3.25 2.25,-3.75c19,-4.254 35.5,-2.5 48.5,5.5c1.75,0.75 1.996,2.746 1.254,4.25Zm6,-13.75c-1.254,1.75 -3.504,2.5 -5.258,1.25c-13.496,-8.25 -33.996,-10.75 -49.746,-5.75c-1.996,0.5 -4.25,-0.5 -4.75,-2.5c-0.5,-2 0.5,-4.254 2.5,-4.754c18.25,-5.496 40.75,-2.742 56.25,6.754c1.504,0.754 2.25,3.25 1.004,5Zm0.5,-14c-16.004,-9.5 -42.754,-10.5 -58.004,-5.746c-2.5,0.746 -5,-0.754 -5.75,-3.004c-0.75,-2.504 0.75,-5 3,-5.754c17.75,-5.25 47,-4.25 65.504,6.754c2.246,1.25 2.996,4.25 1.746,6.5c-1.246,1.754 -4.25,2.496 -6.496,1.25Z" style="fill:#1269d3;fill-rule:nonzero;"/></svg>