<?xml version="1.0" encoding="utf-8"?>
<!-- Generator: Adobe Illustrator 24.3.0, SVG Export Plug-In . SVG Version: 6.00 Build 0)  -->
<svg version="1.1" xmlns="http://www.w3.org/2000/svg" xmlns:xlink="http://www.w3.org/1999/xlink" x="0px" y="0px"
	 viewBox="0 0 50 50" enable-background="new 0 0 50 50" xml:space="preserve">
<g id="Layer_1">
	<g>
		<g>
			<path fill="#EA4335" d="M34.3,32.8l2.2,7.5l5.7,6.1l0,0l0,0c0.8-0.4,1.4-1.1,1.9-1.9l5.3-9.2c0.5-0.8,0.7-1.7,0.7-2.6l-8.1-1.6
				L34.3,32.8z"/>
			<path fill="#188038" d="M32.9,3.1c-0.8-0.4-1.7-0.7-2.6-0.7H19.7c-0.9,0-1.8,0.3-2.6,0.7l0,0l2.3,7.7l5.6,5.9l0,0l0,0l5.6-6
				L32.9,3.1L32.9,3.1L32.9,3.1z"/>
			<path fill="#1967D2" d="M15.7,32.8l-8.1-1.9L0,32.8c0,0.9,0.2,1.8,0.7,2.6L6,44.5c0.5,0.8,1.1,1.4,1.9,1.9l5.6-5.8L15.7,32.8
				L15.7,32.8z"/>
			<path fill="#FBBC04" d="M42,17.6L34.8,5c-0.5-0.8-1.1-1.4-1.9-1.9L25,16.7l9.3,16H50c0-0.9-0.2-1.8-0.7-2.6L42,17.6z"/>
			<path fill="#4285F4" d="M34.3,32.8H15.7L7.9,46.4c0.8,0.4,1.7,0.7,2.6,0.7h29.1c0.9,0,1.8-0.2,2.6-0.7L34.3,32.8z"/>
			<path fill="#34A853" d="M25,16.7L17.1,3.1c-0.8,0.4-1.4,1.1-1.9,1.9L0.7,30.2C0.2,31,0,31.9,0,32.8h15.7L25,16.7z"/>
		</g>
	</g>
</g>
<g id="caption">
</g>
</svg>
