<?xml version="1.0" encoding="UTF-8" standalone="no"?><!DOCTYPE svg PUBLIC "-//W3C//DTD SVG 1.1//EN" "http://www.w3.org/Graphics/SVG/1.1/DTD/svg11.dtd"><svg width="100%" height="100%" viewBox="0 0 3450 3450" version="1.1" xmlns="http://www.w3.org/2000/svg" xmlns:xlink="http://www.w3.org/1999/xlink" xml:space="preserve" xmlns:serif="http://www.serif.com/" style="fill-rule:evenodd;clip-rule:evenodd;stroke-linejoin:round;stroke-miterlimit:2;"><g><path d="M862.496,785.2c476.004,-0 862.504,386.5 862.504,862.5l0,79.333l-1645.67,0c-42.721,0 -77.304,-34.579 -79.333,-79.333c0,-476 386.496,-862.5 862.496,-862.5Z" style="fill:#f6b826;fill-rule:nonzero;"/><path d="M2664.8,862.5c0,476.004 -386.5,862.5 -862.5,862.5l-77.3,0l0,-1645.67c0,-42.716 34.579,-79.333 77.3,-79.333c478.029,0 862.5,386.5 862.5,862.5Z" style="fill:#ea4d40;fill-rule:nonzero;"/><path d="M2587.5,2666.83c-475.996,0 -862.496,-386.5 -862.496,-862.5l0,-79.333l1645.66,0c42.717,0 79.334,34.583 79.334,77.3c-0,478.033 -386.5,864.533 -862.5,864.533Z" style="fill:#4b7bbe;fill-rule:nonzero;"/><path d="M785.2,2587.5c-0,-476 386.5,-862.5 862.5,-862.5l77.3,0l0,1645.67c0,42.716 -34.579,77.3 -79.337,79.333c-476.001,0 -860.463,-386.5 -860.463,-862.5Z" style="fill:#3ba95d;fill-rule:nonzero;"/></g></svg>