<?xml version="1.0" encoding="UTF-8" standalone="no"?><!DOCTYPE svg PUBLIC "-//W3C//DTD SVG 1.1//EN" "http://www.w3.org/Graphics/SVG/1.1/DTD/svg11.dtd"><svg width="100%" height="100%" viewBox="0 0 100 100" version="1.1" xmlns="http://www.w3.org/2000/svg" xmlns:xlink="http://www.w3.org/1999/xlink" xml:space="preserve" xmlns:serif="http://www.serif.com/" style="fill-rule:evenodd;clip-rule:evenodd;stroke-linejoin:round;stroke-miterlimit:2;"><path d="M99.992,49.996c0,-27.612 -22.384,-49.996 -49.996,-49.996c-27.612,0 -49.996,22.384 -49.996,49.996c0,24.955 18.283,45.638 42.184,49.389l0,-34.937l-12.694,0l-0,-14.452l12.694,0l0,-11.015c0,-12.53 7.464,-19.451 18.884,-19.451c5.47,-0 11.192,0.976 11.192,0.976l0,12.304l-6.304,-0c-6.211,-0 -8.148,3.854 -8.148,7.808l-0,9.378l13.866,0l-2.216,14.452l-11.65,0l-0,34.937c23.902,-3.751 42.184,-24.434 42.184,-49.389Z" style="fill:#1269d3;fill-rule:nonzero;"/></svg>