<?xml version="1.0" encoding="UTF-8" standalone="no"?><!DOCTYPE svg PUBLIC "-//W3C//DTD SVG 1.1//EN" "http://www.w3.org/Graphics/SVG/1.1/DTD/svg11.dtd"><svg width="100%" height="100%" viewBox="0 0 84 84" version="1.1" xmlns="http://www.w3.org/2000/svg" xmlns:xlink="http://www.w3.org/1999/xlink" xml:space="preserve" xmlns:serif="http://www.serif.com/" style="fill-rule:evenodd;clip-rule:evenodd;stroke-linejoin:round;stroke-miterlimit:2;"><path d="M52.442,19.108c1.569,-1.625 3.734,-2.544 5.994,-2.544c4.571,0 8.333,3.762 8.333,8.334c0,2.259 -0.919,4.424 -2.544,5.994l-12.5,12.5c-3.232,3.231 -8.551,3.231 -11.783,-0c-0.777,-0.75 -1.815,-1.17 -2.895,-1.17c-2.286,0 -4.167,1.881 -4.167,4.167c0,1.079 0.42,2.118 1.17,2.894c6.465,6.463 17.102,6.463 23.567,0l12.5,-12.5c3,-3.106 4.678,-7.26 4.678,-11.578c0,-9.143 -7.523,-16.667 -16.666,-16.667c-4.319,0 -8.473,1.679 -11.579,4.679l-6.25,6.25c-0.813,0.784 -1.272,1.867 -1.272,2.997c-0,2.285 1.881,4.166 4.167,4.166c1.129,0 2.212,-0.459 2.997,-1.272l6.25,-6.25Zm-20.834,20.834c3.233,-3.232 8.551,-3.232 11.784,-0c0.784,0.812 1.867,1.272 2.997,1.272c2.285,-0 4.166,-1.881 4.166,-4.167c0,-1.13 -0.459,-2.212 -1.272,-2.997c-6.464,-6.463 -17.102,-6.463 -23.566,0l-12.5,12.5c-3.251,3.139 -5.088,7.469 -5.088,11.988c-0,9.143 7.523,16.667 16.666,16.667c4.519,-0 8.849,-1.838 11.988,-5.088l6.25,-6.25c0.813,-0.785 1.272,-1.868 1.272,-2.997c0,-2.286 -1.881,-4.167 -4.166,-4.167c-1.13,-0 -2.213,0.459 -2.997,1.272l-6.25,6.25c-1.57,1.625 -3.735,2.544 -5.994,2.544c-4.572,0 -8.334,-3.762 -8.334,-8.333c0,-2.26 0.919,-4.425 2.544,-5.994l12.5,-12.5Z" style="fill:#1269d3;fill-rule:nonzero;"/></svg>