<?xml version="1.0" encoding="UTF-8" standalone="no"?><!DOCTYPE svg PUBLIC "-//W3C//DTD SVG 1.1//EN" "http://www.w3.org/Graphics/SVG/1.1/DTD/svg11.dtd"><svg width="100%" height="100%" viewBox="0 0 100 100" version="1.1" xmlns="http://www.w3.org/2000/svg" xmlns:xlink="http://www.w3.org/1999/xlink" xml:space="preserve" xmlns:serif="http://www.serif.com/" style="fill-rule:evenodd;clip-rule:evenodd;stroke-linejoin:round;stroke-miterlimit:2;"><path d="M53.075,77.921c-3.462,-6.813 -7.521,-13.696 -15.45,-13.696c-1.508,0 -3.029,0.254 -4.413,0.871l-2.691,-5.371c3.275,-2.825 8.575,-5.058 15.387,-5.058c10.6,-0 16.046,5.121 20.367,11.633c2.554,-5.562 3.767,-13.083 3.767,-22.396c-0,-23.258 -7.267,-35.196 -24.259,-35.196c-16.741,0 -23.987,11.938 -23.987,35.196c-0,23.138 7.246,34.954 23.987,34.954c2.667,0 5.084,-0.287 7.292,-0.937Zm4.15,8.112c-3.671,0.988 -7.571,1.525 -11.429,1.525c-22.3,0 -44.125,-17.787 -44.125,-43.658c0.004,-26.104 21.825,-43.9 44.125,-43.9c22.671,-0 44.283,17.658 44.283,43.904c0,14.6 -6.812,26.463 -16.708,34.129c3.183,4.784 6.429,7.975 11.05,7.975c4.996,0 7,-3.812 7.375,-6.87l6.487,-0c0.384,4.058 -1.675,20.862 -19.858,20.862c-11.05,0 -16.862,-6.367 -21.233,-13.867l0.033,-0.1Z" style="fill:#1269d3;fill-rule:nonzero;"/></svg>