<?xml version="1.0" encoding="UTF-8" standalone="no"?><!DOCTYPE svg PUBLIC "-//W3C//DTD SVG 1.1//EN" "http://www.w3.org/Graphics/SVG/1.1/DTD/svg11.dtd"><svg width="100%" height="100%" viewBox="0 0 100 100" version="1.1" xmlns="http://www.w3.org/2000/svg" xmlns:xlink="http://www.w3.org/1999/xlink" xml:space="preserve" xmlns:serif="http://www.serif.com/" style="fill-rule:evenodd;clip-rule:evenodd;stroke-linejoin:round;stroke-miterlimit:2;"><path d="M99.808,19.038c-3.687,1.62 -7.625,2.724 -11.77,3.229c4.224,-2.546 7.475,-6.559 9.012,-11.346c-3.963,2.312 -8.354,3.996 -13.029,4.933c-3.734,-3.996 -9.054,-6.496 -14.963,-6.496c-11.321,0 -20.5,9.18 -20.5,20.488c0,1.625 0.188,3.187 0.529,4.683c-17.041,-0.804 -32.145,-8.987 -42.254,-21.358c-1.779,3.008 -2.775,6.504 -2.775,10.312c0,7.125 3.625,13.388 9.117,17.067c-3.363,-0.108 -6.525,-1.033 -9.283,-2.567l-0,0.255c-0,9.937 7.054,18.225 16.441,20.112c-1.721,0.463 -3.537,0.712 -5.4,0.712c-1.308,0 -2.562,-0.125 -3.816,-0.358c2.629,8.138 10.187,14.071 19.183,14.238c-7,5.495 -15.871,8.77 -25.425,8.77c-1.625,0.001 -3.246,-0.095 -4.875,-0.279c9.121,5.809 19.867,9.204 31.487,9.204c37.725,0.001 58.33,-31.233 58.33,-58.275c-0,-0.87 -0,-1.75 -0.063,-2.625c4.004,-2.87 7.5,-6.5 10.25,-10.616l-0.196,-0.084Z" style="fill:#1269d3;fill-rule:nonzero;"/></svg>