<?xml version="1.0" encoding="UTF-8" standalone="no"?><!DOCTYPE svg PUBLIC "-//W3C//DTD SVG 1.1//EN" "http://www.w3.org/Graphics/SVG/1.1/DTD/svg11.dtd"><svg width="100%" height="100%" viewBox="0 0 100 100" version="1.1" xmlns="http://www.w3.org/2000/svg" xmlns:xlink="http://www.w3.org/1999/xlink" xml:space="preserve" xmlns:serif="http://www.serif.com/" style="fill-rule:evenodd;clip-rule:evenodd;stroke-linejoin:round;stroke-miterlimit:2;"><path d="M97.913,25.846c-1.178,-4.22 -4.485,-7.527 -8.705,-8.704c-7.791,-2.088 -39.166,-2.088 -39.166,-2.088c-0,0 -31.288,-0.041 -39.163,2.088c-4.219,1.179 -7.525,4.488 -8.7,8.708c-1.478,7.978 -2.208,16.078 -2.179,24.192c-0.023,8.085 0.706,16.154 2.179,24.104c1.177,4.218 4.482,7.525 8.7,8.704c7.788,2.092 39.167,2.092 39.167,2.092c-0,-0 31.283,-0 39.162,-2.092c4.221,-1.178 7.528,-4.487 8.705,-8.708c1.44,-7.952 2.137,-16.02 2.083,-24.1c0.061,-8.114 -0.637,-16.216 -2.083,-24.2l-0,0.004Zm-57.88,39.167l0,-29.984l26.109,15.017l-26.109,14.967Z" style="fill:#1269d3;fill-rule:nonzero;"/></svg>