<?xml version="1.0" encoding="UTF-8" standalone="no"?><!DOCTYPE svg PUBLIC "-//W3C//DTD SVG 1.1//EN" "http://www.w3.org/Graphics/SVG/1.1/DTD/svg11.dtd"><svg width="100%" height="100%" viewBox="0 0 1738 1738" version="1.1" xmlns="http://www.w3.org/2000/svg" xmlns:xlink="http://www.w3.org/1999/xlink" xml:space="preserve" xmlns:serif="http://www.serif.com/" style="fill-rule:evenodd;clip-rule:evenodd;stroke-linejoin:round;stroke-miterlimit:2;"><path d="M1736.27,116.184c0,-64.053 -52.003,-116.056 -116.056,-116.056l-1503.8,0c-64.053,0 -116.056,52.003 -116.056,116.056l-0,1505.03c-0,64.053 52.003,116.056 116.056,116.056l1503.8,-0c64.053,-0 116.056,-52.003 116.056,-116.056l0,-1505.03Z" style="fill:#fff;"/><path d="M1508.45,872.635c-0,-353.297 -286.402,-639.702 -639.698,-639.702c-353.297,0 -639.702,286.405 -639.702,639.702c0,319.299 233.931,583.938 539.747,631.932l-0,-447.021l-162.421,0l-0,-184.911l162.421,-0l-0,-140.938c-0,-160.321 95.502,-248.877 241.62,-248.877c69.99,0 143.201,12.489 143.201,12.489l0,157.428l-80.658,0c-79.469,0 -104.254,49.314 -104.254,99.906l0,119.992l177.416,-0l-28.356,184.911l-149.06,0l0,447.021c305.825,-47.994 539.744,-312.633 539.744,-631.932Z" style="fill:#35a353;fill-rule:nonzero;"/></svg>