<?xml version="1.0" encoding="UTF-8" standalone="no"?><!DOCTYPE svg PUBLIC "-//W3C//DTD SVG 1.1//EN" "http://www.w3.org/Graphics/SVG/1.1/DTD/svg11.dtd"><svg width="100%" height="100%" viewBox="0 0 1738 1738" version="1.1" xmlns="http://www.w3.org/2000/svg" xmlns:xlink="http://www.w3.org/1999/xlink" xml:space="preserve" xmlns:serif="http://www.serif.com/" style="fill-rule:evenodd;clip-rule:evenodd;stroke-linejoin:round;stroke-miterlimit:2;"><path d="M1736.27,116.184c0,-64.053 -52.003,-116.056 -116.056,-116.056l-1503.8,0c-64.053,0 -116.056,52.003 -116.056,116.056l-0,1505.03c-0,64.053 52.003,116.056 116.056,116.056l1503.8,-0c64.053,-0 116.056,-52.003 116.056,-116.056l0,-1505.03Z" style="fill:#fff;"/><path d="M130.071,130.071l0,1477.36l1477.36,-0l-0,-1477.36l-1477.36,0Zm1227.32,350.017l-79.217,75.951c-6.84,5.212 -10.254,13.81 -8.804,22.292l-0,558.132c-1.419,8.449 1.978,17.019 8.804,22.217l77.369,75.966l0,16.678l-389.164,0l0,-16.618l80.146,-77.873c7.889,-7.872 7.889,-10.148 7.889,-22.161l0,-451.213l-222.844,566.022l-30.152,-0l-259.528,-566.022l-0,379.371c-2.159,15.942 3.131,32 14.346,43.523l104.27,126.445l0,16.683l-295.59,-0l-0,-16.622l104.331,-126.506c11.126,-11.537 16.118,-27.716 13.43,-43.523l0,-438.643c1.241,-12.173 -3.414,-24.242 -12.498,-32.443l-92.705,-111.656l0,-16.622l287.716,-0l222.401,487.705l195.497,-487.78l274.303,0l-0,16.697Z" style="fill:#35a353;fill-rule:nonzero;"/></svg>