<?xml version="1.0" encoding="UTF-8" standalone="no"?><!DOCTYPE svg PUBLIC "-//W3C//DTD SVG 1.1//EN" "http://www.w3.org/Graphics/SVG/1.1/DTD/svg11.dtd"><svg width="100%" height="100%" viewBox="0 0 1738 1738" version="1.1" xmlns="http://www.w3.org/2000/svg" xmlns:xlink="http://www.w3.org/1999/xlink" xml:space="preserve" xmlns:serif="http://www.serif.com/" style="fill-rule:evenodd;clip-rule:evenodd;stroke-linejoin:round;stroke-miterlimit:2;"><path d="M1736.27,116.184c0,-64.053 -52.003,-116.056 -116.056,-116.056l-1503.8,0c-64.053,0 -116.056,52.003 -116.056,116.056l-0,1505.03c-0,64.053 52.003,116.056 116.056,116.056l1503.8,-0c64.053,-0 116.056,-52.003 116.056,-116.056l0,-1505.03Z" style="fill:#fff;"/><path d="M513.8,705.728c-13.258,-9.909 -26.55,-14.864 -39.808,-14.864l-59.59,-0l0,356.966l59.625,-0c13.258,-0 26.549,-4.955 39.807,-14.864c13.257,-9.91 19.887,-24.773 19.887,-44.625l-0,-237.988c-0.035,-19.818 -6.698,-34.716 -19.921,-44.625l-0,-0Zm970.334,-602.367l-1230.77,-0c-82.69,-0 -149.798,66.937 -150.003,149.66l0,1231.46c0.205,82.723 67.313,149.66 150.003,149.66l1230.77,0c82.724,0 149.798,-66.937 150.003,-149.66l-0,-1231.46c-0.205,-82.723 -67.314,-149.66 -150.003,-149.66Zm-853.885,885.629c-0,64.272 -39.67,161.654 -165.242,161.449l-158.544,0l-0,-565.362l161.892,0c121.096,0 161.826,97.245 161.859,161.552l0.035,242.36l-0,0.001Zm344.015,-302.944l-182.053,0l-0,131.278l111.288,-0l0,101.038l-111.288,0l-0,131.243l182.087,0l0,101.039l-212.464,-0c-38.133,0.99 -69.841,-29.147 -70.798,-67.28l-0,-427.489c-0.923,-38.099 29.249,-69.739 67.347,-70.696l215.915,-0l-0.035,100.867l0.001,0Zm354.127,393.935c-45.103,105.07 -125.912,84.159 -162.097,0l-131.654,-494.769l111.289,0l101.516,388.57l101.038,-388.57l111.323,0l-131.415,494.769Z" style="fill:#35a353;fill-rule:nonzero;"/></svg>