<?xml version="1.0" encoding="UTF-8" standalone="no"?><!DOCTYPE svg PUBLIC "-//W3C//DTD SVG 1.1//EN" "http://www.w3.org/Graphics/SVG/1.1/DTD/svg11.dtd"><svg width="100%" height="100%" viewBox="0 0 1738 1738" version="1.1" xmlns="http://www.w3.org/2000/svg" xmlns:xlink="http://www.w3.org/1999/xlink" xml:space="preserve" xmlns:serif="http://www.serif.com/" style="fill-rule:evenodd;clip-rule:evenodd;stroke-linejoin:round;stroke-miterlimit:2;"><path d="M1736.27,116.184c0,-64.053 -52.003,-116.056 -116.056,-116.056l-1503.8,0c-64.053,0 -116.056,52.003 -116.056,116.056l-0,1505.03c-0,64.053 52.003,116.056 116.056,116.056l1503.8,-0c64.053,-0 116.056,-52.003 116.056,-116.056l0,-1505.03Z" style="fill:#fff;"/><path d="M1623.76,399.439c-55.893,24.557 -115.587,41.292 -178.421,48.947c64.031,-38.593 113.313,-99.426 136.611,-171.993c-60.073,35.046 -126.636,60.575 -197.503,74.778c-56.606,-60.574 -137.252,-98.469 -226.823,-98.469c-171.614,-0 -310.758,139.158 -310.758,310.572c0,24.634 2.849,48.311 8.019,70.991c-258.322,-12.187 -487.281,-136.233 -640.522,-323.764c-26.97,45.6 -42.068,98.593 -42.068,156.319c0,108.006 54.954,202.946 138.205,258.715c-50.981,-1.637 -98.913,-15.658 -140.719,-38.91l0,3.864c0,150.633 106.928,276.272 249.227,304.875c-26.089,7.018 -53.619,10.795 -81.858,10.795c-19.828,-0 -38.837,-1.896 -57.847,-5.429c39.852,123.362 154.424,213.3 290.792,215.832c-106.113,83.299 -240.585,132.945 -385.412,132.945c-24.634,0.015 -49.206,-1.441 -73.901,-4.231c138.263,88.057 301.16,139.522 477.308,139.522c571.866,0.015 884.218,-473.455 884.218,-883.381c-0,-13.189 -0,-26.53 -0.957,-39.794c60.695,-43.505 113.692,-98.532 155.377,-160.926l-2.968,-1.273l-0,0.015Z" style="fill:#35a353;fill-rule:nonzero;"/></svg>