<?xml version="1.0" encoding="UTF-8" standalone="no"?><!DOCTYPE svg PUBLIC "-//W3C//DTD SVG 1.1//EN" "http://www.w3.org/Graphics/SVG/1.1/DTD/svg11.dtd"><svg width="100%" height="100%" viewBox="0 0 1738 1738" version="1.1" xmlns="http://www.w3.org/2000/svg" xmlns:xlink="http://www.w3.org/1999/xlink" xml:space="preserve" xmlns:serif="http://www.serif.com/" style="fill-rule:evenodd;clip-rule:evenodd;stroke-linejoin:round;stroke-miterlimit:2;"><path d="M1736.27,116.184c0,-64.053 -52.003,-116.056 -116.056,-116.056l-1503.8,0c-64.053,0 -116.056,52.003 -116.056,116.056l-0,1505.03c-0,64.053 52.003,116.056 116.056,116.056l1503.8,-0c64.053,-0 116.056,-52.003 116.056,-116.056l0,-1505.03Z" style="fill:#fff;"/><path d="M185.35,882.963c-3.229,-0.015 -5.938,2.894 -6.378,6.302l-14.713,135.986l14.713,132.896c0.44,3.665 3.149,6.182 6.378,6.182c3.153,-0 5.684,-2.517 6.244,-6.182l16.106,-132.896l-17.048,-135.986c0,-3.589 -2.847,-6.302 -5.68,-6.302m-56.76,52.273c-3.786,-0 -5.742,2.331 -6.56,5.924l-10.484,84.091l10.425,82.575c0,3.469 2.833,5.942 5.68,5.942c2.833,0 5.608,-2.851 6.561,-6.563l13.258,-83.274l-13.258,-84.226c-0,-3.847 -2.771,-5.684 -5.681,-5.684m115.532,-77.575c-3.851,0 -7.578,2.833 -7.578,6.56l-13.258,161.805l14.2,155.183c-0,3.789 2.847,7.575 7.513,7.575c3.851,-0 6.636,-3.848 7.636,-7.575l16.047,-156.197l-16.047,-160.849c-1,-3.789 -3.847,-7.578 -7.636,-7.578m59.669,-5.622c-4.745,0 -8.531,3.789 -9.473,8.516l-12.182,166.667l13.259,160.609c1,4.865 4.727,8.712 9.396,8.712c4.742,0 8.528,-3.847 9.469,-9.469l15.15,-159.852l-15.15,-165.59c0,-4.727 -3.789,-8.517 -8.516,-8.517l-1.953,-1.076Zm72.91,22.727c-0.32,-5.68 -4.727,-9.407 -10.033,-9.407c-5.68,0 -9.986,3.786 -10.364,9.407l-13.694,153.413l12.636,161.804c0,5.68 4.727,9.91 10.029,9.91c4.666,-0 9.349,-4.291 9.349,-9.971l14.331,-161.805l-14.331,-154.303l2.077,0.952Zm51.073,-107.891c-6.378,-0 -11.364,5.68 -11.364,11.422l-13.254,249.82l11.8,161.805c-0,5.683 5.062,10.349 11.363,10.349c5.942,-0 10.986,-5.684 11.364,-11.364l13.2,-161.805l-13.2,-250.758c-0.498,-6.56 -5.545,-11.364 -11.364,-11.364m60.546,-57.698c-6.618,-0 -12.302,5.683 -12.818,12.243l-11.364,307.577l10.426,160.867c-0,7.574 5.684,13.196 12.302,13.196c6.578,0 12.258,-5.622 13.258,-13.2l12.182,-160.863l-12.12,-306.562c-1,-7.578 -6.622,-13.258 -13.258,-13.258m62.44,-28.35c-7.636,0 -13.32,5.622 -14.196,13.197l-10.426,333.017l10.426,159.092c0.876,7.516 6.56,14.2 14.196,14.2c7.516,0 14.211,-6.622 14.211,-14.2l12.306,-159.092l-12.364,-333.017c-0,-7.575 -6.637,-14.211 -14.215,-14.211m78.608,2.847c0,-8.531 -6.636,-15.149 -15.153,-15.149c-7.513,-0 -15.149,6.618 -15.149,15.149l-9.411,343.504l9.411,158.016c1,8.517 7.636,15.153 16.149,15.153c8.531,0 15.153,-6.636 15.153,-15.153l10.364,-158.016l-10.364,-344.457l-1,0.953Zm47.273,-8.469c-8.516,-0 -16.091,7.516 -16.091,16.047l-9.469,335.985l9.469,156.124c0,9.47 7.575,16.091 16.091,16.091c8.531,0 16.106,-7.578 16.106,-17.047l9.469,-156.183l-10.422,-335.032c0,-9.349 -7.578,-17.047 -17.106,-17.047m63.455,10.473c-10.363,-0 -17.942,8.527 -17.942,18l-6.498,324.682l8.531,156.183c0,9.411 7.513,17.484 17.924,17.484c9.407,0 17.106,-7.574 17.924,-17.982l7.651,-154.23l-8.531,-322.73c-0.757,-10.363 -8.513,-18 -17.986,-18m74.746,-59.651c-2.851,-1.833 -6.636,-2.789 -10.425,-2.789c-3.789,-0 -7.502,0.956 -10.411,2.789c-5.68,3.407 -9.408,9.469 -9.408,16.091l0,3.847l-6.56,381.821l7.255,154.623l-0,0.502c0.502,3.785 1.894,8.513 4.669,11.364c3.665,3.847 8.967,6.56 14.771,6.56c5.062,-0 9.986,-2.775 13.2,-5.684c3.666,-3.785 5.742,-8.513 5.742,-14.196l0.953,-15.153l7.378,-139.074l-8.513,-384.232c0,-6.56 -3.851,-12.182 -8.531,-15.091l-0.12,-1.378Zm63.513,-34.531c-2.847,-2.848 -5.68,-3.862 -9.469,-3.862c-4.68,-0 -9.411,1.014 -13.196,3.862c-4.742,3.847 -7.517,9.469 -7.517,15.152l0,1.819l-8.651,417.243l4.804,76.699l3.847,74.818c0,10.349 9.35,19.819 20.713,19.819c11.426,-0 20.833,-9.47 20.833,-20.771l9.469,-152.398l-9.469,-419.003c0,-7.575 -4.68,-13.953 -10.425,-17.484m564.022,238.442c-25.564,-0 -50.182,5.422 -71.91,14.651c-15.152,-167.561 -155.306,-299.002 -327.518,-299.002c-41.608,-0 -82.394,8.531 -119.26,22.665c-14.211,5.684 -17.043,11.364 -18,22.67l0,591.426c1.015,11.349 9.47,20.818 20.833,21.775l516.731,-0c102.216,1.014 185.489,-81.321 185.489,-184.471c0,-103.153 -83.273,-186.365 -185.489,-186.365" style="fill:#35a353;fill-rule:nonzero;"/></svg>