<?xml version="1.0" encoding="UTF-8" standalone="no"?><!DOCTYPE svg PUBLIC "-//W3C//DTD SVG 1.1//EN" "http://www.w3.org/Graphics/SVG/1.1/DTD/svg11.dtd"><svg width="100%" height="100%" viewBox="0 0 1738 1738" version="1.1" xmlns="http://www.w3.org/2000/svg" xmlns:xlink="http://www.w3.org/1999/xlink" xml:space="preserve" xmlns:serif="http://www.serif.com/" style="fill-rule:evenodd;clip-rule:evenodd;stroke-linejoin:round;stroke-miterlimit:2;"><path d="M1736.27,116.184c0,-64.053 -52.003,-116.056 -116.056,-116.056l-1503.8,0c-64.053,0 -116.056,52.003 -116.056,116.056l-0,1505.03c-0,64.053 52.003,116.056 116.056,116.056l1503.8,-0c64.053,-0 116.056,-52.003 116.056,-116.056l0,-1505.03Z" style="fill:#fff;"/><path d="M538.829,438.924c235.772,0 426.886,192.45 426.886,429.833c0,237.382 -191.13,429.819 -426.89,429.819c-235.758,-0 -426.903,-192.435 -426.903,-429.819c-0,-237.383 191.13,-429.833 426.903,-429.833l0.004,0Zm681.733,25.179c117.885,-0 213.45,181.151 213.45,404.653l0.014,0c0,223.444 -95.564,404.654 -213.45,404.654c-117.886,0 -213.452,-181.209 -213.452,-404.654c-0,-223.445 95.55,-404.653 213.438,-404.653Zm329.944,42.148c41.452,0 75.072,162.297 75.072,362.505c0,200.151 -33.606,362.505 -75.072,362.505c-41.466,-0 -75.056,-162.311 -75.056,-362.505c-0,-200.195 33.604,-362.505 75.056,-362.505Z" style="fill:#35a353;fill-rule:nonzero;"/></svg>