<?xml version="1.0" encoding="UTF-8" standalone="no"?><!DOCTYPE svg PUBLIC "-//W3C//DTD SVG 1.1//EN" "http://www.w3.org/Graphics/SVG/1.1/DTD/svg11.dtd"><svg width="100%" height="100%" viewBox="0 0 1738 1738" version="1.1" xmlns="http://www.w3.org/2000/svg" xmlns:xlink="http://www.w3.org/1999/xlink" xml:space="preserve" xmlns:serif="http://www.serif.com/" style="fill-rule:evenodd;clip-rule:evenodd;stroke-linejoin:round;stroke-miterlimit:2;"><path d="M1736.27,116.184c0,-64.053 -52.003,-116.056 -116.056,-116.056l-1503.8,0c-64.053,0 -116.056,52.003 -116.056,116.056l-0,1505.03c-0,64.053 52.003,116.056 116.056,116.056l1503.8,-0c64.053,-0 116.056,-52.003 116.056,-116.056l0,-1505.03Z" style="fill:#fff;"/><path d="M1346.78,1121.37l-0,-983.825l-130.798,-0l-0,184.601l-4.069,0c-13.403,-28.907 -30.554,-56.61 -53.485,-83.028c-22.869,-26.181 -48.728,-49.354 -78.257,-69.494c-29.61,-19.957 -61.125,-35.647 -96.509,-46.759c-35.127,-10.736 -72.421,-16.452 -112.502,-16.452c-76.856,0 -146.105,14.285 -206.205,42.567c-60.163,28.39 -110.721,67.144 -151.505,116.253c-40.781,49.094 -71.975,106.465 -93.38,172.222c-21.347,65.864 -32.156,135.233 -32.156,208.554c-0,76.168 8.964,147.751 27,214.833c18.175,67.145 46.822,125.54 86.904,175.469c40.081,49.551 89.71,88.733 150.879,116.436c61.045,27.703 134.607,41.988 220.504,41.988c79.282,-0 148.011,-20.001 207.211,-60.086c59.219,-40.097 104.058,-93.582 134.611,-160.404l3.886,-0l0,145.083c0,129.851 -26.755,229.151 -80.302,298.901c-53.361,68.67 -141.285,104.057 -263.379,104.057c-36.331,0 -71.656,-3.889 -106.022,-11.511c-34.439,-7.622 -65.816,-20.005 -94.463,-36.211c-27.765,-17.212 -52.541,-38.175 -72.619,-65.94c-20.066,-27.627 -33.403,-61.045 -40.144,-101.189l-133.846,-0c4.252,56.35 20.001,105.078 46.822,146.104c26.924,41.044 61.045,74.463 101.767,101.207c40.722,25.782 86.841,44.839 137.977,57.294c51.52,12.32 104.12,19.057 158.424,19.057c87.866,-0 161.429,-12.379 221.467,-35.248c60.149,-23.891 108.873,-57.309 146.167,-102.151c38.175,-44.974 64.857,-98.412 82.132,-162.373c17.15,-63.972 26.696,-135.569 26.696,-213.903l-2.806,3.948Zm-475.423,-35.387c-60.664,-0 -113.34,-12.013 -157.48,-36.269c-44.29,-24.15 -81.126,-56.032 -110.033,-95.488c-29.668,-39.441 -50.631,-84.617 -64.916,-135.873c-14.3,-51.275 -21.102,-103.736 -21.102,-157.799c0,-55.329 6.678,-109.59 19.119,-162.815c13.341,-53.364 34.304,-100.823 63.028,-142.31c28.647,-41.41 65.878,-75.088 109.773,-100.625c43.894,-25.537 97.379,-38.435 159.445,-38.435c62.069,0 114.544,13.279 158.501,39.456c42.947,26.36 79.219,60.924 106.904,103.798c27.703,43.009 47.722,90.775 60.163,143.253c12.397,52.479 18.113,105.199 18.113,157.678c-0,54.122 -7.622,106.586 -21.926,157.799c-14.343,51.256 -36.331,96.432 -65.937,135.873c-29.532,39.456 -64.857,71.338 -107.87,95.488c-42.932,24.256 -92.619,36.269 -149.854,36.269l4.072,-0Z" style="fill:#35a353;fill-rule:nonzero;"/></svg>