<?xml version="1.0" encoding="UTF-8" standalone="no"?><!DOCTYPE svg PUBLIC "-//W3C//DTD SVG 1.1//EN" "http://www.w3.org/Graphics/SVG/1.1/DTD/svg11.dtd"><svg width="100%" height="100%" viewBox="0 0 1738 1738" version="1.1" xmlns="http://www.w3.org/2000/svg" xmlns:xlink="http://www.w3.org/1999/xlink" xml:space="preserve" xmlns:serif="http://www.serif.com/" style="fill-rule:evenodd;clip-rule:evenodd;stroke-linejoin:round;stroke-miterlimit:2;"><path d="M1736.27,116.184c0,-64.053 -52.003,-116.056 -116.056,-116.056l-1503.8,0c-64.053,0 -116.056,52.003 -116.056,116.056l-0,1505.03c-0,64.053 52.003,116.056 116.056,116.056l1503.8,-0c64.053,-0 116.056,-52.003 116.056,-116.056l0,-1505.03Z" style="fill:#fff;"/><path d="M868.748,104.1c-207.721,0 -233.659,0.966 -315.218,4.588c-81.433,3.825 -136.873,16.638 -185.626,35.558c-50.283,19.497 -92.965,45.692 -135.464,88.194c-42.502,42.499 -68.759,85.119 -88.197,135.464c-18.917,48.753 -31.793,104.193 -35.555,185.626c-3.824,81.559 -4.588,107.497 -4.588,315.218c0,207.725 0.962,233.663 4.588,315.222c3.825,81.374 16.638,136.888 35.555,185.626c19.5,50.206 45.699,92.965 88.197,135.464c42.499,42.44 85.119,68.756 135.464,88.194c48.815,18.858 104.252,31.796 185.612,35.558c81.573,3.821 107.511,4.588 315.232,4.588c207.725,-0 233.663,-0.966 315.222,-4.588c81.374,-3.825 136.888,-16.7 185.626,-35.558c50.206,-19.497 92.965,-45.754 135.464,-88.194c42.44,-42.499 68.756,-85.06 88.194,-135.464c18.858,-48.757 31.796,-104.252 35.558,-185.626c3.821,-81.559 4.588,-107.497 4.588,-315.222c-0,-207.721 -0.966,-233.659 -4.588,-315.218c-3.825,-81.374 -16.7,-136.946 -35.558,-185.626c-19.497,-50.268 -45.754,-92.965 -88.194,-135.464c-42.499,-42.498 -85.06,-68.759 -135.464,-88.194c-48.757,-18.92 -104.252,-31.796 -185.626,-35.558c-81.559,-3.824 -107.497,-4.588 -315.222,-4.588Zm0,137.637c204.103,0 228.448,1.024 309.041,4.526c74.555,3.505 115.02,15.859 141.92,26.444c35.8,13.823 61.173,30.401 88.058,57.088c26.702,26.761 43.262,52.196 57.088,88.011c10.461,26.885 22.94,67.35 26.32,141.902c3.637,80.673 4.463,104.879 4.463,309.04c0,204.161 -0.962,228.448 -4.724,309.041c-3.883,74.555 -16.303,115.02 -26.822,141.92c-14.27,35.8 -30.526,61.173 -57.29,88.058c-26.687,26.702 -52.5,43.262 -87.934,57.088c-26.764,10.461 -67.856,22.94 -142.408,26.32c-81.176,3.637 -105.077,4.463 -309.62,4.463c-204.606,0 -228.511,-0.962 -309.625,-4.724c-74.613,-3.883 -115.706,-16.303 -142.467,-26.822c-36.262,-14.27 -61.173,-30.526 -87.874,-57.29c-26.841,-26.687 -43.967,-52.5 -57.349,-87.934c-10.523,-26.764 -22.877,-67.856 -26.764,-142.408c-2.874,-80.288 -3.898,-105.077 -3.898,-308.659c0.015,-203.655 1.024,-228.506 3.898,-309.76c3.887,-74.551 16.241,-115.582 26.764,-142.346c13.382,-36.321 30.508,-61.173 57.349,-87.995c26.701,-26.702 51.612,-43.908 87.874,-57.228c26.761,-10.567 66.965,-22.998 141.521,-26.823c81.235,-2.859 105.139,-3.824 309.62,-3.824l2.859,1.912Zm0,234.364c-216.974,0 -392.647,175.871 -392.647,392.647c0,216.964 175.871,392.651 392.647,392.651c216.964,-0 392.651,-175.871 392.651,-392.651c-0,-216.974 -175.871,-392.647 -392.651,-392.647Zm0,647.536c-140.815,-0 -254.885,-114.07 -254.885,-254.889c0,-140.815 114.07,-254.885 254.885,-254.885c140.819,0 254.889,114.07 254.889,254.885c-0,140.819 -114.07,254.889 -254.889,254.889Zm499.96,-663.028c-0,50.669 -41.17,91.758 -91.758,91.758c-50.665,-0 -91.758,-41.152 -91.758,-91.758c-0,-50.588 41.155,-91.681 91.758,-91.681c50.529,-0.077 91.758,41.093 91.758,91.681Z" style="fill:#35a353;fill-rule:nonzero;"/></svg>