<?xml version="1.0" encoding="UTF-8" standalone="no"?><!DOCTYPE svg PUBLIC "-//W3C//DTD SVG 1.1//EN" "http://www.w3.org/Graphics/SVG/1.1/DTD/svg11.dtd"><svg width="100%" height="100%" viewBox="0 0 1738 1738" version="1.1" xmlns="http://www.w3.org/2000/svg" xmlns:xlink="http://www.w3.org/1999/xlink" xml:space="preserve" xmlns:serif="http://www.serif.com/" style="fill-rule:evenodd;clip-rule:evenodd;stroke-linejoin:round;stroke-miterlimit:2;"><path d="M1736.27,116.184c0,-64.053 -52.003,-116.056 -116.056,-116.056l-1503.8,0c-64.053,0 -116.056,52.003 -116.056,116.056l-0,1505.03c-0,64.053 52.003,116.056 116.056,116.056l1503.8,-0c64.053,-0 116.056,-52.003 116.056,-116.056l0,-1505.03Z" style="fill:#fff;"/><path d="M1405.01,1405.27l-225.67,0l0.014,-353.506c-0.014,-84.307 -1.718,-192.793 -117.565,-192.793c-117.627,-0 -135.586,91.729 -135.586,186.563l-0,359.736l-225.609,0l0.015,-726.95l216.713,-0l-0,99.086l2.91,-0c30.285,-57.13 103.912,-117.43 213.923,-117.43c228.581,0 270.855,150.442 270.855,346.267l0,399.027Zm-959.217,-826.416c-72.606,-0 -130.939,-58.775 -130.939,-131.079c-0,-72.245 58.395,-130.958 130.954,-130.958c72.366,0 131.02,58.713 131.02,130.958c0,72.304 -58.731,131.079 -131.035,131.079Zm113.119,826.416l-226.234,0l0,-726.95l226.234,-0l0,726.95Zm958.895,-1298.25l-1298.37,0c-62.143,0 -112.417,49.134 -112.417,109.751l0,1303.96c0,60.68 50.274,109.751 112.417,109.751l1298.19,-0c62.08,-0 112.859,-49.071 112.859,-109.751l-0,-1303.96c-0,-60.621 -50.779,-109.751 -112.859,-109.751l0.182,0Z" style="fill:#35a353;fill-rule:nonzero;"/></svg>