<?xml version="1.0" encoding="UTF-8" standalone="no"?><!DOCTYPE svg PUBLIC "-//W3C//DTD SVG 1.1//EN" "http://www.w3.org/Graphics/SVG/1.1/DTD/svg11.dtd"><svg width="100%" height="100%" viewBox="0 0 1738 1738" version="1.1" xmlns="http://www.w3.org/2000/svg" xmlns:xlink="http://www.w3.org/1999/xlink" xml:space="preserve" xmlns:serif="http://www.serif.com/" style="fill-rule:evenodd;clip-rule:evenodd;stroke-linejoin:round;stroke-miterlimit:2;"><path d="M1736.27,116.184c0,-64.053 -52.003,-116.056 -116.056,-116.056l-1503.8,0c-64.053,0 -116.056,52.003 -116.056,116.056l-0,1505.03c-0,64.053 52.003,116.056 116.056,116.056l1503.8,-0c64.053,-0 116.056,-52.003 116.056,-116.056l0,-1505.03Z" style="fill:#fff;"/><path d="M914.154,1280.62c-51.069,-100.502 -110.946,-202.034 -227.907,-202.034c-22.247,0 -44.682,3.749 -65.099,12.848l-39.694,-79.228c48.311,-41.673 126.492,-74.612 226.976,-74.612c156.364,-0 236.701,75.543 300.44,171.602c37.676,-82.047 55.569,-192.989 55.569,-330.37c-0,-343.084 -107.2,-519.185 -357.853,-519.185c-246.95,-0 -353.836,176.101 -353.836,519.185c0,341.316 106.886,515.616 353.836,515.616c39.343,-0 74.997,-4.234 107.568,-13.822Zm61.215,119.663c-54.149,14.575 -111.678,22.495 -168.589,22.495c-328.954,-0 -650.901,-262.379 -650.901,-644.009c0.06,-385.068 321.947,-647.581 650.901,-647.581c334.424,0 653.228,260.478 653.228,647.638c-0,215.37 -100.485,390.364 -246.465,503.448c46.955,70.569 94.837,117.64 163.002,117.64c73.699,0 103.26,-56.234 108.79,-101.341l95.694,0c5.661,59.86 -24.711,307.741 -292.931,307.741c-163.002,-0 -248.734,-93.921 -313.214,-204.555l0.485,-1.476Z" style="fill:#35a353;fill-rule:nonzero;"/></svg>