<?xml version="1.0" encoding="UTF-8" standalone="no"?><!DOCTYPE svg PUBLIC "-//W3C//DTD SVG 1.1//EN" "http://www.w3.org/Graphics/SVG/1.1/DTD/svg11.dtd"><svg width="100%" height="100%" viewBox="0 0 1738 1738" version="1.1" xmlns="http://www.w3.org/2000/svg" xmlns:xlink="http://www.w3.org/1999/xlink" xml:space="preserve" xmlns:serif="http://www.serif.com/" style="fill-rule:evenodd;clip-rule:evenodd;stroke-linejoin:round;stroke-miterlimit:2;"><path d="M1736.27,116.184c0,-64.053 -52.003,-116.056 -116.056,-116.056l-1503.8,0c-64.053,0 -116.056,52.003 -116.056,116.056l-0,1505.03c-0,64.053 52.003,116.056 116.056,116.056l1503.8,-0c64.053,-0 116.056,-52.003 116.056,-116.056l0,-1505.03Z" style="fill:#fff;"/><path d="M1626.53,873.352c0,-418.512 -339.269,-757.785 -757.781,-757.785c-418.512,-0 -757.785,339.273 -757.785,757.785c-0,378.239 277.113,691.729 639.379,748.581l0,-529.536l-192.403,-0l0,-219.045l192.403,-0l0,-166.954c0,-189.915 113.131,-294.817 286.222,-294.817c82.909,-0 169.634,14.794 169.634,14.794l0,186.488l-95.546,-0c-94.139,-0 -123.499,58.417 -123.499,118.347l0,142.142l210.166,-0l-33.59,219.045l-176.576,-0l0,529.536c362.278,-56.852 639.376,-370.342 639.376,-748.581Z" style="fill:#35a353;fill-rule:nonzero;"/></svg>