<?xml version="1.0" encoding="UTF-8" standalone="no"?><!DOCTYPE svg PUBLIC "-//W3C//DTD SVG 1.1//EN" "http://www.w3.org/Graphics/SVG/1.1/DTD/svg11.dtd"><svg width="100%" height="100%" viewBox="0 0 1738 1738" version="1.1" xmlns="http://www.w3.org/2000/svg" xmlns:xlink="http://www.w3.org/1999/xlink" xml:space="preserve" xmlns:serif="http://www.serif.com/" style="fill-rule:evenodd;clip-rule:evenodd;stroke-linejoin:round;stroke-miterlimit:2;"><path d="M1736.27,116.184c0,-64.053 -52.003,-116.056 -116.056,-116.056l-1503.8,0c-64.053,0 -116.056,52.003 -116.056,116.056l-0,1505.03c-0,64.053 52.003,116.056 116.056,116.056l1503.8,-0c64.053,-0 116.056,-52.003 116.056,-116.056l0,-1505.03Z" style="fill:#fff;"/><path d="M868.748,114.814c-414.663,-0 -753.934,339.271 -753.934,753.934c-0,414.667 339.271,753.938 753.934,753.938c414.667,0 753.938,-339.271 753.938,-753.938c0,-414.663 -335.504,-753.934 -753.938,-753.934Zm346.871,1089.44c-15.076,22.556 -41.465,30.156 -64.145,15.076c-177.174,-109.319 -399.583,-131.999 -663.524,-71.683c-26.265,7.661 -48.945,-11.247 -56.483,-33.865c-7.538,-26.451 11.309,-49.007 33.927,-56.546c286.497,-64.144 535.295,-37.697 731.316,82.931c26.389,11.309 30.098,41.407 18.909,64.087Zm90.472,-207.334c-18.909,26.389 -52.836,37.698 -79.283,18.848c-203.501,-124.4 -512.615,-162.094 -750.105,-86.702c-30.098,7.538 -64.083,-7.538 -71.625,-37.698c-7.538,-30.156 7.542,-64.145 37.698,-71.683c275.187,-82.872 614.458,-41.346 848.177,101.843c22.68,11.367 33.927,49.003 15.138,75.392Zm7.542,-211.1c-241.322,-143.25 -644.677,-158.327 -874.628,-86.644c-37.694,11.248 -75.392,-11.37 -86.701,-45.297c-11.31,-37.756 11.309,-75.393 45.236,-86.763c267.646,-79.164 708.698,-64.084 987.714,101.842c33.87,18.848 45.179,64.084 26.328,98.011c-18.786,26.45 -64.084,37.636 -97.949,18.851Z" style="fill:#35a353;fill-rule:nonzero;"/></svg>