<?xml version="1.0" encoding="UTF-8" standalone="no"?><!DOCTYPE svg PUBLIC "-//W3C//DTD SVG 1.1//EN" "http://www.w3.org/Graphics/SVG/1.1/DTD/svg11.dtd"><svg width="100%" height="100%" viewBox="0 0 1738 1738" version="1.1" xmlns="http://www.w3.org/2000/svg" xmlns:xlink="http://www.w3.org/1999/xlink" xml:space="preserve" xmlns:serif="http://www.serif.com/" style="fill-rule:evenodd;clip-rule:evenodd;stroke-linejoin:round;stroke-miterlimit:2;"><rect id="dev.to" x="0" y="0" width="1737.5" height="1737.5" style="fill:none;"/><path d="M1736.27,116.184c0,-64.053 -52.003,-116.056 -116.056,-116.056l-1503.8,0c-64.053,0 -116.056,52.003 -116.056,116.056l-0,1505.03c-0,64.053 52.003,116.056 116.056,116.056l1503.8,-0c64.053,-0 116.056,-52.003 116.056,-116.056l0,-1505.03Z" style="fill:#fff;"/><path d="M576.908,734.712c-10.901,-8.147 -21.829,-12.221 -32.73,-12.221l-48.995,0l-0,293.499l49.024,0c10.9,0 21.829,-4.074 32.73,-12.221c10.9,-8.148 16.35,-20.368 16.35,-36.691l0,-195.674c-0.028,-16.295 -5.506,-28.544 -16.379,-36.691l0,-0.001Zm797.814,-495.269l-1011.94,-0c-67.988,-0 -123.164,55.036 -123.333,123.052l0,1012.51c0.169,68.016 55.345,123.052 123.333,123.052l1011.94,0c68.016,0 123.164,-55.036 123.333,-123.052l-0,-1012.51c-0.169,-68.016 -55.346,-123.052 -123.333,-123.052Zm-702.069,728.169c0,52.845 -32.617,132.913 -135.862,132.744l-130.356,0l-0,-464.843l133.109,-0c99.565,-0 133.053,79.955 133.081,132.828l0.028,199.27l0,0.001Zm282.851,-249.082l-149.685,-0l0,107.937l91.502,0l0,83.074l-91.502,0l0,107.909l149.713,0l0,83.074l-174.689,0c-31.353,0.815 -57.424,-23.964 -58.211,-55.317l0,-351.484c-0.758,-31.325 24.049,-57.34 55.374,-58.127l177.526,0l-0.028,82.934l0,-0Zm291.165,323.895c-37.084,86.389 -103.525,69.196 -133.277,0l-108.246,-406.801l91.502,0l83.467,319.484l83.074,-319.484l91.53,0l-108.05,406.801Z" style="fill:#35a353;fill-rule:nonzero;"/></svg>