<?xml version="1.0" encoding="UTF-8" standalone="no"?><!DOCTYPE svg PUBLIC "-//W3C//DTD SVG 1.1//EN" "http://www.w3.org/Graphics/SVG/1.1/DTD/svg11.dtd"><svg width="100%" height="100%" viewBox="0 0 1738 1738" version="1.1" xmlns="http://www.w3.org/2000/svg" xmlns:xlink="http://www.w3.org/1999/xlink" xml:space="preserve" xmlns:serif="http://www.serif.com/" style="fill-rule:evenodd;clip-rule:evenodd;stroke-linejoin:round;stroke-miterlimit:2;"><path d="M1736.27,116.184c0,-64.053 -52.003,-116.056 -116.056,-116.056l-1503.8,0c-64.053,0 -116.056,52.003 -116.056,116.056l-0,1505.03c-0,64.053 52.003,116.056 116.056,116.056l1503.8,-0c64.053,-0 116.056,-52.003 116.056,-116.056l0,-1505.03Z" style="fill:#fff;"/><g><path d="M108.48,477.44l760.284,380.087l760.278,-380.087c-5.816,-100.004 -89.692,-179.133 -189.86,-179.111l-1140.84,0c-100.168,-0.022 -184.066,79.107 -189.86,179.111Z" style="fill:#35a353;fill-rule:nonzero;"/><path d="M1629.32,689.823l-760.558,380.284l-760.574,-380.29l0,559.198c0,104.319 85.837,190.156 190.156,190.156l1140.84,-0c104.297,-0 190.134,-85.837 190.134,-190.156l-0,-559.198l-0,0.006Z" style="fill:#35a353;fill-rule:nonzero;"/></g></svg>