<?xml version="1.0" encoding="UTF-8" standalone="no"?><!DOCTYPE svg PUBLIC "-//W3C//DTD SVG 1.1//EN" "http://www.w3.org/Graphics/SVG/1.1/DTD/svg11.dtd"><svg width="100%" height="100%" viewBox="0 0 1738 1738" version="1.1" xmlns="http://www.w3.org/2000/svg" xmlns:xlink="http://www.w3.org/1999/xlink" xml:space="preserve" xmlns:serif="http://www.serif.com/" style="fill-rule:evenodd;clip-rule:evenodd;stroke-linejoin:round;stroke-miterlimit:2;"><path d="M1736.27,116.184c0,-64.053 -52.003,-116.056 -116.056,-116.056l-1503.8,0c-64.053,0 -116.056,52.003 -116.056,116.056l-0,1505.03c-0,64.053 52.003,116.056 116.056,116.056l1503.8,-0c64.053,-0 116.056,-52.003 116.056,-116.056l0,-1505.03Z" style="fill:#fff;"/><path d="M1592,504.179c-17.784,-63.703 -67.703,-113.621 -131.402,-131.387c-117.603,-31.518 -591.208,-31.518 -591.208,-31.518c-0,-0 -472.288,-0.62 -591.162,31.518c-63.685,17.795 -113.589,67.746 -131.326,131.445c-22.309,120.429 -33.329,242.697 -32.891,365.176c-0.348,122.045 10.658,243.846 32.891,363.851c17.766,63.67 67.656,113.588 131.326,131.383c117.559,31.58 591.223,31.58 591.223,31.58c0,0 472.215,0 591.147,-31.58c63.718,-17.78 113.636,-67.728 131.402,-131.445c21.737,-120.034 32.257,-241.82 31.442,-363.789c0.92,-122.479 -9.615,-244.776 -31.442,-365.295l-0,0.061Zm-873.695,591.223l0,-452.608l394.115,226.681l-394.115,225.927Z" style="fill:#35a353;fill-rule:nonzero;"/></svg>