<?xml version="1.0" encoding="UTF-8" standalone="no"?><!DOCTYPE svg PUBLIC "-//W3C//DTD SVG 1.1//EN" "http://www.w3.org/Graphics/SVG/1.1/DTD/svg11.dtd"><svg width="100%" height="100%" viewBox="0 0 1738 1738" version="1.1" xmlns="http://www.w3.org/2000/svg" xmlns:xlink="http://www.w3.org/1999/xlink" xml:space="preserve" xmlns:serif="http://www.serif.com/" style="fill-rule:evenodd;clip-rule:evenodd;stroke-linejoin:round;stroke-miterlimit:2;"><path d="M1736.27,116.184c0,-64.053 -52.003,-116.056 -116.056,-116.056l-1503.8,0c-64.053,0 -116.056,52.003 -116.056,116.056l-0,1505.03c-0,64.053 52.003,116.056 116.056,116.056l1503.8,-0c64.053,-0 116.056,-52.003 116.056,-116.056l0,-1505.03Z" style="fill:#fff;"/><path d="M1118.08,351.849c35.631,-36.901 84.794,-57.768 136.109,-57.768c103.797,-0 189.223,85.426 189.223,189.245c0,51.293 -20.867,100.456 -57.768,136.109l-283.842,283.842c-73.393,73.371 -194.172,73.371 -267.564,0c-17.641,-17.03 -41.212,-26.568 -65.736,-26.568c-51.909,0 -94.625,42.711 -94.625,94.62c-0,24.502 9.537,48.1 26.568,65.719c146.807,146.758 388.342,146.758 535.149,0l283.843,-283.848c68.123,-70.526 106.228,-164.856 106.228,-262.904c-0,-207.616 -170.83,-378.468 -378.446,-378.468c-98.075,0 -192.4,38.127 -262.932,106.25l-141.918,141.918c-18.464,17.805 -28.884,42.4 -28.884,68.058c-0,51.887 42.71,94.598 94.619,94.598c25.636,-0 50.231,-10.421 68.058,-28.885l141.918,-141.918Zm-473.087,473.087c73.414,-73.392 194.171,-73.392 267.586,0c17.804,18.437 42.394,28.884 68.057,28.884c51.882,0 94.598,-42.715 94.598,-94.625c-0,-25.658 -10.426,-50.225 -28.884,-68.052c-146.78,-146.758 -388.343,-146.758 -535.128,0l-283.843,283.843c-73.823,71.278 -115.536,169.604 -115.536,272.218c0,207.616 170.83,378.468 378.446,378.468c102.615,-0 200.935,-41.735 272.218,-115.536l141.919,-141.924c18.464,-17.821 28.884,-42.416 28.884,-68.052c-0,-51.91 -42.71,-94.625 -94.598,-94.625c-25.658,-0 -50.253,10.425 -68.057,28.884l-141.919,141.924c-35.653,36.9 -84.815,57.768 -136.109,57.768c-103.819,-0 -189.245,-85.426 -189.245,-189.223c0,-51.316 20.868,-100.478 57.768,-136.109l283.843,-283.843Z" style="fill:#35a353;fill-rule:nonzero;"/></svg>