<?xml version="1.0" encoding="UTF-8" standalone="no"?><!DOCTYPE svg PUBLIC "-//W3C//DTD SVG 1.1//EN" "http://www.w3.org/Graphics/SVG/1.1/DTD/svg11.dtd"><svg width="100%" height="100%" viewBox="0 0 417 417" version="1.1" xmlns="http://www.w3.org/2000/svg" xmlns:xlink="http://www.w3.org/1999/xlink" xml:space="preserve" xmlns:serif="http://www.serif.com/" style="fill-rule:evenodd;clip-rule:evenodd;stroke-linejoin:round;stroke-miterlimit:2;"><path d="M416.633,208.317c0,-115.05 -93.266,-208.317 -208.316,-208.317c-115.05,0 -208.317,93.267 -208.317,208.317c0,103.979 76.179,190.158 175.767,205.787l-0,-145.571l-52.892,0l0,-60.216l52.892,-0l-0,-45.896c-0,-52.208 31.1,-81.046 78.683,-81.046c22.792,0 46.633,4.067 46.633,4.067l0,51.266l-26.266,0c-25.879,0 -33.95,16.059 -33.95,32.534l-0,39.075l57.775,-0l-9.234,60.216l-48.541,0l-0,145.571c99.591,-15.629 175.766,-101.808 175.766,-205.787Z" style="fill:#35a353;fill-rule:nonzero;"/></svg>