<?xml version="1.0" encoding="UTF-8" standalone="no"?><!DOCTYPE svg PUBLIC "-//W3C//DTD SVG 1.1//EN" "http://www.w3.org/Graphics/SVG/1.1/DTD/svg11.dtd"><svg width="100%" height="100%" viewBox="0 0 417 417" version="1.1" xmlns="http://www.w3.org/2000/svg" xmlns:xlink="http://www.w3.org/1999/xlink" xml:space="preserve" xmlns:serif="http://www.serif.com/" style="fill-rule:evenodd;clip-rule:evenodd;stroke-linejoin:round;stroke-miterlimit:2;"><path d="M338.975,277.379l0,-268.871l-35.746,0l0,50.45l-1.112,0c-3.663,-7.9 -8.35,-15.471 -14.617,-22.691c-6.25,-7.155 -13.317,-13.488 -21.387,-18.992c-8.092,-5.454 -16.705,-9.742 -26.375,-12.779c-9.6,-2.934 -19.792,-4.496 -30.746,-4.496c-21.004,-0 -39.929,3.904 -56.354,11.633c-16.442,7.759 -30.259,18.35 -41.405,31.771c-11.145,13.417 -19.67,29.096 -25.52,47.067c-5.834,18 -8.788,36.958 -8.788,56.996c0,20.816 2.45,40.379 7.379,58.712c4.967,18.35 12.796,34.309 23.75,47.954c10.954,13.542 24.517,24.25 41.234,31.821c16.683,7.571 36.787,11.475 60.262,11.475c21.667,0 40.45,-5.466 56.629,-16.421c16.184,-10.958 28.438,-25.575 36.788,-43.837l1.062,-0l0,39.65c0,35.487 -7.312,62.625 -21.946,81.687c-14.583,18.767 -38.612,28.438 -71.979,28.438c-9.929,-0 -19.583,-1.063 -28.975,-3.146c-9.412,-2.083 -17.987,-5.467 -25.816,-9.896c-7.588,-4.704 -14.359,-10.433 -19.846,-18.021c-5.484,-7.55 -9.129,-16.683 -10.971,-27.654l-36.579,0c1.162,15.4 5.466,28.717 12.796,39.929c7.358,11.217 16.683,20.35 27.812,27.659c11.129,7.046 23.733,12.254 37.708,15.658c14.08,3.367 28.455,5.208 43.296,5.208c24.013,0 44.117,-3.383 60.525,-9.633c16.438,-6.529 29.754,-15.662 39.946,-27.917c10.433,-12.291 17.725,-26.895 22.446,-44.375c4.687,-17.483 7.296,-37.05 7.296,-58.458l-0.767,1.079Zm-129.929,-9.671c-16.579,0 -30.975,-3.283 -43.038,-9.912c-12.104,-6.6 -22.171,-15.313 -30.071,-26.096c-8.108,-10.779 -13.837,-23.125 -17.741,-37.133c-3.908,-14.013 -5.767,-28.35 -5.767,-43.125c0,-15.121 1.825,-29.95 5.225,-44.496c3.646,-14.584 9.375,-27.554 17.225,-38.892c7.829,-11.317 18.004,-20.521 30,-27.5c11.996,-6.979 26.613,-10.504 43.575,-10.504c16.963,-0 31.304,3.629 43.317,10.783c11.737,7.204 21.65,16.65 29.216,28.367c7.571,11.754 13.042,24.808 16.442,39.15c3.388,14.342 4.95,28.75 4.95,43.092c0,14.791 -2.083,29.129 -5.992,43.125c-3.92,14.008 -9.929,26.354 -18.02,37.133c-8.071,10.783 -17.725,19.496 -29.48,26.096c-11.733,6.629 -25.312,9.912 -40.954,9.912l1.113,0Z" style="fill:#35a353;fill-rule:nonzero;"/></svg>