<?xml version="1.0" encoding="UTF-8" standalone="no"?><!DOCTYPE svg PUBLIC "-//W3C//DTD SVG 1.1//EN" "http://www.w3.org/Graphics/SVG/1.1/DTD/svg11.dtd"><svg width="100%" height="100%" viewBox="0 0 417 417" version="1.1" xmlns="http://www.w3.org/2000/svg" xmlns:xlink="http://www.w3.org/1999/xlink" xml:space="preserve" xmlns:serif="http://www.serif.com/" style="fill-rule:evenodd;clip-rule:evenodd;stroke-linejoin:round;stroke-miterlimit:2;"><path d="M208.333,0c-56.595,0 -63.662,0.263 -85.883,1.25c-22.187,1.042 -37.292,4.533 -50.575,9.688c-13.7,5.312 -25.329,12.449 -36.908,24.029c-11.58,11.579 -18.734,23.191 -24.03,36.908c-5.154,13.283 -8.662,28.388 -9.687,50.575c-1.042,22.221 -1.25,29.288 -1.25,85.883c-0,56.596 0.262,63.663 1.25,85.884c1.042,22.171 4.533,37.296 9.687,50.575c5.313,13.679 12.451,25.329 24.03,36.908c11.579,11.563 23.191,18.733 36.908,24.029c13.3,5.138 28.404,8.663 50.571,9.688c22.225,1.041 29.292,1.25 85.887,1.25c56.596,-0 63.663,-0.263 85.884,-1.25c22.171,-1.042 37.296,-4.55 50.575,-9.688c13.679,-5.312 25.329,-12.466 36.908,-24.029c11.563,-11.579 18.733,-23.175 24.029,-36.908c5.138,-13.284 8.663,-28.404 9.688,-50.575c1.041,-22.221 1.25,-29.288 1.25,-85.884c-0,-56.595 -0.263,-63.662 -1.25,-85.883c-1.042,-22.171 -4.55,-37.312 -9.688,-50.575c-5.312,-13.696 -12.466,-25.329 -24.029,-36.908c-11.579,-11.579 -23.175,-18.734 -36.908,-24.029c-13.284,-5.155 -28.404,-8.663 -50.575,-9.688c-22.221,-1.042 -29.288,-1.25 -85.884,-1.25Zm0,37.5c55.609,0 62.242,0.279 84.2,1.233c20.313,0.955 31.338,4.321 38.667,7.205c9.754,3.766 16.667,8.283 23.992,15.554c7.275,7.291 11.787,14.221 15.554,23.979c2.85,7.325 6.25,18.35 7.171,38.662c0.991,21.98 1.216,28.575 1.216,84.2c0,55.625 -0.262,62.242 -1.287,84.2c-1.058,20.313 -4.442,31.338 -7.308,38.667c-3.888,9.754 -8.317,16.667 -15.609,23.992c-7.271,7.275 -14.304,11.787 -23.958,15.554c-7.292,2.85 -18.488,6.25 -38.8,7.171c-22.117,0.991 -28.629,1.216 -84.358,1.216c-55.746,0 -62.259,-0.262 -84.359,-1.287c-20.329,-1.058 -31.525,-4.442 -38.816,-7.308c-9.88,-3.888 -16.667,-8.317 -23.942,-15.609c-7.313,-7.271 -11.979,-14.304 -15.625,-23.958c-2.867,-7.292 -6.233,-18.488 -7.292,-38.8c-0.783,-21.875 -1.062,-28.629 -1.062,-84.096c0.004,-55.487 0.279,-62.258 1.062,-84.396c1.059,-20.312 4.425,-31.491 7.292,-38.783c3.646,-9.896 8.312,-16.667 15.625,-23.975c7.275,-7.275 14.062,-11.963 23.942,-15.592c7.291,-2.879 18.245,-6.266 38.558,-7.308c22.133,-0.779 28.646,-1.042 84.358,-1.042l0.779,0.521Zm0,63.854c-59.116,0 -106.979,47.917 -106.979,106.979c0,59.113 47.917,106.98 106.979,106.98c59.113,-0 106.98,-47.917 106.98,-106.98c-0,-59.116 -47.917,-106.979 -106.98,-106.979Zm0,176.425c-38.366,0 -69.445,-31.079 -69.445,-69.446c-0,-38.366 31.079,-69.445 69.445,-69.445c38.367,-0 69.446,31.079 69.446,69.445c0,38.367 -31.079,69.446 -69.446,69.446Zm136.217,-180.646c0,13.805 -11.217,25 -25,25c-13.804,0 -25,-11.212 -25,-25c0,-13.783 11.213,-24.979 25,-24.979c13.767,-0.021 25,11.196 25,24.979Z" style="fill:#35a353;fill-rule:nonzero;"/></svg>