<?xml version="1.0" encoding="UTF-8" standalone="no"?><!DOCTYPE svg PUBLIC "-//W3C//DTD SVG 1.1//EN" "http://www.w3.org/Graphics/SVG/1.1/DTD/svg11.dtd"><svg width="100%" height="100%" viewBox="0 0 417 417" version="1.1" xmlns="http://www.w3.org/2000/svg" xmlns:xlink="http://www.w3.org/1999/xlink" xml:space="preserve" xmlns:serif="http://www.serif.com/" style="fill-rule:evenodd;clip-rule:evenodd;stroke-linejoin:round;stroke-miterlimit:2;"><path d="M355,355.071l-61.721,-0l0.004,-96.684c-0.004,-23.058 -0.47,-52.729 -32.154,-52.729c-32.171,0 -37.083,25.088 -37.083,51.025l-0,98.388l-61.704,-0l0.004,-198.821l59.271,-0l-0,27.1l0.796,-0c8.283,-15.625 28.42,-32.117 58.508,-32.117c62.517,0 74.079,41.146 74.079,94.704l0,109.134Zm-262.346,-226.025c-19.858,-0 -35.812,-16.075 -35.812,-35.85c-0,-19.759 15.971,-35.817 35.816,-35.817c19.792,0 35.834,16.058 35.834,35.817c-0,19.775 -16.063,35.85 -35.838,35.85Zm30.938,226.025l-61.875,-0l-0,-198.821l61.875,-0l-0,198.821Zm262.258,-355.071l-355.104,0c-16.996,0 -30.746,13.438 -30.746,30.017l-0,356.633c-0,16.596 13.75,30.017 30.746,30.017l355.054,-0c16.979,-0 30.867,-13.421 30.867,-30.017l-0,-356.633c-0,-16.58 -13.888,-30.017 -30.867,-30.017l0.05,-0Z" style="fill:#35a353;fill-rule:nonzero;"/></svg>