<?xml version="1.0" encoding="UTF-8" standalone="no"?><!DOCTYPE svg PUBLIC "-//W3C//DTD SVG 1.1//EN" "http://www.w3.org/Graphics/SVG/1.1/DTD/svg11.dtd"><svg width="100%" height="100%" viewBox="0 0 350 350" version="1.1" xmlns="http://www.w3.org/2000/svg" xmlns:xlink="http://www.w3.org/1999/xlink" xml:space="preserve" xmlns:serif="http://www.serif.com/" style="fill-rule:evenodd;clip-rule:evenodd;stroke-linejoin:round;stroke-miterlimit:2;"><path d="M218.508,79.617c6.538,-6.771 15.559,-10.6 24.975,-10.6c19.046,-0 34.721,15.675 34.721,34.725c0,9.412 -3.829,18.433 -10.6,24.975l-52.083,52.083c-13.467,13.463 -35.629,13.463 -49.096,-0c-3.237,-3.125 -7.562,-4.875 -12.062,-4.875c-9.525,-0 -17.363,7.837 -17.363,17.362c0,4.496 1.75,8.826 4.875,12.059c26.938,26.929 71.258,26.929 98.196,-0l52.083,-52.084c12.5,-12.941 19.492,-30.25 19.492,-48.241c-0,-38.096 -31.346,-69.446 -69.442,-69.446c-17.996,-0 -35.304,6.996 -48.246,19.496l-26.041,26.041c-3.388,3.267 -5.3,7.78 -5.3,12.488c-0,9.521 7.837,17.358 17.362,17.358c4.704,0 9.217,-1.912 12.488,-5.3l26.041,-26.041Zm-86.808,86.808c13.471,-13.467 35.629,-13.467 49.1,0c3.267,3.383 7.779,5.3 12.488,5.3c9.52,-0 17.358,-7.838 17.358,-17.363c-0,-4.708 -1.913,-9.216 -5.3,-12.487c-26.933,-26.929 -71.258,-26.929 -98.192,-0l-52.083,52.083c-13.546,13.079 -21.2,31.121 -21.2,49.95c-0,38.096 31.346,69.446 69.442,69.446c18.829,0 36.87,-7.658 49.95,-21.2l26.041,-26.042c3.388,-3.27 5.3,-7.783 5.3,-12.487c0,-9.525 -7.837,-17.363 -17.358,-17.363c-4.708,0 -9.221,1.913 -12.488,5.3l-26.041,26.042c-6.542,6.771 -15.563,10.6 -24.975,10.6c-19.05,0 -34.725,-15.675 -34.725,-34.721c-0,-9.416 3.829,-18.437 10.6,-24.975l52.083,-52.083Z" style="fill:#35a353;fill-rule:nonzero;"/></svg>