<?xml version="1.0" encoding="UTF-8" standalone="no"?><!DOCTYPE svg PUBLIC "-//W3C//DTD SVG 1.1//EN" "http://www.w3.org/Graphics/SVG/1.1/DTD/svg11.dtd"><svg width="100%" height="100%" viewBox="0 0 4446 2538" version="1.1" xmlns="http://www.w3.org/2000/svg" xmlns:xlink="http://www.w3.org/1999/xlink" xml:space="preserve" xmlns:serif="http://www.serif.com/" style="fill-rule:evenodd;clip-rule:evenodd;stroke-linejoin:round;stroke-miterlimit:2;"><g><path d="M1253.49,0c692.283,0 1253.44,565.079 1253.44,1262.09c0,697.012 -561.204,1262.05 -1253.45,1262.05c-692.241,-0 -1253.49,-565.034 -1253.49,-1262.05c0,-697.013 561.204,-1262.09 1253.49,-1262.09Zm2001.73,73.929c346.141,0 626.742,531.904 626.742,1188.16l0.041,-0c0,656.083 -280.6,1188.16 -626.742,1188.16c-346.141,0 -626.745,-532.075 -626.745,-1188.16c-0,-656.088 280.558,-1188.16 626.704,-1188.16Zm968.796,123.759c121.712,-0 220.429,476.541 220.429,1064.4c-0,587.691 -98.675,1064.4 -220.429,1064.4c-121.755,-0 -220.384,-476.584 -220.384,-1064.4c0,-587.821 98.671,-1064.4 220.384,-1064.4Z" style="fill:#35a353;fill-rule:nonzero;"/></g></svg>