<?xml version="1.0" encoding="UTF-8" standalone="no"?><!DOCTYPE svg PUBLIC "-//W3C//DTD SVG 1.1//EN" "http://www.w3.org/Graphics/SVG/1.1/DTD/svg11.dtd"><svg width="100%" height="100%" viewBox="0 0 417 417" version="1.1" xmlns="http://www.w3.org/2000/svg" xmlns:xlink="http://www.w3.org/1999/xlink" xml:space="preserve" xmlns:serif="http://www.serif.com/" style="fill-rule:evenodd;clip-rule:evenodd;stroke-linejoin:round;stroke-miterlimit:2;"><path d="M0,0l0,416.667l416.667,-0l-0,-416.667l-416.667,0Zm346.146,98.717l-22.342,21.421c-1.929,1.47 -2.892,3.895 -2.483,6.287l-0,157.413c-0.4,2.383 0.558,4.8 2.483,6.266l21.821,21.425l0,4.704l-109.758,0l-0,-4.687l22.604,-21.963c2.225,-2.22 2.225,-2.862 2.225,-6.25l-0,-127.258l-62.85,159.638l-8.504,-0l-73.196,-159.638l-0,106.996c-0.609,4.496 0.883,9.025 4.046,12.275l29.408,35.662l-0,4.705l-83.367,-0l0,-4.688l29.425,-35.679c3.138,-3.254 4.546,-7.817 3.788,-12.275l-0,-123.713c0.35,-3.433 -0.963,-6.837 -3.525,-9.15l-26.146,-31.491l-0,-4.688l81.146,0l62.725,137.55l55.137,-137.571l77.363,0l-0,4.709Z" style="fill:#35a353;fill-rule:nonzero;"/></svg>