<?xml version="1.0" encoding="UTF-8" standalone="no"?><!DOCTYPE svg PUBLIC "-//W3C//DTD SVG 1.1//EN" "http://www.w3.org/Graphics/SVG/1.1/DTD/svg11.dtd"><svg width="100%" height="100%" viewBox="0 0 417 417" version="1.1" xmlns="http://www.w3.org/2000/svg" xmlns:xlink="http://www.w3.org/1999/xlink" xml:space="preserve" xmlns:serif="http://www.serif.com/" style="fill-rule:evenodd;clip-rule:evenodd;stroke-linejoin:round;stroke-miterlimit:2;"><path d="M221.146,324.671c-14.425,-28.388 -31.338,-57.067 -64.375,-57.067c-6.284,0 -12.621,1.059 -18.388,3.629l-11.212,-22.379c13.646,-11.771 35.729,-21.075 64.112,-21.075c44.167,0 66.859,21.338 84.863,48.471c10.642,-23.175 15.696,-54.512 15.696,-93.317c-0,-96.908 -30.28,-146.65 -101.08,-146.65c-69.754,0 -99.945,49.742 -99.945,146.65c-0,96.409 30.191,145.642 99.945,145.642c11.113,0 21.184,-1.196 30.384,-3.904Zm17.291,33.8c-15.295,4.117 -31.545,6.354 -47.62,6.354c-92.917,0 -183.855,-74.112 -183.855,-181.908c0.017,-108.767 90.938,-182.917 183.855,-182.917c94.462,0 184.512,73.575 184.512,182.933c0,60.834 -28.383,110.263 -69.617,142.205c13.263,19.933 26.788,33.229 46.042,33.229c20.817,-0 29.167,-15.884 30.729,-28.625l27.03,-0c1.599,16.908 -6.98,86.925 -82.742,86.925c-46.042,-0 -70.258,-26.529 -88.471,-57.779l0.137,-0.417Z" style="fill:#35a353;fill-rule:nonzero;"/></svg>