<?xml version="1.0" encoding="UTF-8" standalone="no"?><!DOCTYPE svg PUBLIC "-//W3C//DTD SVG 1.1//EN" "http://www.w3.org/Graphics/SVG/1.1/DTD/svg11.dtd"><svg width="100%" height="100%" viewBox="0 0 417 417" version="1.1" xmlns="http://www.w3.org/2000/svg" xmlns:xlink="http://www.w3.org/1999/xlink" xml:space="preserve" xmlns:serif="http://www.serif.com/" style="fill-rule:evenodd;clip-rule:evenodd;stroke-linejoin:round;stroke-miterlimit:2;"><path d="M20.4,212.242c-0.888,-0.004 -1.633,0.796 -1.754,1.733l-4.046,37.396l4.046,36.546c0.121,1.008 0.866,1.7 1.754,1.7c0.867,-0 1.563,-0.692 1.717,-1.7l4.429,-36.546l-4.688,-37.396c0,-0.987 -0.783,-1.733 -1.562,-1.733m-15.609,14.375c-1.041,-0 -1.579,0.641 -1.804,1.629l-2.883,23.125l2.867,22.708c-0,0.954 0.779,1.634 1.562,1.634c0.779,-0 1.542,-0.784 1.804,-1.805l3.646,-22.9l-3.646,-23.162c0,-1.058 -0.762,-1.563 -1.562,-1.563m31.771,-21.333c-1.059,0 -2.084,0.779 -2.084,1.804l-3.646,44.496l3.905,42.675c-0,1.042 0.783,2.083 2.066,2.083c1.059,0 1.825,-1.058 2.1,-2.083l4.413,-42.954l-4.413,-44.233c-0.275,-1.042 -1.058,-2.084 -2.1,-2.084m16.409,-1.546c-1.305,0 -2.346,1.042 -2.605,2.342l-3.35,45.833l3.646,44.167c0.275,1.338 1.3,2.396 2.584,2.396c1.304,-0 2.345,-1.058 2.604,-2.604l4.166,-43.959l-4.166,-45.537c-0,-1.3 -1.042,-2.342 -2.342,-2.342l-0.537,-0.296Zm20.05,6.25c-0.088,-1.562 -1.3,-2.587 -2.759,-2.587c-1.562,-0 -2.746,1.041 -2.85,2.587l-3.766,42.188l3.475,44.496c-0,1.562 1.3,2.725 2.758,2.725c1.283,-0 2.571,-1.18 2.571,-2.742l3.941,-44.496l-3.941,-42.433l0.571,0.262Zm14.045,-29.67c-1.754,-0 -3.125,1.562 -3.125,3.141l-3.645,68.7l3.245,44.496c0,1.563 1.392,2.846 3.125,2.846c1.634,-0 3.021,-1.563 3.125,-3.125l3.63,-44.496l-3.63,-68.958c-0.137,-1.804 -1.525,-3.125 -3.125,-3.125m16.65,-15.867c-1.82,0 -3.383,1.563 -3.525,3.367l-3.125,84.583l2.867,44.238c0,2.083 1.563,3.629 3.383,3.629c1.809,-0 3.371,-1.546 3.646,-3.63l3.35,-44.237l-3.333,-84.304c-0.275,-2.084 -1.821,-3.646 -3.646,-3.646m17.171,-7.796c-2.1,0 -3.663,1.546 -3.904,3.629l-2.867,91.579l2.867,43.75c0.241,2.067 1.804,3.905 3.904,3.905c2.067,-0 3.908,-1.821 3.908,-3.905l3.384,-43.75l-3.4,-91.579c-0,-2.083 -1.825,-3.908 -3.909,-3.908m21.617,0.783c0,-2.346 -1.825,-4.166 -4.167,-4.166c-2.066,-0 -4.166,1.82 -4.166,4.166l-2.588,94.463l2.588,43.454c0.275,2.342 2.1,4.167 4.441,4.167c2.346,-0 4.167,-1.825 4.167,-4.167l2.85,-43.454l-2.85,-94.725l-0.275,0.262Zm13,-2.329c-2.342,0 -4.425,2.067 -4.425,4.413l-2.604,92.395l2.604,42.934c0,2.604 2.083,4.425 4.425,4.425c2.346,-0 4.429,-2.084 4.429,-4.688l2.604,-42.95l-2.866,-92.133c-0,-2.571 -2.084,-4.688 -4.704,-4.688m17.45,2.88c-2.85,-0 -4.934,2.345 -4.934,4.95l-1.787,89.287l2.346,42.95c-0,2.588 2.066,4.808 4.929,4.808c2.587,0 4.704,-2.083 4.929,-4.945l2.104,-42.413l-2.346,-88.75c-0.208,-2.85 -2.341,-4.95 -4.946,-4.95m20.555,-16.404c-0.784,-0.504 -1.825,-0.767 -2.867,-0.767c-1.042,0 -2.063,0.263 -2.863,0.767c-1.562,0.937 -2.587,2.604 -2.587,4.425l-0,1.058l-1.804,105l1.995,42.521l0,0.138c0.138,1.041 0.521,2.341 1.284,3.125c1.008,1.058 2.466,1.804 4.062,1.804c1.392,-0 2.746,-0.763 3.63,-1.563c1.008,-1.041 1.579,-2.341 1.579,-3.904l0.262,-4.167l2.029,-38.245l-2.341,-105.663c-0,-1.804 -1.059,-3.35 -2.346,-4.15l-0.033,-0.379Zm17.466,-9.496c-0.783,-0.783 -1.562,-1.062 -2.604,-1.062c-1.287,-0 -2.588,0.279 -3.629,1.062c-1.304,1.058 -2.067,2.604 -2.067,4.167l0,0.5l-2.379,114.741l1.321,21.092l1.058,20.575c0,2.846 2.571,5.45 5.696,5.45c3.142,0 5.729,-2.604 5.729,-5.712l2.604,-41.909l-2.604,-115.225c0,-2.083 -1.287,-3.837 -2.867,-4.808m155.105,65.571c-7.03,-0 -13.8,1.491 -19.775,4.029c-4.167,-46.079 -42.709,-82.225 -90.067,-82.225c-11.442,0 -22.658,2.346 -32.796,6.233c-3.908,1.563 -4.687,3.125 -4.95,6.234l0,162.641c0.279,3.121 2.604,5.725 5.729,5.988l142.1,-0c28.109,0.279 51.009,-22.363 51.009,-50.729c-0,-28.367 -22.9,-51.25 -51.009,-51.25" style="fill:#35a353;fill-rule:nonzero;"/></svg>