<?xml version="1.0" encoding="UTF-8" standalone="no"?><!DOCTYPE svg PUBLIC "-//W3C//DTD SVG 1.1//EN" "http://www.w3.org/Graphics/SVG/1.1/DTD/svg11.dtd"><svg width="100%" height="100%" viewBox="0 0 417 417" version="1.1" xmlns="http://www.w3.org/2000/svg" xmlns:xlink="http://www.w3.org/1999/xlink" xml:space="preserve" xmlns:serif="http://www.serif.com/" style="fill-rule:evenodd;clip-rule:evenodd;stroke-linejoin:round;stroke-miterlimit:2;"><path d="M208.333,0c-114.583,0 -208.333,93.75 -208.333,208.333c0,114.584 93.75,208.334 208.333,208.334c114.584,-0 208.334,-93.75 208.334,-208.334c-0,-114.583 -92.709,-208.333 -208.334,-208.333Zm95.85,301.042c-4.166,6.233 -11.458,8.333 -17.725,4.166c-48.958,-30.208 -110.416,-36.475 -183.35,-19.808c-7.258,2.117 -13.525,-3.108 -15.608,-9.358c-2.083,-7.309 3.125,-13.542 9.375,-15.625c79.167,-17.725 147.917,-10.417 202.083,22.916c7.292,3.125 8.317,11.442 5.225,17.709Zm25,-57.292c-5.225,7.292 -14.6,10.417 -21.908,5.208c-56.233,-34.375 -141.65,-44.791 -207.275,-23.958c-8.317,2.083 -17.708,-2.083 -19.792,-10.417c-2.083,-8.333 2.084,-17.725 10.417,-19.808c76.042,-22.9 169.792,-11.425 234.375,28.142c6.267,3.141 9.375,13.541 4.183,20.833Zm2.084,-58.333c-66.684,-39.584 -178.142,-43.75 -241.684,-23.942c-10.416,3.108 -20.833,-3.142 -23.958,-12.517c-3.125,-10.433 3.125,-20.833 12.5,-23.975c73.958,-21.875 195.833,-17.708 272.933,28.142c9.359,5.208 12.484,17.708 7.275,27.083c-5.191,7.309 -17.708,10.4 -27.066,5.209Z" style="fill:#35a353;fill-rule:nonzero;"/></svg>