<?xml version="1.0" encoding="UTF-8" standalone="no"?><!DOCTYPE svg PUBLIC "-//W3C//DTD SVG 1.1//EN" "http://www.w3.org/Graphics/SVG/1.1/DTD/svg11.dtd"><svg width="100%" height="100%" viewBox="0 0 417 417" version="1.1" xmlns="http://www.w3.org/2000/svg" xmlns:xlink="http://www.w3.org/1999/xlink" xml:space="preserve" xmlns:serif="http://www.serif.com/" style="fill-rule:evenodd;clip-rule:evenodd;stroke-linejoin:round;stroke-miterlimit:2;"><path d="M415.867,79.325c-15.363,6.75 -31.771,11.35 -49.042,13.454c17.6,-10.608 31.146,-27.329 37.55,-47.275c-16.512,9.633 -34.808,16.65 -54.287,20.554c-15.559,-16.65 -37.726,-27.066 -62.346,-27.066c-47.171,-0 -85.417,38.25 -85.417,85.366c0,6.771 0.783,13.279 2.204,19.513c-71.004,-3.35 -133.937,-37.446 -176.058,-88.992c-7.413,12.534 -11.563,27.1 -11.563,42.967c0,29.687 15.105,55.783 37.988,71.112c-14.013,-0.45 -27.188,-4.304 -38.679,-10.695l-0,1.062c-0,41.404 29.391,75.938 68.504,83.8c-7.171,1.929 -14.738,2.967 -22.5,2.967c-5.45,-0 -10.675,-0.521 -15.9,-1.492c10.954,33.908 42.446,58.629 79.929,59.325c-29.167,22.896 -66.129,36.542 -105.937,36.542c-6.771,0.004 -13.525,-0.396 -20.313,-1.163c38.004,24.204 82.779,38.35 131.196,38.35c157.187,0.004 243.042,-130.137 243.042,-242.812c-0,-3.625 -0,-7.292 -0.263,-10.938c16.683,-11.958 31.25,-27.083 42.708,-44.233l-0.816,-0.35l-0,0.004Z" style="fill:#35a353;fill-rule:nonzero;"/></svg>