<?xml version="1.0" encoding="UTF-8" standalone="no"?><!DOCTYPE svg PUBLIC "-//W3C//DTD SVG 1.1//EN" "http://www.w3.org/Graphics/SVG/1.1/DTD/svg11.dtd"><svg width="100%" height="100%" viewBox="0 0 417 417" version="1.1" xmlns="http://www.w3.org/2000/svg" xmlns:xlink="http://www.w3.org/1999/xlink" xml:space="preserve" xmlns:serif="http://www.serif.com/" style="fill-rule:evenodd;clip-rule:evenodd;stroke-linejoin:round;stroke-miterlimit:2;"><path d="M407.971,107.692c-4.909,-17.584 -18.688,-31.363 -36.271,-36.267c-32.462,-8.7 -163.192,-8.7 -163.192,-8.7c0,-0 -130.366,-0.171 -163.179,8.7c-17.579,4.912 -31.354,18.7 -36.25,36.283c-6.158,33.242 -9.2,66.992 -9.079,100.8c-0.096,33.688 2.942,67.309 9.079,100.434c4.904,17.575 18.675,31.354 36.25,36.266c32.45,8.717 163.196,8.717 163.196,8.717c0,0 130.346,0 163.175,-8.717c17.588,-4.908 31.367,-18.695 36.271,-36.283c6,-33.133 8.904,-66.75 8.679,-100.417c0.254,-33.808 -2.654,-67.566 -8.679,-100.833l-0,0.017Zm-241.167,163.196l0,-124.934l108.788,62.571l-108.788,62.363Z" style="fill:#35a353;fill-rule:nonzero;"/></svg>