<?xml version="1.0" encoding="UTF-8" standalone="no"?><!DOCTYPE svg PUBLIC "-//W3C//DTD SVG 1.1//EN" "http://www.w3.org/Graphics/SVG/1.1/DTD/svg11.dtd"><svg width="100%" height="100%" viewBox="0 0 4267 4267" version="1.1" xmlns="http://www.w3.org/2000/svg" xmlns:xlink="http://www.w3.org/1999/xlink" xml:space="preserve" xmlns:serif="http://www.serif.com/" style="fill-rule:evenodd;clip-rule:evenodd;stroke-linejoin:round;stroke-miterlimit:2;"><path d="M3337.5,987.5l-212.5,0.008l183.333,-187.5c41.667,-41.666 62.5,-94.445 62.5,-158.333c0,-63.887 -20.833,-116.667 -62.5,-158.333c-41.666,-41.667 -94.445,-62.5 -158.333,-62.5c-63.887,-0 -118.054,20.833 -162.5,62.5l-533.333,504.166l-637.5,0l-537.5,-504.166c-41.667,-41.667 -94.446,-62.5 -158.334,-62.5c-63.887,-0 -116.666,20.833 -158.333,62.5c-41.667,41.666 -62.5,94.446 -62.5,158.333c0,63.888 20.833,116.667 62.5,158.333l183.333,187.5l-212.5,0c-191.666,5.555 -349.304,70.834 -472.916,195.834c-123.613,125 -188.196,281.946 -193.75,470.833l-0,1441.67c5.554,205.554 70.137,371.525 193.75,497.912c123.612,126.388 281.25,192.359 472.916,197.913l2375,-0c191.667,-5.554 350,-70.138 475,-193.75c125,-123.613 188.888,-281.25 191.667,-472.917l0,-1470.83c8.333,-188.888 -47.917,-345.834 -168.75,-470.834c-120.833,-125 -277.083,-190.279 -468.75,-195.833Zm187.5,2108.34c-2.779,66.666 -27.1,123.612 -72.933,170.833c-45.834,47.221 -102.084,70.833 -168.75,70.833l-2320.83,0c-66.666,0 -123.612,-23.612 -170.833,-70.833c-47.221,-47.221 -70.833,-104.167 -70.833,-170.833l-0,-1412.5c2.779,-69.446 26.391,-126.392 70.837,-170.838c44.446,-44.446 101.392,-68.058 170.838,-70.837l2320.83,-0c69.446,2.779 126.392,26.391 170.838,70.837c44.445,44.446 68.058,101.392 70.837,170.838l0,1412.5Zm-2083.35,-1175c-66.667,2.779 -122.933,27.083 -168.767,72.916c-45.833,45.834 -70.137,102.084 -72.916,168.75l-0,241.667c2.779,66.667 26.391,122.917 70.837,168.75c44.446,45.833 101.392,68.75 170.838,68.75c69.445,0 126.391,-22.917 170.837,-68.75c44.446,-45.833 68.058,-102.083 70.838,-168.75l-0,-241.667c-2.78,-66.666 -27.084,-122.916 -72.917,-168.75c-45.833,-45.833 -102.083,-70.137 -168.75,-72.916Zm1387.48,-0c-66.666,2.779 -122.933,27.083 -168.766,72.916c-45.834,45.834 -70.138,102.084 -72.917,168.75l0,241.667c2.779,66.667 26.392,122.917 70.838,168.75c44.445,45.833 101.391,68.75 170.837,68.75c69.446,0 126.392,-22.917 170.837,-68.75c44.446,-45.833 68.059,-102.083 70.838,-168.75l-0,-241.667c-2.779,-66.666 -27.083,-122.916 -72.917,-168.75c-45.833,-45.833 -102.083,-70.137 -168.75,-72.916Z" style="fill:#07a3d7;fill-rule:nonzero;"/></svg>