<?xml version="1.0" encoding="UTF-8" standalone="no"?><!DOCTYPE svg PUBLIC "-//W3C//DTD SVG 1.1//EN" "http://www.w3.org/Graphics/SVG/1.1/DTD/svg11.dtd"><svg width="100%" height="100%" viewBox="0 0 2134 2134" version="1.1" xmlns="http://www.w3.org/2000/svg" xmlns:xlink="http://www.w3.org/1999/xlink" xml:space="preserve" xmlns:serif="http://www.serif.com/" style="fill-rule:evenodd;clip-rule:evenodd;stroke-linejoin:round;stroke-miterlimit:2;"><path d="M2132.1,83.895c-0,-46.837 -38.025,-84.862 -84.862,-84.862l-1963.61,0c-46.836,0 -84.861,38.025 -84.861,84.862l-0,1963.61c-0,46.836 38.025,84.862 84.861,84.862l1963.61,-0c46.837,-0 84.862,-38.026 84.862,-84.862l-0,-1963.61Z" style="fill:#49f7ff;"/><path d="M1612.93,1366.39c19.488,-17.231 34.736,-38.906 43.351,-64.274l86.018,-253.2c26.873,-79.043 -15.384,-165.335 -94.155,-192.344c-32.752,-11.214 -67.419,-10.188 -99.556,1.368c1.23,-8.547 2.119,-16.958 2.119,-25.163c0,-79.386 -50.12,-149.677 -124.446,-174.908c-33.094,-11.419 -67.898,-12.718 -101.197,-4.992l40,-117.745c7.453,-22.564 11.282,-46.154 11.282,-70.291c0,-93.198 -59.077,-176.412 -147.42,-207.114c-113.301,-38.359 -237.473,22.77 -276.653,136.481l-75.83,223.729l-67.557,-217.575c-35.829,-116.788 -163.762,-180.584 -273.029,-144.139c-114.326,36.513 -178.6,159.455 -143.181,274.123l120.275,384.962l-12.034,-0c-28.308,-0 -51.283,22.975 -51.283,51.283l0,334.431c0,323.354 261.884,586.332 583.802,586.332c297.098,-0 546.673,-227.011 579.494,-520.964Zm1.983,-412.791c25.436,8.684 38.975,36.718 30.291,62.36l-86.086,253.268c-8.616,25.299 -35.761,39.248 -61.539,30.496c-25.437,-8.684 -39.044,-36.719 -30.291,-62.36l86.018,-253.2c8.752,-25.709 36.308,-39.248 61.607,-30.564Zm-221.814,-198.635c39.18,13.265 65.71,56.616 50.462,104.685l-129.301,379.697c-14.359,43.351 -60.924,65.984 -102.702,51.419c-26.394,-9.23 -45.539,-30.496 -52.719,-55.795c1.368,-1.299 3.009,-2.256 4.308,-3.624c35.351,-34.462 54.77,-81.027 54.77,-131.01c0,-19.829 -3.966,-38.565 -9.709,-56.479c85.607,-230.362 72.479,-260.722 121.916,-285.132c19.555,-9.641 41.915,-11.009 62.975,-3.761Zm-902.439,-255.046c-18.872,-60.992 15.454,-126.497 77.13,-146.189c54.701,-18.325 123.762,13.675 143.112,76.924l114.463,368.551c15.043,47.864 82.805,44.65 97.574,1.231l126.361,-372.996c20.786,-60.24 86.565,-92.924 146.395,-72.616c60.992,21.196 92.035,87.795 72.137,147.694c-6.085,17.983 -100.514,295.798 -94.77,278.977l-53.129,156.378c-25.915,-13.949 -55.043,-22.632 -86.497,-22.632l-413.475,-0l-129.301,-415.322Zm542.776,1284.87c-265.371,-0 -481.236,-217.029 -481.236,-483.767l-0,-283.149l481.236,0c45.129,0 81.847,36.992 81.847,82.531c0,22.154 -8.478,42.599 -24.889,58.599c-14.838,15.385 -35.146,23.864 -56.958,23.864c-49.231,-0 -243.148,-0 -232.96,-0c-28.308,-0 -51.283,22.974 -51.283,51.282c0,28.308 22.975,51.283 51.283,51.283l15.932,0c155.626,0 130.258,176.002 132.514,182.84c0,28.308 22.975,51.283 51.283,51.283c28.308,-0 51.283,-22.975 51.283,-51.283c-2.872,-27.009 14.085,-101.882 -41.437,-182.84c18.189,-0.547 30.291,1.573 56.821,-3.282c19.761,48.069 59.215,87.317 110.908,105.506c72.069,25.026 153.438,3.829 203.9,-61.061c17.504,31.727 45.881,57.573 82.736,70.155c12.718,4.376 25.709,6.495 38.769,7.384c-47.59,218.123 -241.644,380.655 -469.749,380.655Z" style="fill:#46465b;fill-rule:nonzero;"/></svg>