<?xml version="1.0" encoding="UTF-8" standalone="no"?><!DOCTYPE svg PUBLIC "-//W3C//DTD SVG 1.1//EN" "http://www.w3.org/Graphics/SVG/1.1/DTD/svg11.dtd"><svg width="100%" height="100%" viewBox="0 0 4167 4167" version="1.1" xmlns="http://www.w3.org/2000/svg" xmlns:xlink="http://www.w3.org/1999/xlink" xml:space="preserve" xmlns:serif="http://www.serif.com/" style="fill-rule:evenodd;clip-rule:evenodd;stroke-linejoin:round;stroke-miterlimit:2;"><rect id="Artboard1" x="0" y="0" width="4166.67" height="4166.67" style="fill:none;"/><g><path d="M412.838,2678.95c0,456.146 593.854,826.042 1326.56,826.042c732.708,0 1326.56,-369.948 1326.56,-826.042c0,-456.093 -593.906,-825.989 -1326.56,-825.989c-732.657,-0 -1326.56,369.844 -1326.56,825.989" style="fill:#fff;fill-rule:nonzero;"/><path d="M1770.29,3437.7c-648.437,63.959 -1208.18,-229.062 -1250.37,-654.843c-42.083,-425.677 449.636,-822.657 1097.97,-886.771c648.49,-64.167 1208.28,228.958 1250.37,654.531c42.031,425.833 -449.479,822.917 -1097.97,887.083m1297.03,-1413.28c-55.156,-16.458 -92.968,-27.76 -64.114,-100.208c62.552,-157.396 69.01,-293.125 1.198,-390c-127.136,-181.615 -475.052,-171.875 -873.855,-4.844c0,-0.26 -125.208,54.792 -93.229,-44.531c61.354,-197.24 52.084,-362.396 -43.385,-457.761c-216.302,-216.51 -791.667,8.178 -1285.1,501.407c-369.479,369.531 -584.011,761.146 -584.011,1099.79c0,647.761 830.677,1041.56 1643.33,1041.56c1065.26,-0 1773.91,-618.958 1773.91,-1110.31c-0,-296.927 -250.052,-465.416 -474.74,-535.104" style="fill:#e6162d;fill-rule:nonzero;"/><path d="M3774.71,839.054c-257.239,-285.209 -636.719,-393.907 -986.979,-319.48l-0.104,0c-68.941,14.726 -118.647,76.171 -118.647,146.667c-0,82.274 67.701,149.975 149.975,149.975c10.53,0 21.03,-1.109 31.328,-3.308c249.167,-52.917 518.802,24.583 701.823,227.083c176.293,195.369 235.124,470.861 154.01,721.198l0.052,0.052c-4.85,14.939 -7.32,30.548 -7.32,46.255c0,64.887 42.163,122.735 103.935,142.599c78.213,25.29 163.391,-18.18 188.802,-96.354l0.052,-0.625c109.792,-340.729 40.417,-729.167 -216.927,-1014.06" style="fill:#f93;fill-rule:nonzero;"/><path d="M3379.61,1195.56c-125.208,-138.906 -310.052,-191.667 -480.729,-155.365c-61.058,11.171 -105.837,64.885 -105.837,126.956c0,70.802 58.261,129.062 129.063,129.062c10.302,0 20.567,-1.233 30.576,-3.674l-0,0.104c86.193,-18.431 175.969,10.52 235.156,75.834c59.088,65.483 78.733,157.857 51.406,241.718l0.105,0c-21.785,67.386 15.704,140.766 83.072,162.605c67.415,21.737 140.779,-15.826 162.553,-83.23c53.645,-165.989 20.104,-355.156 -105.365,-494.01" style="fill:#f93;fill-rule:nonzero;"/><path d="M1853.85,2600.1c-22.709,38.855 -72.813,57.5 -112.084,41.302c-38.645,-15.937 -50.781,-59.27 -28.802,-97.395c22.604,-37.917 70.834,-56.407 109.323,-41.146c39.167,14.323 53.229,58.229 31.563,97.239m-206.615,265.261c-62.708,100.052 -197.031,143.906 -298.229,97.708c-99.688,-45.364 -129.115,-161.667 -66.302,-259.219c61.927,-97.135 191.719,-140.468 292.135,-98.385c101.563,43.333 134.063,158.802 72.396,259.896m235.677,-708.229c-308.594,-80.313 -657.396,73.489 -791.406,345.416c-136.51,277.292 -4.479,585.104 307.187,685.782c322.969,104.114 703.594,-55.417 835.938,-354.792c130.573,-292.604 -32.396,-593.854 -351.719,-676.406" style="fill-rule:nonzero;"/></g></svg>