<?xml version="1.0" encoding="UTF-8" standalone="no"?><!DOCTYPE svg PUBLIC "-//W3C//DTD SVG 1.1//EN" "http://www.w3.org/Graphics/SVG/1.1/DTD/svg11.dtd"><svg width="100%" height="100%" viewBox="0 0 2084 1611" version="1.1" xmlns="http://www.w3.org/2000/svg" xmlns:xlink="http://www.w3.org/1999/xlink" xml:space="preserve" xmlns:serif="http://www.serif.com/" style="fill-rule:evenodd;clip-rule:evenodd;stroke-linejoin:round;stroke-miterlimit:2;"><rect id="Artboard1" x="0" y="0" width="2083.33" height="1610.33" style="fill:none;"/><g id="Layer-1" serif:id="Layer 1"><g><path d="M1939.59,342.673c-21.552,-80.639 -85.066,-144.138 -165.704,-165.69c-146.159,-39.17 -732.227,-39.17 -732.227,-39.17c-0,0 -586.068,0 -732.227,39.17c-80.638,21.552 -144.153,85.051 -165.705,165.69c-39.154,146.158 -39.154,451.11 -39.154,451.11c-0,-0 -0,304.952 39.154,451.095c21.552,80.638 85.067,144.152 165.705,165.704c146.159,39.17 732.227,39.17 732.227,39.17c-0,0 586.068,0 732.227,-39.17c80.638,-21.552 144.152,-85.066 165.704,-165.704c39.17,-146.143 39.17,-451.095 39.17,-451.095c0,-0 0,-304.952 -39.17,-451.11" style="fill:#f00;fill-rule:nonzero;"/><path d="M854.239,1074.91l486.917,-281.132l-486.917,-281.132l-0,562.264Z" style="fill:#fff;fill-rule:nonzero;"/></g></g></svg>