<svg id="Layer_1" data-name="Layer 1" xmlns="http://www.w3.org/2000/svg" xmlns:xlink="http://www.w3.org/1999/xlink" viewBox="0 0 50 50"><defs><style>.cls-1{fill:#0a8bc8;}.cls-2{fill:#46c0f7;}.cls-3{fill:#0cacf4;}.cls-4{fill:#0a86c2;}.cls-5{fill:#47b5eb;}.cls-6{fill:#049be5;}.cls-7{fill:#cecece;}.cls-8{fill:#dcdcdc;}.cls-9{fill:#ededed;}.cls-10{fill:#f7f7f7;}.cls-11{fill:#e1e1e1;}.cls-12{fill:#f2f2f2;}.cls-13{opacity:0.6;}.cls-14{fill:url(#linear-gradient);}.cls-15{fill:url(#linear-gradient-2);}.cls-16{fill:url(#linear-gradient-3);}.cls-17{fill:url(#linear-gradient-4);}</style><linearGradient id="linear-gradient" x1="23.96" y1="355.8" x2="28.19" y2="358.13" gradientTransform="matrix(1, 0, 0, -1, 0, 372)" gradientUnits="userSpaceOnUse"><stop offset="0" stop-color="#0e89ce"/><stop offset="1" stop-color="#0e89ce" stop-opacity="0"/></linearGradient><linearGradient id="linear-gradient-2" x1="32.41" y1="340.43" x2="36.65" y2="342.76" xlink:href="#linear-gradient"/><linearGradient id="linear-gradient-3" x1="22.64" y1="357.88" x2="46.15" y2="342.56" gradientTransform="matrix(1, 0, 0, -1, 0, 372)" gradientUnits="userSpaceOnUse"><stop offset="0" stop-color="#0e89ce"/><stop offset="1" stop-color="#0e89ce" stop-opacity="0.1"/></linearGradient><linearGradient id="linear-gradient-4" x1="18.66" y1="351.76" x2="42.16" y2="336.44" xlink:href="#linear-gradient-3"/></defs><g id="Layer_2" data-name="Layer 2"><g id="Layer_1-2" data-name="Layer 1-2"><g id="blue_flech" data-name="blue flech"><path id="blue_dark" data-name="blue dark" class="cls-1" d="M22.35,2.08,1,38.76a3.07,3.07,0,0,0,2.64,4.59H46.32A3,3,0,0,0,49,38.76L27.63,2.08A3,3,0,0,0,23.46,1,3.11,3.11,0,0,0,22.35,2.08Z"/><path id="blue_light" data-name="blue light" class="cls-2" d="M22.35,1.52,1,38.2a3.07,3.07,0,0,0,1.11,4.18,3,3,0,0,0,1.53.41H46.32a3.05,3.05,0,0,0,3.06-3A3.1,3.1,0,0,0,49,38.2L27.63,1.52A3.06,3.06,0,0,0,23.46.41,3.11,3.11,0,0,0,22.35,1.52Z"/><path id="blue" class="cls-3" d="M22.35,1.8,1,38.48a3.07,3.07,0,0,0,1.11,4.18,3,3,0,0,0,1.53.41H46.32a3.06,3.06,0,0,0,3.06-3A3.1,3.1,0,0,0,49,38.48L27.63,1.8A3,3,0,0,0,23.46.69,3.11,3.11,0,0,0,22.35,1.8Z"/><path id="dark_shadow" data-name="dark shadow" class="cls-4" d="M17,29.85l8-14.23V.56a3,3,0,0,0-2.67,1.52L1,38.76a3.07,3.07,0,0,0,2.64,4.59h5.6Z"/><path id="shadow_light" data-name="shadow light" class="cls-5" d="M17,29.85l8-14.23V0a3,3,0,0,0-2.67,1.52L1,38.2a3.07,3.07,0,0,0,1.11,4.18,3,3,0,0,0,1.53.41H9.57Z"/><path id="shadow" class="cls-6" d="M17,29.85l8-14.23V.28A3,3,0,0,0,22.35,1.8L1,38.48a3.07,3.07,0,0,0,1.11,4.18,3,3,0,0,0,1.53.41H9.42Z"/></g><g id="flech"><polygon id="dark_right" data-name="dark right" class="cls-7" points="25.02 15.89 25.02 43.37 42.82 50 43.96 48.89 25.02 15.89"/><polygon id="dark_right-2" data-name="dark right-2" class="cls-8" points="25.02 15.89 25.02 43.37 7.22 50 6.08 48.89 25.02 15.89"/><polygon id="light_right" data-name="light right" class="cls-9" points="43.96 48.89 25.02 15.89 43.64 48.8 43.72 48.84 43.96 48.89"/><polygon id="light_left" data-name="light left" class="cls-10" points="6.08 48.89 25.02 15.89 6.39 48.8 6.31 48.84 6.08 48.89"/><polygon id="up_dark" data-name="up dark" class="cls-11" points="25.02 15.62 25.02 43.09 42.82 49.72 43.72 48.84 25.02 15.62"/><polygon id="up_light" data-name="up light" class="cls-12" points="25.02 15.62 25.02 43.09 7.22 49.72 6.31 48.84 25.02 15.62"/></g><g id="blue_shadow" data-name="blue shadow"><g class="cls-13"><polygon class="cls-14" points="25 15.65 24.97 15.62 24.99 15.66 25 15.65"/><path class="cls-15" d="M25.08,15.73l8,14.12,7.75,13.5h5.55a3.06,3.06,0,0,0,3.06-3.05v-.41Z"/></g><polygon class="cls-16" points="25 15.65 24.97 15.62 24.99 15.66 25 15.65"/><path class="cls-17" d="M25.08,15.73l8,14.12,7.75,13.5h5.55a3.06,3.06,0,0,0,3.06-3.05v-.41Z"/></g></g></g></svg>