<?xml version="1.0" encoding="utf-8"?>
<!-- Generator: Adobe Illustrator 24.3.0, SVG Export Plug-In . SVG Version: 6.00 Build 0)  -->
<svg version="1.1" xmlns="http://www.w3.org/2000/svg" xmlns:xlink="http://www.w3.org/1999/xlink" x="0px" y="0px"
	 viewBox="0 0 50 50" enable-background="new 0 0 50 50" xml:space="preserve">
<g id="Layer_1">
	<g id="XMLID_54_" opacity="0.54">
		<g id="XMLID_55_">
			<path id="XMLID_69_" d="M9.2,22.3c-0.4-0.4-0.8-0.7-1.3-0.9s-1-0.3-1.7-0.3c-0.5,0-1,0.1-1.5,0.3c-0.5,0.2-0.9,0.4-1.2,0.8
				c-0.4,0.3-0.6,0.8-0.8,1.2s-0.3,1-0.3,1.6s0.1,1.1,0.3,1.6c0.2,0.5,0.5,0.9,0.8,1.2s0.8,0.6,1.2,0.8c0.5,0.2,1,0.3,1.5,0.3
				c0.6,0,1.1-0.1,1.5-0.2c0.4-0.2,0.8-0.4,1.1-0.7c0.2-0.2,0.4-0.4,0.5-0.7c0.2-0.3,0.3-0.6,0.4-0.9H6.2v-2h5.8
				c0,0.1,0.1,0.3,0.1,0.5c0,0.2,0,0.4,0,0.6c0,0.8-0.1,1.5-0.4,2.2c-0.2,0.7-0.6,1.3-1.1,1.8c-0.5,0.6-1.2,1-1.9,1.3
				c-0.7,0.3-1.6,0.5-2.6,0.5c-0.9,0-1.7-0.2-2.4-0.5s-1.4-0.7-2-1.3c-0.6-0.5-1-1.2-1.4-2S0,25.9,0,25c0-0.9,0.2-1.7,0.5-2.5
				s0.8-1.4,1.4-2c0.6-0.5,1.2-1,2-1.3s1.6-0.5,2.4-0.5c1,0,1.9,0.2,2.6,0.5c0.8,0.3,1.4,0.8,2,1.4L9.2,22.3z"/>
			<g id="XMLID_56_">
				<path id="XMLID_67_" d="M24.2,27.8c0,1-0.4,1.9-1.1,2.5c-0.8,0.6-1.7,0.9-2.8,0.9c-1,0-1.9-0.3-2.6-0.9
					c-0.8-0.6-1.3-1.4-1.6-2.4l1.5-0.6c0.1,0.4,0.2,0.7,0.4,1c0.2,0.3,0.4,0.5,0.6,0.7s0.5,0.4,0.8,0.5c0.3,0.1,0.6,0.2,0.9,0.2
					c0.7,0,1.3-0.2,1.7-0.5c0.4-0.4,0.7-0.8,0.7-1.4c0-0.5-0.2-0.9-0.5-1.3c-0.3-0.3-1-0.7-1.9-1c-0.9-0.3-1.5-0.6-1.8-0.7
					c-1.3-0.6-1.9-1.6-1.9-2.8c0-0.9,0.3-1.6,1-2.2c0.7-0.6,1.6-0.9,2.6-0.9c0.9,0,1.7,0.2,2.4,0.7c0.7,0.5,1.1,1,1.3,1.7l-1.4,0.6
					c-0.1-0.4-0.4-0.8-0.8-1.1c-0.4-0.3-0.9-0.4-1.4-0.4c-0.6,0-1.1,0.2-1.5,0.5c-0.4,0.3-0.6,0.7-0.6,1.2c0,0.4,0.2,0.8,0.5,1.1
					c0.4,0.3,1.1,0.7,2.3,1.1c1.2,0.4,2.1,0.9,2.6,1.5C23.9,26.2,24.2,26.9,24.2,27.8z"/>
				<path id="XMLID_65_" d="M32.6,30.9h-1.5v-1.1h-0.1c-0.2,0.4-0.6,0.7-1.1,1c-0.5,0.3-1,0.4-1.5,0.4c-1,0-1.8-0.3-2.3-0.9
					c-0.5-0.6-0.8-1.4-0.8-2.4v-5.1H27v5c0,1.3,0.7,2,2,2c0.6,0,1.1-0.2,1.5-0.7c0.4-0.5,0.6-1.1,0.6-1.8v-4.5h1.5V30.9z"/>
				<path id="XMLID_62_" d="M36.1,20c0,0.3-0.1,0.5-0.3,0.8c-0.2,0.2-0.5,0.3-0.8,0.3c-0.3,0-0.5-0.1-0.8-0.3
					C34.1,20.6,34,20.3,34,20s0.1-0.5,0.3-0.8c0.2-0.2,0.5-0.3,0.8-0.3c0.3,0,0.5,0.1,0.8,0.3C36,19.5,36.1,19.7,36.1,20z
					 M35.8,22.8v8.1h-1.5v-8.1H35.8z"/>
				<path id="XMLID_60_" d="M40.5,31.1c-0.7,0-1.2-0.2-1.6-0.6s-0.7-1-0.7-1.7v-4.5h-1.4v-1.4h1.4v-2.5h1.5v2.5h2v1.4h-2v4
					c0,0.5,0.1,0.9,0.3,1.1c0.2,0.2,0.4,0.3,0.7,0.3c0.1,0,0.2,0,0.4,0s0.2-0.1,0.3-0.1l0.5,1.4C41.5,31,41,31.1,40.5,31.1
					L40.5,31.1z"/>
				<path id="XMLID_57_" d="M46.2,31.2c-1.2,0-2.2-0.4-3-1.2c-0.8-0.8-1.2-1.9-1.2-3.1c0-1.2,0.4-2.3,1.1-3.1
					c0.8-0.8,1.7-1.2,2.9-1.2c1.2,0,2.2,0.4,2.9,1.2c0.7,0.8,1.1,1.9,1.1,3.3l0,0.2h-6.4c0,0.8,0.3,1.4,0.8,1.9s1.1,0.7,1.8,0.7
					c1,0,1.7-0.5,2.3-1.5l1.4,0.7c-0.4,0.7-0.9,1.2-1.5,1.6C47.7,31,47,31.2,46.2,31.2L46.2,31.2z M43.7,25.9h4.7
					c0-0.6-0.3-1-0.7-1.4c-0.4-0.4-1-0.6-1.7-0.6c-0.6,0-1.1,0.2-1.5,0.5C44.1,24.8,43.9,25.3,43.7,25.9z"/>
			</g>
		</g>
	</g>
</g>
<g id="caption">
</g>
</svg>
