<?xml version="1.0" encoding="utf-8"?>
<!-- Generator: Adobe Illustrator 24.3.0, SVG Export Plug-In . SVG Version: 6.00 Build 0)  -->
<svg version="1.1" xmlns="http://www.w3.org/2000/svg" xmlns:xlink="http://www.w3.org/1999/xlink" x="0px" y="0px"
	 viewBox="0 0 50 50" enable-background="new 0 0 50 50" xml:space="preserve">
<g id="Layer_1">
	<g>
		<g>
			<path fill="#C5221F" d="M0,11.4v4.5l5.2,5l6.2,3.5l1.1-7.7l-1.1-7.1L8.2,7.3C4.8,4.7,0,7.2,0,11.4"/>
			<path fill="#FBBC04" d="M38.6,9.7l-1.1,7.2l1.1,7.6l5.6-2.8l5.8-5.8v-4.5c0-4.2-4.8-6.6-8.2-4.1L38.6,9.7z"/>
			<path fill="#4285F4" d="M3.4,43.8h8V24.4L0,15.9v24.4C0,42.2,1.5,43.8,3.4,43.8"/>
			<path fill="#34A853" d="M38.6,43.8h8c1.9,0,3.4-1.5,3.4-3.4V15.9l-11.4,8.5V43.8z"/>
			<polygon fill="#EA4335" points="25,19.9 11.4,9.7 11.4,24.4 25,34.7 38.6,24.4 38.6,9.7 			"/>
		</g>
	</g>
</g>
<g id="caption">
</g>
</svg>
