<svg id="Layer_1" data-name="Layer 1" xmlns="http://www.w3.org/2000/svg" viewBox="0 0 50 50"><defs><style>.cls-1{fill:#5391f5;}.cls-2{fill:#4482ec;}.cls-3{fill:#fff;}</style></defs><path class="cls-1" d="M38.52,4.32A3,3,0,0,0,36.15,3H13.85a3,3,0,0,0-2.37,1.37L.33,23.63a3,3,0,0,0,0,2.74L11.48,45.68a3,3,0,0,0,2.37,1.37h22.3a3,3,0,0,0,2.37-1.37L49.67,26.37a3,3,0,0,0,0-2.74Z"/><path class="cls-2" d="M38.52,45.68l7.42-12.84L28.79,15.67a4.84,4.84,0,0,1-7.24,6.4v0l4.6,4.6c9.93.42,9.93,6.31,9.93,6.31v3.16H13.93L24.81,47.05H36.15A3,3,0,0,0,38.52,45.68Z"/><path class="cls-3" d="M20.16,18.68A4.84,4.84,0,1,1,25,23.52a4.84,4.84,0,0,1-4.84-4.84"/><path class="cls-3" d="M36.07,33v3.16H13.93V33s0-6.33,11.07-6.33S36.07,33,36.07,33"/></svg>