<?xml version="1.0" encoding="utf-8"?>
<!-- Generator: Adobe Illustrator 24.1.0, SVG Export Plug-In . SVG Version: 6.00 Build 0)  -->
<svg version="1.1" xmlns="http://www.w3.org/2000/svg" xmlns:xlink="http://www.w3.org/1999/xlink" x="0px" y="0px"
	 viewBox="0 0 50 50" style="enable-background:new 0 0 50 50;" xml:space="preserve">
<style type="text/css">
	.st0{fill:#D9D9D9;}
	.st1{fill:#617D8B;}
	.st2{fill:#4F8BF5;}
	.st3{fill:#FFFFFF;}
	.st4{opacity:0.2;fill:#FFFFFF;enable-background:new    ;}
</style>
<g id="Layer_1">
	<g>
		<path class="st0" d="M46.7,50c1.8,0,3.3-1.5,3.3-3.3V13.3c0-1.8-1.5-3.3-3.3-3.3H14.2l13,40H46.7z"/>
		<path class="st1" d="M46.8,23.9v-2h-9.4v-3.2h-3.1v3.2h-6v2h12c-0.6,2.3-2.1,4.4-3.4,6c-2.4-2.9-2.5-3.8-2.5-3.8h-2.5
			c0,0,0.1,1.4,3.5,5.4c-1.1,1.1-2,1.8-2,1.8l0.8,2.4c0,0,1.2-1,2.7-2.6c1.5,1.6,3.4,3.5,5.9,5.8l1.6-1.6c-2.6-2.4-4.6-4.3-6-5.8
			c1.9-2.3,3.8-5.1,4.3-7.7L46.8,23.9L46.8,23.9z"/>
		<path class="st2" d="M3.3,0C1.5,0,0,1.5,0,3.3v33.9c0,1.8,1.5,3.3,3.3,3.3h32.5L22.8,0H3.3z"/>
		<path class="st3" d="M21.1,18.9h-0.9h-2.8H14v2.9h4.1c-0.4,1.9-2,2.9-4.1,2.9c-2.5,0-4.5-2-4.5-4.5s2-4.5,4.5-4.5
			c1.1,0,2,0.4,2.8,1l2.2-2.2c-1.4-1.2-3.1-1.9-5-1.9c-4.2,0-7.6,3.4-7.6,7.6s3.4,7.6,7.6,7.6c3.8,0,7.3-2.8,7.3-7.6
			C21.3,19.8,21.2,19.3,21.1,18.9z"/>
		<path class="st4" d="M26.8,10h19.9c1.8,0,3.3,1.5,3.3,3.3v20L26.8,10z"/>
	</g>
</g>
<g id="caption">
</g>
</svg>
