<svg id="Layer_1" data-name="Layer 1" xmlns="http://www.w3.org/2000/svg" xmlns:xlink="http://www.w3.org/1999/xlink" viewBox="0 0 50 50"><defs><style>.cls-1{fill:none;}.cls-2{clip-path:url(#clip-path);}.cls-3{fill:#3f51b5;}.cls-4{fill:url(#linear-gradient);}.cls-5{fill:#9fa8da;}.cls-6{fill:#fff;}.cls-6,.cls-7{fill-opacity:0.2;}.cls-7,.cls-8{fill:#1a237e;}.cls-8{fill-opacity:0.1;}.cls-9{fill:#f1f1f1;}.cls-10{fill:url(#radial-gradient);}</style><clipPath id="clip-path"><path class="cls-1" d="M29.55,0H10.23A3.49,3.49,0,0,0,6.82,3.41V46.59A3.49,3.49,0,0,0,10.23,50H39.77a3.49,3.49,0,0,0,3.41-3.41V13.64Z"/></clipPath><linearGradient id="linear-gradient" x1="4287.61" y1="7769.15" x2="4287.61" y2="7778.4" gradientTransform="translate(-5322.7 -9697.7) scale(1.25)" gradientUnits="userSpaceOnUse"><stop offset="0" stop-color="#1a237e" stop-opacity="0.2"/><stop offset="1" stop-color="#1a237e" stop-opacity="0.02"/></linearGradient><radialGradient id="radial-gradient" cx="4264.56" cy="7759.26" r="46.91" gradientTransform="translate(-5322.7 -9697.7) scale(1.25)" gradientUnits="userSpaceOnUse"><stop offset="0" stop-color="#fff" stop-opacity="0.1"/><stop offset="1" stop-color="#fff" stop-opacity="0"/></radialGradient></defs><g class="cls-2"><path class="cls-3" d="M29.55,0H10.23A3.49,3.49,0,0,0,6.82,3.41V46.59A3.49,3.49,0,0,0,10.23,50H39.77a3.49,3.49,0,0,0,3.41-3.41V13.64L35.23,8Z"/></g><g class="cls-2"><polygon class="cls-4" points="43.18 13.64 30.45 12.73 43.18 25.23 43.18 13.64"/></g><g class="cls-2"><path class="cls-5" d="M29.55,0V10.23A3.49,3.49,0,0,0,33,13.64H43.18Z"/></g><g class="cls-2"><path class="cls-6" d="M10.23,0A3.49,3.49,0,0,0,6.82,3.41v.23A3.49,3.49,0,0,1,10.23.23H29.55V0Z"/></g><g class="cls-2"><path class="cls-7" d="M39.77,49.77H10.23a3.49,3.49,0,0,1-3.41-3.41v.23A3.49,3.49,0,0,0,10.23,50H39.77a3.49,3.49,0,0,0,3.41-3.41v-.23A3.49,3.49,0,0,1,39.77,49.77Z"/></g><g class="cls-2"><path class="cls-8" d="M33,13.64a3.49,3.49,0,0,1-3.4-3.41v.22A3.49,3.49,0,0,0,33,13.86H43.18v-.22Z"/></g><g class="cls-2"><polyline class="cls-9" points="26.14 32.95 15.91 32.95 15.91 40.91 26.14 40.91 26.14 32.95"/></g><g class="cls-2"><polyline class="cls-9" points="34.09 32.95 28.41 32.95 28.41 40.91 34.09 40.91 34.09 32.95"/></g><g class="cls-2"><polyline class="cls-9" points="34.09 25 15.91 25 15.91 30.68 34.09 30.68 34.09 25"/></g><path class="cls-10" d="M29.55,0H10.23A3.49,3.49,0,0,0,6.82,3.41V46.59A3.49,3.49,0,0,0,10.23,50H39.77a3.49,3.49,0,0,0,3.41-3.41V13.64Z"/></svg>