<?xml version="1.0" encoding="utf-8"?>
<!-- Generator: Adobe Illustrator 24.3.0, SVG Export Plug-In . SVG Version: 6.00 Build 0)  -->
<svg version="1.1" xmlns="http://www.w3.org/2000/svg" xmlns:xlink="http://www.w3.org/1999/xlink" x="0px" y="0px"
	 viewBox="0 0 50 50" enable-background="new 0 0 50 50" xml:space="preserve">
<g id="Layer_1">
	<g>
		<g>
			<polygon fill="#188038" points="28.3,25 33.2,30.6 39.7,34.7 40.9,25 39.7,15.5 33,19.2 			"/>
			<path fill="#1967D2" d="M0,33.9v8.3c0,1.9,1.5,3.4,3.4,3.4h8.3l1.7-6.3l-1.7-5.5L6,32.1L0,33.9z"/>
			<polygon fill="#EA4335" points="11.7,4.4 0,16.1 6,17.9 11.7,16.1 13.4,10.8 			"/>
			<rect y="16.1" fill="#4285F4" width="11.7" height="17.7"/>
			<path fill="#34A853" d="M47.2,9.4l-7.5,6.1v19.2l7.5,6.4c1.1,0.9,2.8,0.1,2.8-1.4v-29C50,9.3,48.3,8.5,47.2,9.4z"/>
			<path fill="#34A853" d="M28.3,25v8.9H11.7v11.7h24.6c1.9,0,3.4-1.5,3.4-3.4v-7.4L28.3,25z"/>
			<path fill="#FBBC04" d="M36.3,4.4H11.7v11.7h16.6V25l11.4-9.5V7.9C39.7,6,38.2,4.4,36.3,4.4z"/>
		</g>
	</g>
</g>
<g id="caption">
</g>
</svg>
