<svg id="Layer_1" data-name="Layer 1" xmlns="http://www.w3.org/2000/svg" xmlns:xlink="http://www.w3.org/1999/xlink" viewBox="0 0 50 50"><defs><style>.cls-1{fill:none;}.cls-2{clip-path:url(#clip-path);}.cls-3{clip-path:url(#clip-path-2);}.cls-4{fill:#34a853;}.cls-5{clip-path:url(#clip-path-3);}.cls-6{fill:#ea4335;}.cls-7{clip-path:url(#clip-path-5);}.cls-8{fill:#4285f4;}.cls-9{clip-path:url(#clip-path-7);}.cls-10{fill:#fbbc04;}</style><clipPath id="clip-path"><polygon class="cls-1" points="25 35.38 18.22 28.68 15.2 31.01 12.83 34 25 46.02 42.56 28.68 40.06 25.8 37.17 23.36 25 35.38"/></clipPath><clipPath id="clip-path-2"><rect class="cls-1" x="-9.29" y="-10.28" width="68.57" height="68.41"/></clipPath><clipPath id="clip-path-3"><path class="cls-1" d="M9,19.59a4.72,4.72,0,0,1,0-6.71,4.75,4.75,0,0,1,3.39-1.39,4.83,4.83,0,0,1,3.4,1.39l3.81,3.76,3.11-2.5L25,11.33,21.19,7.57a12.52,12.52,0,0,0-17.55,0,12.15,12.15,0,0,0,0,17.34l3.8,3.77,3.07-2.35,2.32-3Z"/></clipPath><clipPath id="clip-path-5"><path class="cls-1" d="M46.37,7.57a12.53,12.53,0,0,0-17.56,0l-9.19,9.09,2.05,3L25,22l9.19-9.09a4.87,4.87,0,0,1,6.79,0,4.7,4.7,0,0,1,0,6.71l-3.8,3.77,5.38,5.32,3.81-3.76A12.18,12.18,0,0,0,46.37,7.57Z"/></clipPath><clipPath id="clip-path-7"><polygon class="cls-1" points="12.83 23.36 12.83 23.36 7.44 28.68 12.83 34 25 21.97 22.19 19.2 19.62 16.66 12.83 23.36"/></clipPath></defs><g class="cls-2"><g class="cls-3"><rect class="cls-4" x="11.04" y="21.57" width="33.3" height="26.23"/></g></g><g class="cls-5"><g class="cls-3"><rect class="cls-6" x="-1.79" y="2.2" width="28.57" height="28.27"/></g></g><g class="cls-7"><g class="cls-3"><rect class="cls-8" x="17.83" y="2.2" width="33.96" height="28.27"/></g></g><g class="cls-9"><g class="cls-3"><rect class="cls-10" x="5.66" y="14.87" width="21.13" height="20.91"/></g></g></svg>