<svg id="Layer_1" data-name="Layer 1" xmlns="http://www.w3.org/2000/svg" xmlns:xlink="http://www.w3.org/1999/xlink" viewBox="0 0 50 50"><defs><style>.cls-1{fill:#0c9d58;}.cls-2{fill:#004d40;}.cls-11,.cls-2,.cls-3,.cls-5,.cls-9{opacity:0.2;}.cls-2,.cls-3,.cls-5,.cls-9{isolation:isolate;}.cls-3,.cls-8{fill:#fff;}.cls-4{fill:#ea4335;}.cls-5{fill:#3e2723;}.cls-6{fill:#ffc107;}.cls-7{fill:#4285f4;}.cls-12,.cls-9{fill:#1a237e;}.cls-10{fill:none;}.cls-13{fill:url(#radial-gradient);}</style><radialGradient id="radial-gradient" cx="4668.16" cy="-5588.88" r="388.99" gradientTransform="matrix(0.13, 0, 0, -0.13, -572.25, -690.75)" gradientUnits="userSpaceOnUse"><stop offset="0" stop-color="#fff" stop-opacity="0.1"/><stop offset="1" stop-color="#fff" stop-opacity="0"/></radialGradient></defs><path class="cls-1" d="M39.77,32.3a1.27,1.27,0,0,1-1.27,1.26h-27a1.27,1.27,0,0,1-1.27-1.26V5.81A1.27,1.27,0,0,1,11.5,4.55h27a1.27,1.27,0,0,1,1.27,1.26Z"/><polygon class="cls-2" points="39.77 11.35 29.66 10.05 39.77 12.77 39.77 11.35"/><path class="cls-2" d="M25.49,5.93,10.17,12.77,27.1,6.61v0A1.23,1.23,0,0,0,25.49,5.93Z"/><path class="cls-3" d="M38.5,4.55h-27a1.27,1.27,0,0,0-1.27,1.26V6.1A1.27,1.27,0,0,1,11.5,4.83h27A1.27,1.27,0,0,1,39.77,6.1V5.81A1.27,1.27,0,0,0,38.5,4.55Z"/><path class="cls-4" d="M16.78,31.48A1.25,1.25,0,0,0,17.59,33l25,6.72a1.23,1.23,0,0,0,1.47-.93l5.89-22a1.25,1.25,0,0,0-.81-1.55l-25-6.72a1.23,1.23,0,0,0-1.47.93Z"/><polygon class="cls-5" points="44.32 24.68 45.63 32.67 44.32 37.58 44.32 24.68"/><polygon class="cls-5" points="29.77 10.38 30.95 10.7 31.68 15.63 29.77 10.38"/><path class="cls-3" d="M49.15,15.29l-25-6.72a1.23,1.23,0,0,0-1.47.93l-5.89,22s0,.08,0,.11L22.61,9.78a1.23,1.23,0,0,1,1.47-.93l25,6.72A1.23,1.23,0,0,1,49.91,17l0-.16A1.24,1.24,0,0,0,49.15,15.29Z"/><path class="cls-6" d="M36.47,28.78a1.23,1.23,0,0,1-.67,1.6L9.42,40a1.24,1.24,0,0,1-1.55-.8L.08,17.8a1.25,1.25,0,0,1,.67-1.61l26.39-9.6a1.24,1.24,0,0,1,1.55.8Z"/><path class="cls-3" d="M.18,18.07a1.24,1.24,0,0,1,.67-1.61l26.39-9.6a1.22,1.22,0,0,1,1.53.78l-.09-.25a1.24,1.24,0,0,0-1.55-.8L.76,16.19A1.23,1.23,0,0,0,.09,17.8L7.87,39.19v0Z"/><path class="cls-7" d="M44.32,44.18A1.28,1.28,0,0,1,43,45.45H7a1.28,1.28,0,0,1-1.28-1.27V16.9A1.28,1.28,0,0,1,7,15.63H43a1.28,1.28,0,0,1,1.28,1.27Z"/><path class="cls-8" d="M37.43,26.42H26.63V23.58h10.8a.58.58,0,0,1,.57.57v1.7A.58.58,0,0,1,37.43,26.42Z"/><path class="cls-8" d="M37.43,37.22H26.63V34.37h10.8a.58.58,0,0,1,.57.57v1.71A.58.58,0,0,1,37.43,37.22Z"/><path class="cls-8" d="M39.13,31.82H26.63V29h12.5a.56.56,0,0,1,.57.57v1.7A.57.57,0,0,1,39.13,31.82Z"/><path class="cls-9" d="M43,45.17H7a1.29,1.29,0,0,1-1.28-1.28v.29A1.28,1.28,0,0,0,7,45.45H43a1.28,1.28,0,0,0,1.28-1.27v-.29A1.29,1.29,0,0,1,43,45.17Z"/><path class="cls-3" d="M7,15.91H43a1.29,1.29,0,0,1,1.28,1.28V16.9A1.28,1.28,0,0,0,43,15.63H7A1.28,1.28,0,0,0,5.68,16.9v.29A1.29,1.29,0,0,1,7,15.91Z"/><rect class="cls-10" x="10.23" y="23.58" width="13.64" height="13.64"/><path class="cls-8" d="M17,29.26v2.56h3.68A3.47,3.47,0,0,1,17,34.52a4.12,4.12,0,0,1,0-8.24,3.69,3.69,0,0,1,2.62,1h0l1.95-1.94A6.57,6.57,0,0,0,17,23.58a6.82,6.82,0,0,0,0,13.64,6.28,6.28,0,0,0,6.53-6.67,9.1,9.1,0,0,0-.1-1.29Z"/><g class="cls-11"><path class="cls-12" d="M17.05,31.82v.29h3.6a1.53,1.53,0,0,0,.07-.29Z"/><path class="cls-12" d="M17.05,37.22a6.83,6.83,0,0,1-6.82-6.68v.14a6.82,6.82,0,0,0,6.82,6.82,6.27,6.27,0,0,0,6.52-6.66v-.09A6.25,6.25,0,0,1,17.05,37.22Z"/><path class="cls-12" d="M19.66,27.3a3.68,3.68,0,0,0-2.61-1A4.11,4.11,0,0,0,13,30.4c0,.05,0,.09,0,.14a4.11,4.11,0,0,1,4-4,3.69,3.69,0,0,1,2.61,1h0l2.09-2.09-.15-.13L19.66,27.3Z"/></g><path class="cls-9" d="M38,26.14v-.29a.58.58,0,0,1-.57.57H26.63v.28h10.8A.57.57,0,0,0,38,26.14Z"/><path class="cls-9" d="M37.43,37.22H26.63v.28h10.8a.58.58,0,0,0,.57-.57v-.28A.58.58,0,0,1,37.43,37.22Z"/><path class="cls-9" d="M39.13,31.82H26.63v.28h12.5a.56.56,0,0,0,.57-.57v-.28A.57.57,0,0,1,39.13,31.82Z"/><path class="cls-13" d="M49.15,15.29l-9.38-2.52v-7A1.27,1.27,0,0,0,38.5,4.55h-27a1.27,1.27,0,0,0-1.27,1.26v6.94L.76,16.19A1.23,1.23,0,0,0,.09,17.8L5.68,33.18v11A1.28,1.28,0,0,0,7,45.45H43a1.28,1.28,0,0,0,1.28-1.27V37.86l5.63-21A1.24,1.24,0,0,0,49.15,15.29Z"/></svg>