<svg id="Layer_1" data-name="Layer 1" xmlns="http://www.w3.org/2000/svg" viewBox="0 0 50 50"><defs><style>.cls-1{fill:#fbbc04;}.cls-2{fill:#ea4335;}.cls-3{fill:#4285f4;}.cls-4{fill:#34a853;}</style></defs><path class="cls-1" d="M12.5,11.36A12.5,12.5,0,0,1,25,23.86V25H1.14A1.14,1.14,0,0,1,0,23.86,12.5,12.5,0,0,1,12.5,11.36Z"/><path class="cls-2" d="M38.64,12.5A12.5,12.5,0,0,1,26.14,25H25V1.14A1.14,1.14,0,0,1,26.14,0,12.5,12.5,0,0,1,38.64,12.5Z"/><path class="cls-3" d="M37.5,38.64A12.5,12.5,0,0,1,25,26.14V25H48.86A1.14,1.14,0,0,1,50,26.14,12.5,12.5,0,0,1,37.5,38.64Z"/><path class="cls-4" d="M11.36,37.5A12.5,12.5,0,0,1,23.86,25H25V48.86A1.14,1.14,0,0,1,23.86,50,12.5,12.5,0,0,1,11.36,37.5Z"/></svg>