<?xml version="1.0" encoding="utf-8"?>
<!-- Generator: Adobe Illustrator 24.3.0, SVG Export Plug-In . SVG Version: 6.00 Build 0)  -->
<svg version="1.1" xmlns="http://www.w3.org/2000/svg" xmlns:xlink="http://www.w3.org/1999/xlink" x="0px" y="0px"
	 viewBox="0 0 50 50" enable-background="new 0 0 50 50" xml:space="preserve">
<g id="Layer_1">
</g>
<g id="caption">
	<g>
		<g>
			<g>
				<path fill="#097138" d="M45.4,22.2L7.5,0.7c-1.6-0.9-3.1-0.8-4,0l0,0c-0.6,0.6-1,1.6-1,2.8v43c0,1.3,0.4,2.2,1,2.8l0,0
					c0.9,0.9,2.3,1,4,0l37.9-21.5C48.1,26.3,48.1,23.7,45.4,22.2z"/>
				<linearGradient id="SVGID_1_" gradientUnits="userSpaceOnUse" x1="24.9996" y1="50.071" x2="24.9996" y2="7.102273e-02">
					<stop  offset="0" style="stop-color:#FFFFFF;stop-opacity:0"/>
					<stop  offset="1" style="stop-color:#FFFFFF;stop-opacity:0.1"/>
				</linearGradient>
				<path fill="url(#SVGID_1_)" d="M45.4,22.2L7.5,0.7c-1.6-0.9-3.1-0.8-4,0l0,0c-0.6,0.6-1,1.6-1,2.8v43c0,1.3,0.4,2.2,1,2.8l0,0
					c0.9,0.9,2.3,1,4,0l37.9-21.5C48.1,26.3,48.1,23.7,45.4,22.2z"/>
			</g>
			<path opacity="0.1" fill="#FFFFFF" d="M45.4,22.5L7.5,0.9C4.8-0.6,2.6,0.7,2.6,3.8V3.5c0-3.1,2.2-4.4,4.9-2.9l37.9,21.5
				c1.4,0.8,2.1,1.9,2,2.9C47.4,24.2,46.7,23.2,45.4,22.5z"/>
			<path fill="#00B359" d="M42.6,29.4c-0.6-3.3-1.3-7.8-1.9-11c0-0.3-0.1-0.7-0.1-0.7h-0.3c0,0,0.1,0.9,0.1,1.3c0,5-3.9,8.8-8.8,8.8
				H20.7l-2.6,2.6h12.5l3.6,3.7L42.6,29.4z"/>
			<g>
				<linearGradient id="SVGID_2_" gradientUnits="userSpaceOnUse" x1="32.4759" y1="29.4612" x2="34.9903" y2="33.8163">
					<stop  offset="0" style="stop-color:#064D25;stop-opacity:0"/>
					<stop  offset="1" style="stop-color:#064D25;stop-opacity:0.25"/>
				</linearGradient>
				<path fill="url(#SVGID_2_)" d="M42.6,29.4c-0.6-3.3-1.3-7.8-1.9-11c0-0.3-0.1-0.7-0.1-0.7h-0.3c0,0,0.1,0.9,0.1,1.3
					c0,5-3.9,8.8-8.8,8.8H20.7l-2.6,2.6h12.5l3.6,3.7L42.6,29.4z"/>
			</g>
			<path fill="#00E26B" d="M31.6,9.9H17.7c-4.5,0-8.1,2.8-9.1,8.5S6,33.8,6,33.8C6,34,6,34.2,6,34.4c0,2,1.6,3.7,3.6,3.7
				c1,0,1.9-0.4,2.6-1.1l8.8-8.9h10.7c4.9,0,9-4.1,9-9.1C40.6,14,36.6,9.9,31.6,9.9z"/>
			<g>
				
					<image overflow="visible" opacity="0.15" width="16" height="16" xlink:href="16EA7319367CECFB.png"  transform="matrix(1 0 0 1 10.4432 12.4432)">
				</image>
				<g>
					<polygon fill="#FAFAFA" points="21.9,18.2 18.8,18.2 18.8,15.1 16.5,15.1 16.5,18.2 13.4,18.2 13.4,20.5 16.5,20.5 16.5,23.6 
						18.8,23.6 18.8,20.5 21.9,20.5 					"/>
				</g>
			</g>
			<g>
				
					<image overflow="visible" opacity="0.15" width="10" height="10" xlink:href="16EA7319367CECF9.png"  transform="matrix(1 0 0 1 27.4432 12.4432)">
				</image>
				<g>
					<circle fill="#FAFAFA" cx="31.5" cy="16.2" r="1.4"/>
				</g>
			</g>
			<g>
				
					<image overflow="visible" opacity="0.15" width="10" height="10" xlink:href="16EA7319367CECFF.png"  transform="matrix(1 0 0 1 27.4432 18.4432)">
				</image>
				<g>
					<circle fill="#FAFAFA" cx="31.5" cy="22.4" r="1.4"/>
				</g>
			</g>
			<g>
				
					<image overflow="visible" opacity="0.15" width="10" height="10" xlink:href="16EA7319367CECF8.png"  transform="matrix(1 0 0 1 30.4432 15.4432)">
				</image>
				<g>
					<circle fill="#FAFAFA" cx="34.7" cy="19.3" r="1.4"/>
				</g>
			</g>
			<g>
				
					<image overflow="visible" opacity="0.15" width="10" height="10" xlink:href="16EA7319367CECF6.png"  transform="matrix(1 0 0 1 24.4432 15.4432)">
				</image>
				<g>
					<circle fill="#FAFAFA" cx="28.4" cy="19.3" r="1.4"/>
				</g>
			</g>
			<path opacity="0.15" fill="#231F20" d="M31.6,27.9H20.9l-8.8,8.9c-0.7,0.7-1.6,1.1-2.6,1.1c-2,0-3.5-1.6-3.6-3.5
				c0,0.1,0,0.1,0,0.2c0,2,1.6,3.7,3.6,3.7c1,0,1.9-0.4,2.6-1.1l8.8-8.9h10.7c5,0,9-4.1,9-9.1c0,0,0-0.1,0-0.1
				C40.5,23.8,36.5,27.9,31.6,27.9z"/>
			<path opacity="0.25" fill="#FFFFFF" d="M9,17c1.3-4.6,4.8-6.8,8.8-6.8h13.9c4.2,0,7.8,2.9,8.8,6.8l0,0c-0.9-4.1-4.5-7.1-8.8-7.1
				H17.7C13.6,9.9,10.2,12.3,9,17L9,17z"/>
		</g>
	</g>
</g>
</svg>
