<svg id="Layer_1" data-name="Layer 1" xmlns="http://www.w3.org/2000/svg" xmlns:xlink="http://www.w3.org/1999/xlink" viewBox="0 0 50 50"><defs><style>.cls-1{fill:url(#linear-gradient);}.cls-2{fill:url(#linear-gradient-2);}.cls-3{fill:url(#linear-gradient-3);}.cls-4{fill:url(#linear-gradient-4);}.cls-5{opacity:0.2;}.cls-5,.cls-6,.cls-7{isolation:isolate;}.cls-6{opacity:0.12;}.cls-7{fill:#fff;opacity:0.25;}</style><linearGradient id="linear-gradient" x1="25.55" y1="-111.05" x2="-7.08" y2="-143.67" gradientTransform="matrix(1, 0, 0, -1, 0, -108)" gradientUnits="userSpaceOnUse"><stop offset="0" stop-color="#00a0ff"/><stop offset="0.01" stop-color="#00a1ff"/><stop offset="0.26" stop-color="#00beff"/><stop offset="0.51" stop-color="#00d2ff"/><stop offset="0.76" stop-color="#00dfff"/><stop offset="1" stop-color="#00e3ff"/></linearGradient><linearGradient id="linear-gradient-2" x1="48.94" y1="-133" x2="1.91" y2="-133" gradientTransform="matrix(1, 0, 0, -1, 0, -108)" gradientUnits="userSpaceOnUse"><stop offset="0" stop-color="#ffe000"/><stop offset="0.41" stop-color="#ffbd00"/><stop offset="0.78" stop-color="orange"/><stop offset="1" stop-color="#ff9c00"/></linearGradient><linearGradient id="linear-gradient-3" x1="31.43" y1="-137.46" x2="-12.81" y2="-181.7" gradientTransform="matrix(1, 0, 0, -1, 0, -108)" gradientUnits="userSpaceOnUse"><stop offset="0" stop-color="#ff3a44"/><stop offset="1" stop-color="#c31162"/></linearGradient><linearGradient id="linear-gradient-4" x1="-2.64" y1="-94.46" x2="17.11" y2="-114.22" gradientTransform="matrix(1, 0, 0, -1, 0, -108)" gradientUnits="userSpaceOnUse"><stop offset="0" stop-color="#32a071"/><stop offset="0.07" stop-color="#2da771"/><stop offset="0.48" stop-color="#15cf74"/><stop offset="0.8" stop-color="#06e775"/><stop offset="1" stop-color="#00f076"/></linearGradient></defs><path class="cls-1" d="M3.46.77a3.88,3.88,0,0,0-.9,2.73v43a3.88,3.88,0,0,0,.9,2.73l.14.14L27.68,25.28v-.56L3.6.63Z"/><path class="cls-2" d="M35.71,33.32l-8-8v-.56l8-8,.18.1,9.52,5.4c2.71,1.55,2.71,4.07,0,5.62l-9.52,5.4Z"/><path class="cls-3" d="M35.89,33.21,27.68,25,3.46,49.23c.89,1,2.37,1.06,4,.12L35.89,33.21"/><path class="cls-4" d="M35.89,16.79,7.5.65c-1.67-.94-3.15-.83-4,.12L27.68,25Z"/><path class="cls-5" d="M35.71,33,7.5,49.06c-1.58.9-3,.84-3.9,0h0l-.14.15h0l.14.14h0c.91.81,2.32.87,3.9,0L35.89,33.21Z"/><path class="cls-6" d="M3.46,48.94a3.84,3.84,0,0,1-.9-2.73v.29a3.88,3.88,0,0,0,.9,2.73l.14-.15Z"/><path class="cls-6" d="M45.41,27.52,35.71,33l.18.18,9.52-5.4a3.42,3.42,0,0,0,2-2.81h0A3.6,3.6,0,0,1,45.41,27.52Z"/><path class="cls-7" d="M7.5.94,45.41,22.48a3.6,3.6,0,0,1,2,2.52h0a3.42,3.42,0,0,0-2-2.81L7.5.65C4.78-.89,2.56.39,2.56,3.5v.29C2.56.68,4.78-.61,7.5.94Z"/></svg>