<svg id="Layer_1" data-name="Layer 1" xmlns="http://www.w3.org/2000/svg" xmlns:xlink="http://www.w3.org/1999/xlink" viewBox="0 0 50 50"><defs><style>.cls-1{fill:#0f9d58;}.cls-2,.cls-5,.cls-6{opacity:0.2;}.cls-2,.cls-4,.cls-5,.cls-6{isolation:isolate;}.cls-2{fill:url(#linear-gradient);}.cls-3{fill:#eee;}.cls-4,.cls-6{fill:#fff;}.cls-4{opacity:0.4;}.cls-5{fill:#263238;}</style><linearGradient id="linear-gradient" x1="25.26" y1="-2069.28" x2="40.05" y2="-2054.48" gradientTransform="translate(0 2090)" gradientUnits="userSpaceOnUse"><stop offset="0" stop-color="#263238"/><stop offset="1" stop-opacity="0"/></linearGradient></defs><path class="cls-1" d="M46.6,21.59a21.6,21.6,0,0,0-43.2,0C3.4,32.89,13.7,42,25,42v8C38.11,43.35,46.6,32.64,46.6,21.59Z"/><path class="cls-2" d="M35.79,15.91l-6.25,6.25-6.25-6.25L14.2,25,33.68,44.48c6.56-5.18,11-11.55,12.42-18.26Z"/><path class="cls-3" d="M26.7,15.91V25h5.11v5.11c2.23,0,4-2.84,4-5.68V15.91Z"/><path class="cls-3" d="M14.2,15.91V25h5.11v5.11c2.23,0,4-2.84,4-5.68V15.91Z"/><path class="cls-4" d="M14.2,15.91h9.09v.28H14.2Zm12.5,0h9.09v.28H26.7Z"/><path class="cls-5" d="M31.81,30.11v.29c2.23,0,4-2.84,4-5.68v-.29C35.79,27.27,34,30.11,31.81,30.11Zm0-5.11H26.7v.28h5.11Zm-12.5,5.11.27.27c2.1-.21,3.71-2.94,3.71-5.66v-.29C23.29,27.27,21.54,30.11,19.31,30.11Zm0-5.11H14.2v.28h5.11V25Z"/><path class="cls-6" d="M25,.28A21.59,21.59,0,0,1,46.58,21.87h0c0-.09,0-.19,0-.28h0a21.59,21.59,0,0,0-43.18,0v.13A21.6,21.6,0,0,1,25,.28Z"/><path class="cls-5" d="M25,42v-.28c-11.25,0-21.5-9.08-21.59-20.32v.15C3.4,32.89,13.7,42,25,42ZM46.58,21.59C46.44,32.54,38,43.12,25,49.71V50C38.11,43.35,46.58,32.64,46.58,21.59Z"/></svg>