<svg id="Layer_1" data-name="Layer 1" xmlns="http://www.w3.org/2000/svg" viewBox="0 0 50 50"><defs><style>.cls-1{fill:#f2b41c;}.cls-2{fill:#e89d23;}.cls-3{fill:#fff;}</style></defs><circle class="cls-1" cx="25" cy="25" r="25"/><path class="cls-2" d="M49.89,27.39l-9-11.06a3.36,3.36,0,0,1,.75,2.12V37a3.41,3.41,0,0,1-3.4,3.4H12a3.39,3.39,0,0,1-2.59-1.21l7.82,9.6A25,25,0,0,0,49.89,27.39Z"/><path class="cls-3" d="M38.22,15.05H36.56V9.35l-5.69,5.7V9.35l-5.7,5.7V9.35l-5.7,5.7V9.35l-5.69,5.7H12a3.41,3.41,0,0,0-3.4,3.4V37a3.41,3.41,0,0,0,3.4,3.4H38.22a3.41,3.41,0,0,0,3.4-3.4V18.45A3.41,3.41,0,0,0,38.22,15.05ZM15.65,27.21a3,3,0,1,1,3-3A3,3,0,0,1,15.65,27.21Zm15.26,5.95A2.9,2.9,0,0,1,28,36.05H22.24a2.9,2.9,0,0,1-2.89-2.89V30.61H30.91Zm3-5.95a3,3,0,1,1,3-3A3,3,0,0,1,33.93,27.21Z"/></svg>