<svg id="Layer_1" data-name="Layer 1" xmlns="http://www.w3.org/2000/svg" viewBox="0 0 50 50"><defs><style>.cls-1{fill:#34a853;}.cls-2{fill:#4285f4;}.cls-3{fill:#ea4335;}.cls-4{fill:#fbbc04;}</style></defs><g id="_product_logo_here_" data-name=" product logo here "><g id="logomark"><path id="green" class="cls-1" d="M20.45,9.66h-17A3.41,3.41,0,0,0,0,13.07H0V30.83a1.64,1.64,0,0,1,.5-1.22Z"/><path id="blue" class="cls-2" d="M46.59,44.89H3.41A3.41,3.41,0,0,1,0,41.48H0V30.83a1.64,1.64,0,0,1,.5-1.22l24-24a1.71,1.71,0,0,1,1.26-.5H46.59A3.41,3.41,0,0,1,50,8.52v33a3.41,3.41,0,0,1-3.41,3.41Z"/><path id="red" class="cls-3" d="M24.5,5.61l-24,24A1.64,1.64,0,0,0,0,30.83V31a.86.86,0,0,1,.84-.86H21.59A3.41,3.41,0,0,0,25,26.7h0V6a.85.85,0,0,1,.86-.86h-.1A1.71,1.71,0,0,0,24.5,5.61Z"/><path id="yellow" class="cls-4" d="M0,31a1.55,1.55,0,0,1,1.07-1.48l15.16-4.83a5,5,0,0,0,3.3-3.32L24.36,6.2a1.55,1.55,0,0,1,1.48-1.09h-.08a1.7,1.7,0,0,0-1.2.5L.5,29.61A1.72,1.72,0,0,0,0,30.83Z"/></g></g></svg>