<svg id="Layer_1" data-name="Layer 1" xmlns="http://www.w3.org/2000/svg" viewBox="0 0 50 50"><defs><style>.cls-1{fill:#1a73e8;}.cls-2,.cls-6{fill:#fff;}.cls-2{opacity:0.2;isolation:isolate;}.cls-3{fill:#1a237e;fill-opacity:0.2;}.cls-4{fill:#185abc;}.cls-5{fill:#f1f3f4;}.cls-7{fill:#bdc1c6;}</style></defs><g id="Art"><path id="Teardrop" class="cls-1" d="M50,26.42A25,25,0,1,1,25,0H46a4,4,0,0,1,4,4Z"/><path id="Highlight" class="cls-2" d="M46,0H25A25,25,0,0,0,0,25H0A24.88,24.88,0,0,1,25,.28H46a4,4,0,0,1,4,4V4A4,4,0,0,0,46,0Z"/><g id="Shadow"><path class="cls-3" d="M50,26.42v-.57A25.18,25.18,0,0,1,25,49.72a25.13,25.13,0,0,1-25-25V25a25,25,0,0,0,50,1.14"/></g><path id="Camera_Body_Shadow" data-name="Camera Body Shadow" class="cls-4" d="M35.23,29.83a4,4,0,0,1-4.26,4H16.76a4,4,0,0,1-4.26-4v1.4a4.21,4.21,0,0,0,4.26,4.26H31a4.21,4.21,0,0,0,4.26-4.26V29.83Z"/><path id="Camera_Lens_Shadow" data-name="Camera Lens Shadow" class="cls-4" d="M42.05,31a.85.85,0,0,1-1.43.56l-5.39-5.39v1.42L40.62,33a.82.82,0,0,0,1.43-.56Z"/><g id="Camera"><path id="lens" class="cls-5" d="M40.62,17.33l-5.39,5.4v3.41l5.39,5.39A.83.83,0,0,0,42.05,31V17.9A.84.84,0,0,0,40.62,17.33Z"/><path id="body" class="cls-6" d="M31,14.77H16.76A4.26,4.26,0,0,0,12.5,19v10.8a4.24,4.24,0,0,0,4.26,4.26H31a4.24,4.24,0,0,0,4.26-4.26V19A4.26,4.26,0,0,0,31,14.77Z"/><g id="inner_shadow_clipped_to_lens_" data-name="inner shadow (clipped to lens)"><polygon id="inner_shadow" data-name="inner shadow" class="cls-7" points="35.23 26.48 35.23 26.14 36.36 27.27 36.36 21.59 35.23 22.73 35.23 26.48"/></g></g></g></svg>