<?xml version="1.0" encoding="utf-8"?>
<!-- Generator: Adobe Illustrator 24.3.0, SVG Export Plug-In . SVG Version: 6.00 Build 0)  -->
<svg version="1.1" xmlns="http://www.w3.org/2000/svg" xmlns:xlink="http://www.w3.org/1999/xlink" x="0px" y="0px"
	 viewBox="0 0 50 50" enable-background="new 0 0 50 50" xml:space="preserve">
<g id="Layer_1">
</g>
<g id="caption">
	<g>
		<g>
			<path fill="#5F6368" d="M29.2,27.2v-5.9h2.1c0.5,0,0.9,0.2,1.2,0.5c0.3,0.3,0.5,0.7,0.5,1.1c0,0.6-0.3,1-0.8,1.2v0
				c0.3,0.1,0.5,0.3,0.7,0.5c0.2,0.2,0.3,0.5,0.3,0.8c0,0.5-0.2,0.9-0.5,1.2c-0.3,0.3-0.8,0.5-1.3,0.5H29.2z M30,22.1v1.8h1.4
				c0.3,0,0.5-0.1,0.7-0.3c0.2-0.2,0.3-0.4,0.3-0.6c0-0.2-0.1-0.4-0.3-0.6c-0.2-0.2-0.4-0.3-0.6-0.3H30z M30,24.6v1.9h1.5
				c0.3,0,0.5-0.1,0.7-0.3c0.2-0.2,0.3-0.4,0.3-0.7c0-0.3-0.1-0.5-0.3-0.7c-0.2-0.2-0.4-0.3-0.7-0.3H30z"/>
			<path fill="#5F6368" d="M33.8,25.2c0-0.6,0.2-1.1,0.6-1.5c0.4-0.4,0.9-0.6,1.5-0.6c0.6,0,1.1,0.2,1.5,0.6
				c0.4,0.4,0.6,0.9,0.6,1.5c0,0.6-0.2,1.1-0.6,1.5c-0.4,0.4-0.9,0.6-1.5,0.6c-0.6,0-1.1-0.2-1.5-0.6C34,26.3,33.8,25.8,33.8,25.2z
				 M34.5,25.2c0,0.4,0.1,0.8,0.4,1c0.3,0.3,0.6,0.4,0.9,0.4c0.4,0,0.7-0.1,0.9-0.4c0.3-0.3,0.4-0.6,0.4-1c0-0.4-0.1-0.8-0.4-1
				c-0.3-0.3-0.6-0.4-0.9-0.4s-0.7,0.1-0.9,0.4C34.6,24.4,34.5,24.8,34.5,25.2z"/>
			<path fill="#5F6368" d="M38.3,25.2c0-0.6,0.2-1.1,0.6-1.5c0.4-0.4,0.9-0.6,1.5-0.6c0.6,0,1.1,0.2,1.5,0.6
				c0.4,0.4,0.6,0.9,0.6,1.5c0,0.6-0.2,1.1-0.6,1.5c-0.4,0.4-0.9,0.6-1.5,0.6c-0.6,0-1.1-0.2-1.5-0.6C38.5,26.3,38.3,25.8,38.3,25.2
				z M39.1,25.2c0,0.4,0.1,0.8,0.4,1c0.3,0.3,0.6,0.4,0.9,0.4c0.4,0,0.7-0.1,0.9-0.4c0.3-0.3,0.4-0.6,0.4-1c0-0.4-0.1-0.8-0.4-1
				c-0.3-0.3-0.6-0.4-0.9-0.4s-0.7,0.1-0.9,0.4C39.2,24.4,39.1,24.8,39.1,25.2z"/>
			<path fill="#5F6368" d="M46.6,27.2h-0.9l-1.3-1.9l-0.6,0.6v1.3h-0.8v-5.9h0.8V25l1.7-1.8h1v0L45,24.8L46.6,27.2L46.6,27.2z"/>
			<path fill="#5F6368" d="M50,26.1c0,0.3-0.2,0.6-0.5,0.9c-0.3,0.2-0.7,0.4-1.2,0.4c-0.4,0-0.8-0.1-1.1-0.3
				c-0.3-0.2-0.5-0.5-0.7-0.8l0.7-0.3c0.1,0.2,0.2,0.4,0.4,0.6c0.2,0.1,0.4,0.2,0.6,0.2c0.2,0,0.4-0.1,0.6-0.2
				c0.2-0.1,0.2-0.2,0.2-0.4c0-0.3-0.2-0.4-0.6-0.6L48,25.4c-0.8-0.2-1.2-0.6-1.2-1.1c0-0.4,0.1-0.7,0.4-0.9
				c0.3-0.2,0.7-0.3,1.1-0.3c0.4,0,0.7,0.1,1,0.3c0.3,0.2,0.5,0.4,0.6,0.7l-0.7,0.3c-0.1-0.2-0.2-0.3-0.4-0.4
				c-0.2-0.1-0.4-0.1-0.6-0.1c-0.2,0-0.4,0-0.5,0.1c-0.2,0.1-0.2,0.2-0.2,0.4c0,0.2,0.2,0.4,0.6,0.5l0.6,0.2
				C49.6,25.1,50,25.5,50,26.1z"/>
		</g>
		<g id="_x37_5x24px">
			<path fill="#4285F4" d="M3.4,27.4C1.5,27.4,0,25.9,0,24c0-1.8,1.5-3.3,3.4-3.3c1,0,1.7,0.4,2.3,0.9L5,22.3
				c-0.4-0.4-0.9-0.6-1.6-0.6C2,21.6,1,22.7,1,24c0,1.3,1,2.4,2.4,2.4c0.9,0,1.4-0.3,1.7-0.7c0.3-0.3,0.4-0.6,0.5-1.1H3.4v-0.9h3.1
				c0,0.2,0,0.4,0,0.6c0,0.7-0.2,1.5-0.8,2.1C5.1,27,4.4,27.4,3.4,27.4z"/>
			<path fill="#E94235" d="M11.2,25.2c0,1.2-0.9,2.1-2.1,2.1S7,26.5,7,25.2C7,24,8,23.1,9.1,23.1S11.2,24,11.2,25.2z M10.3,25.2
				c0-0.8-0.6-1.3-1.2-1.3c-0.6,0-1.2,0.5-1.2,1.3c0,0.8,0.6,1.3,1.2,1.3C9.8,26.5,10.3,26,10.3,25.2z"/>
			<path fill="#FABB05" d="M16,25.2c0,1.2-0.9,2.1-2.1,2.1c-1.2,0-2.1-0.9-2.1-2.1c0-1.2,0.9-2.1,2.1-2.1C15,23.1,16,24,16,25.2z
				 M15,25.2c0-0.8-0.6-1.3-1.2-1.3c-0.6,0-1.2,0.5-1.2,1.3c0,0.8,0.6,1.3,1.2,1.3C14.5,26.5,15,26,15,25.2z"/>
			<path fill="#4285F4" d="M20.6,23.2v3.8c0,1.6-0.9,2.2-2,2.2c-1,0-1.7-0.7-1.9-1.3l0.8-0.3c0.1,0.3,0.5,0.8,1.1,0.8
				c0.7,0,1.1-0.4,1.1-1.3v-0.3h0c-0.2,0.3-0.6,0.5-1.1,0.5c-1.1,0-2.1-0.9-2.1-2.1c0-1.2,1-2.1,2.1-2.1c0.5,0,0.9,0.2,1.1,0.5h0
				v-0.3H20.6z M19.8,25.2c0-0.8-0.5-1.3-1.1-1.3c-0.7,0-1.2,0.6-1.2,1.3c0,0.7,0.5,1.3,1.2,1.3C19.3,26.5,19.8,26,19.8,25.2z"/>
			<path fill="#34A853" d="M22.2,21v6.3h-0.9V21H22.2z"/>
			<path fill="#E94235" d="M26,25.9l0.7,0.5c-0.2,0.3-0.8,0.9-1.8,0.9c-1.2,0-2.1-0.9-2.1-2.1c0-1.3,0.9-2.1,2-2.1
				c1.1,0,1.7,0.9,1.8,1.4l0.1,0.2l-2.9,1.2c0.2,0.4,0.6,0.6,1,0.6S25.7,26.3,26,25.9z M23.7,25.2l1.9-0.8c-0.1-0.3-0.4-0.5-0.8-0.5
				C24.3,23.9,23.7,24.3,23.7,25.2z"/>
		</g>
	</g>
</g>
</svg>
