<svg id="Layer_1" data-name="Layer 1" xmlns="http://www.w3.org/2000/svg" viewBox="0 0 50 50"><defs><style>.cls-1{fill:#4285f4;}.cls-2{fill:#34a853;}.cls-3{fill:#fabb05;}.cls-4{fill:#e94235;}.cls-5{fill:#5f6368;}</style></defs><path class="cls-1" d="M38.6,14.41a16.42,16.42,0,0,0-.27-3H25.05V16.8h7.59a6.48,6.48,0,0,1-2.81,4.43v3.54H34.4A13.74,13.74,0,0,0,38.6,14.41Z"/><path class="cls-2" d="M25.06,28.17a13.48,13.48,0,0,0,9.34-3.4l-4.57-3.54a8.49,8.49,0,0,1-4.77,1.34,8.4,8.4,0,0,1-7.89-5.8h-4.7v3.64A14.09,14.09,0,0,0,25.06,28.17Z"/><path class="cls-3" d="M17.17,16.77a8.38,8.38,0,0,1,0-5.36V7.76h-4.7a14.09,14.09,0,0,0,0,12.65Z"/><path class="cls-4" d="M25.06,5.6a7.65,7.65,0,0,1,5.39,2.11l4-4A13.54,13.54,0,0,0,25.06,0,14.09,14.09,0,0,0,12.47,7.76l4.7,3.65A8.41,8.41,0,0,1,25.06,5.6Z"/><path class="cls-5" d="M11.05,39.09h1.24l5.79,9h.06L18.08,46V39.09h1V49.76h-1L12,40.36h-.06L12,42.42v7.34h-.95Z"/><path class="cls-5" d="M27.43,48a3.69,3.69,0,0,1-.5.76,3.45,3.45,0,0,1-.69.63,3.11,3.11,0,0,1-.9.42,3.61,3.61,0,0,1-1.12.16,3.69,3.69,0,0,1-1.46-.29,3.25,3.25,0,0,1-1.15-.81,3.69,3.69,0,0,1-.76-1.23,4.56,4.56,0,0,1-.26-1.56,4.67,4.67,0,0,1,.24-1.5,3.74,3.74,0,0,1,.71-1.23,3.36,3.36,0,0,1,1.12-.85,3.71,3.71,0,0,1,2.9,0,3.09,3.09,0,0,1,1.08.77,3.81,3.81,0,0,1,.69,1.2A4.8,4.8,0,0,1,27.57,46v.09a.25.25,0,0,0,0,.08v.08h-6a3.16,3.16,0,0,0,.27,1.3,3,3,0,0,0,.64.89,2.56,2.56,0,0,0,.87.51,2.81,2.81,0,0,0,.92.17,2.31,2.31,0,0,0,1.46-.43,3.42,3.42,0,0,0,.9-1.08Zm-.85-2.56a2.83,2.83,0,0,0-.15-.77,2.46,2.46,0,0,0-.42-.78,2.26,2.26,0,0,0-.75-.6,2.69,2.69,0,0,0-1.16-.23,2.51,2.51,0,0,0-.86.15,2.41,2.41,0,0,0-.75.46,2.36,2.36,0,0,0-.57.74,3.19,3.19,0,0,0-.31,1Z"/><path class="cls-5" d="M31.3,50a3.41,3.41,0,0,1-1.09-.17,3.18,3.18,0,0,1-.88-.46,3.49,3.49,0,0,1-.66-.67,3.41,3.41,0,0,1-.42-.8l.85-.36a2.37,2.37,0,0,0,.9,1.2,2.28,2.28,0,0,0,1.3.41,2.23,2.23,0,0,0,1.39-.39,1.14,1.14,0,0,0,.5-.92,1.16,1.16,0,0,0-.07-.42.9.9,0,0,0-.27-.36,1.93,1.93,0,0,0-.52-.32,5.68,5.68,0,0,0-.84-.26l-1-.24a4.49,4.49,0,0,1-.71-.23,2.38,2.38,0,0,1-.66-.37,1.73,1.73,0,0,1-.48-.56,1.45,1.45,0,0,1-.19-.76,1.76,1.76,0,0,1,.23-.89,2.08,2.08,0,0,1,.63-.66,3.09,3.09,0,0,1,.9-.41,4,4,0,0,1,1-.14,3.82,3.82,0,0,1,.9.11,3.44,3.44,0,0,1,.79.32,2.56,2.56,0,0,1,.65.53,2.53,2.53,0,0,1,.45.74l-.84.34a2,2,0,0,0-.81-.91,2.51,2.51,0,0,0-1.18-.28,2.82,2.82,0,0,0-.65.08,2.27,2.27,0,0,0-.57.24,1.4,1.4,0,0,0-.41.39.84.84,0,0,0-.16.51.81.81,0,0,0,.39.72,4,4,0,0,0,1.11.43l1.08.27a3.54,3.54,0,0,1,1.64.81,1.67,1.67,0,0,1,.53,1.24,1.85,1.85,0,0,1-.2.87,2.16,2.16,0,0,1-.58.71,3,3,0,0,1-.91.48A3.59,3.59,0,0,1,31.3,50Z"/><path class="cls-5" d="M36,43.32H34.7v-.86H36V40.23h1v2.23h1.81v.86H37v4.49a1.36,1.36,0,0,0,.31,1,.93.93,0,0,0,.71.33,1.38,1.38,0,0,0,.38,0,1.52,1.52,0,0,0,.36-.12l.29.82a2.54,2.54,0,0,1-.51.17,3.61,3.61,0,0,1-.62,0,1.86,1.86,0,0,1-1.31-.5,1.74,1.74,0,0,1-.42-.63A2.42,2.42,0,0,1,36,48Z"/></svg>