<svg id="Layer_1" data-name="Layer 1" xmlns="http://www.w3.org/2000/svg" viewBox="0 0 50 50"><defs><style>.cls-1{fill:#4285f4;}.cls-2{fill:#1a73e8;}.cls-3{fill:#fbbc04;}.cls-4{fill:#34a853;}.cls-5{fill:#ea4335;}</style></defs><path class="cls-1" d="M30.08,21.7l7.18-5.46,3.19-6.88A17.51,17.51,0,0,0,30.26.8L23.63,5.28l-3.76,7.87h0a6.65,6.65,0,0,1,11.77,4.24A6.69,6.69,0,0,1,30.08,21.7Z"/><path class="cls-2" d="M25,0A17.32,17.32,0,0,0,11.64,6.24l3.06,5,5.17,1.89L30.26.81A17.72,17.72,0,0,0,25,0Z"/><path class="cls-3" d="M30.08,21.7a6.65,6.65,0,0,1-11.75-4.27,7.09,7.09,0,0,1,1.54-4.28l-7.63,5.46-3,7.15c1.84,4,4.86,7.2,8,11.22l8.17-6.51Z"/><path class="cls-4" d="M42.44,17.43a17.45,17.45,0,0,0-2-8.07L17.26,37c1,1.32,2,2.73,3,4.27C23.83,46.72,22.76,50,25,50s1.28-3.28,4.82-8.75C35.66,32.15,42.44,28,42.44,17.43Z"/><path class="cls-5" d="M19.87,13.15,11.64,6.24A17.36,17.36,0,0,0,7.56,17.43a19.47,19.47,0,0,0,1.73,8.33Z"/></svg>