<svg id="Layer_1" data-name="Layer 1" xmlns="http://www.w3.org/2000/svg" viewBox="0 0 50 50"><defs><style>.cls-1{fill:#5f6368;}.cls-2{fill:#4285f4;}.cls-3{fill:#34a853;}.cls-4{fill:#fbbc04;}.cls-5{fill:#ea4335;}</style></defs><path class="cls-1" d="M23.65,24.77v5.82H21.8V16.22h4.9a4.43,4.43,0,0,1,3.17,1.25,4.16,4.16,0,0,1,0,6.08,4.44,4.44,0,0,1-3.17,1.22Zm0-6.78v5h3.09a2.44,2.44,0,0,0,1.83-.75A2.52,2.52,0,0,0,26.74,18Z"/><path class="cls-1" d="M35.45,20.44a4.58,4.58,0,0,1,3.23,1.09,3.89,3.89,0,0,1,1.19,3v6.06H38.1V29.23H38A3.52,3.52,0,0,1,35,30.91a4,4,0,0,1-2.72-1,3.07,3.07,0,0,1-1.1-2.41,2.94,2.94,0,0,1,1.16-2.43,4.86,4.86,0,0,1,3.08-.9,5.46,5.46,0,0,1,2.71.6v-.42a2.12,2.12,0,0,0-.77-1.64,2.63,2.63,0,0,0-1.78-.67,2.83,2.83,0,0,0-2.45,1.31l-1.63-1A4.56,4.56,0,0,1,35.45,20.44Zm-2.39,7.14a1.48,1.48,0,0,0,.61,1.21,2.27,2.27,0,0,0,1.44.48,2.94,2.94,0,0,0,2.07-.86,2.73,2.73,0,0,0,.92-2,3.78,3.78,0,0,0-2.41-.68,3.14,3.14,0,0,0-1.88.54A1.61,1.61,0,0,0,33.06,27.58Z"/><path class="cls-1" d="M50,20.76,43.84,34.93H41.93l2.29-5-4-9.21h2l2.93,7.06h0L48,20.76Z"/><path class="cls-2" d="M16.19,23.52A9.21,9.21,0,0,0,16,21.84H8.26V25h4.46a3.81,3.81,0,0,1-1.65,2.51v2.06h2.66A8.05,8.05,0,0,0,16.19,23.52Z"/><path class="cls-3" d="M8.26,31.59a7.86,7.86,0,0,0,5.47-2l-2.66-2.06a5,5,0,0,1-7.45-2.62H.88V27A8.27,8.27,0,0,0,8.26,31.59Z"/><path class="cls-4" d="M3.62,24.91a4.93,4.93,0,0,1,0-3.16V19.62H.88A8.26,8.26,0,0,0,.88,27Z"/><path class="cls-5" d="M8.26,18.34a4.5,4.5,0,0,1,3.17,1.24h0l2.35-2.36a7.94,7.94,0,0,0-5.52-2.15A8.25,8.25,0,0,0,.88,19.62l2.74,2.13A4.94,4.94,0,0,1,8.26,18.34Z"/></svg>