<svg id="Layer_1" data-name="Layer 1" xmlns="http://www.w3.org/2000/svg" xmlns:xlink="http://www.w3.org/1999/xlink" viewBox="0 0 50 50"><defs><style>.cls-1{fill:#255fdb;}.cls-2{fill:#4285f4;}.cls-3{fill:#91bfff;}.cls-4{fill:#c4e1ff;}.cls-5{fill:#f5f5f5;}.cls-6{fill:#212121;}.cls-6,.cls-8{fill-opacity:0.1;}.cls-7{fill:#fff;fill-opacity:0.2;}.cls-8{fill:url(#radial-gradient);}</style><radialGradient id="radial-gradient" cx="-605.92" cy="570.58" r="18.62" gradientTransform="translate(1623.33 -1514) scale(2.67)" gradientUnits="userSpaceOnUse"><stop offset="0" stop-color="#fff"/><stop offset="1" stop-color="#fff" stop-opacity="0"/></radialGradient></defs><g id="Content"><path class="cls-1" d="M17.25,30.21C8.73,18.93,0,27.5,2.26,35.38A25,25,0,0,0,46,38.58C39.42,44.74,27.46,43.71,17.25,30.21Z"/><path class="cls-2" d="M24.87,22.44C13.15,4.67,0,14.14,0,25A24.8,24.8,0,0,0,2.28,35.42c-1.56-7.36,6.9-13,14.77-2.47C28.48,48.29,39.7,45.59,46,38.61a24.74,24.74,0,0,0,3.81-10.26v0C47.1,36.76,35.2,38.12,24.87,22.44Z"/><path class="cls-3" d="M32.9,14.49C24.19.13,13.16,1.42,5.7,9.12A24.89,24.89,0,0,0,0,25C.79,14.48,13.5,7.18,25,25c10.24,15.86,23,11.73,24.78,3.44v-.08A21.22,21.22,0,0,0,50,25c0-.38,0-.76,0-1.13C45.55,27,39.73,25.76,32.9,14.49Z"/><path class="cls-4" d="M33,17.05c8,12.81,14.84,9.53,17,6.79a24.52,24.52,0,0,0-.91-5.65c-3.72.07-4.58-.55-8.23-6.11C35.25,3.51,28.21-2.26,15.93,1.71A25.12,25.12,0,0,0,5.69,9.13C14.14,1.35,24.51,3.46,33,17.05Z"/><path class="cls-5" d="M40.29,13.18c3.65,5.56,5.86,5.86,8.79,5A25,25,0,0,0,15.92,1.71C26.9-1.76,34.69,4.61,40.29,13.18Z"/></g><g id="Bevel"><path id="bottom" class="cls-6" d="M25,49.38A24.85,24.85,0,0,0,50,25c0,.1,0,.2,0,.31a25,25,0,0,1-50,0V25A24.85,24.85,0,0,0,25,49.38Z"/><path id="top" class="cls-7" d="M25,.62A24.83,24.83,0,0,1,50,25c0-.1,0-.2,0-.31A24.85,24.85,0,0,0,25,0,24.85,24.85,0,0,0,0,24.69c0,.11,0,.21,0,.31A24.85,24.85,0,0,1,25,.62Z"/></g><circle id="Finish" class="cls-8" cx="25" cy="25" r="25"/></svg>