<?xml version="1.0" encoding="utf-8"?>
<!-- Generator: Adobe Illustrator 24.3.0, SVG Export Plug-In . SVG Version: 6.00 Build 0)  -->
<svg version="1.1" xmlns="http://www.w3.org/2000/svg" xmlns:xlink="http://www.w3.org/1999/xlink" x="0px" y="0px"
	 viewBox="0 0 50 50" enable-background="new 0 0 50 50" xml:space="preserve">
<g id="Layer_1">
	<g>
		<g>
			<polygon fill="#FFFFFF" points="38.2,11.8 26.3,10.5 11.8,11.8 10.5,25 11.8,38.2 25,39.8 38.2,38.2 39.5,24.7 			"/>
			<path fill="#4285F4" d="M17.2,32.3c-1-0.7-1.7-1.6-2-2.9l2.3-0.9c0.2,0.8,0.6,1.4,1.1,1.8c0.5,0.4,1.1,0.6,1.9,0.6
				c0.7,0,1.4-0.2,1.9-0.7c0.5-0.5,0.8-1,0.8-1.7c0-0.7-0.3-1.3-0.8-1.8S21,26,20.2,26h-1.3v-2.3h1.2c0.7,0,1.3-0.2,1.8-0.6
				s0.8-0.9,0.8-1.6c0-0.6-0.2-1.1-0.7-1.5c-0.4-0.4-1-0.5-1.7-0.5c-0.7,0-1.2,0.2-1.6,0.5c-0.4,0.4-0.7,0.8-0.9,1.3l-2.3-0.9
				c0.3-0.8,0.8-1.6,1.7-2.2c0.8-0.6,1.8-1,3.1-1c0.9,0,1.8,0.2,2.5,0.5s1.3,0.9,1.7,1.5c0.4,0.6,0.6,1.3,0.6,2.1
				c0,0.8-0.2,1.5-0.6,2c-0.4,0.6-0.9,1-1.4,1.3v0.1c0.7,0.3,1.4,0.8,1.8,1.4c0.5,0.6,0.7,1.4,0.7,2.3S25.5,30.3,25,31
				c-0.5,0.7-1.1,1.3-1.9,1.7c-0.8,0.4-1.7,0.6-2.7,0.6C19.3,33.3,18.2,32.9,17.2,32.3z"/>
			<path fill="#4285F4" d="M31.2,20.9l-2.5,1.8l-1.3-1.9l4.5-3.2h1.7v15.3h-2.5V20.9z"/>
			<polygon fill="#EA4335" points="38.2,50 50,38.2 44.1,35.5 38.2,38.2 35.5,44.1 			"/>
			<polygon fill="#34A853" points="9.2,44.1 11.8,50 38.2,50 38.2,38.2 11.8,38.2 			"/>
			<path fill="#4285F4" d="M3.9,0C1.8,0,0,1.8,0,3.9v34.2l5.9,2.6l5.9-2.6V11.8h26.3l2.6-5.9L38.2,0H3.9z"/>
			<path fill="#188038" d="M0,38.2v7.9C0,48.2,1.8,50,3.9,50h7.9V38.2H0z"/>
			<polygon fill="#FBBC04" points="38.2,11.8 38.2,38.2 50,38.2 50,11.8 44.1,9.2 			"/>
			<path fill="#1967D2" d="M50,11.8V3.9C50,1.8,48.2,0,46.1,0h-7.9v11.8H50z"/>
		</g>
	</g>
</g>
<g id="caption">
</g>
</svg>
