<svg id="Layer_1" data-name="Layer 1" xmlns="http://www.w3.org/2000/svg" viewBox="0 0 50 50"><defs><style>.cls-1{fill:#fbbc04;}.cls-2{fill:#4285f4;}.cls-3{fill:#1967d2;}.cls-4{fill:#f1f3f4;}.cls-5{fill:#174ea6;}.cls-6{fill:#fff;}</style></defs><path class="cls-1" d="M10.23,3.41H39.77a3.4,3.4,0,0,1,3.41,3.41V46.59A3.41,3.41,0,0,1,39.77,50H10.23a3.41,3.41,0,0,1-3.41-3.41V6.82A3.4,3.4,0,0,1,10.23,3.41Z"/><path class="cls-2" d="M30.68,45.45H12.5a1.13,1.13,0,0,1-1.14-1.13V9.09A1.14,1.14,0,0,1,12.5,8h25a1.14,1.14,0,0,1,1.14,1.14V37.5"/><path class="cls-3" d="M31.82,37.5h6.82l-8,8V38.64A1.14,1.14,0,0,1,31.82,37.5Z"/><path class="cls-4" d="M15.91,34.09V31.82H34.09v2.27Zm0,4.55V36.36H25v2.28Zm0-9.09V27.27H34.09v2.28ZM19,20.15l1.61-1.6,3.22,3.21,8-8,1.61,1.61L23.86,25Z"/><path class="cls-5" d="M25,0C20.07,0,14.77,2.67,14.77,6v4.26H35.23V6C35.23,2.67,29.93,0,25,0Z"/><circle class="cls-6" cx="25" cy="5.11" r="1.7"/></svg>