<?xml version="1.0" encoding="utf-8"?>
<!-- Generator: Adobe Illustrator 24.3.0, SVG Export Plug-In . SVG Version: 6.00 Build 0)  -->
<svg version="1.1" xmlns="http://www.w3.org/2000/svg" xmlns:xlink="http://www.w3.org/1999/xlink" x="0px" y="0px"
	 viewBox="0 0 50 50" enable-background="new 0 0 50 50" xml:space="preserve">
<g id="Layer_1">
</g>
<g id="caption">
	<g>
		<g>
			<defs>
				<path id="SVGID_1_" d="M46.6,3.4H3.4C1.5,3.4,0,4.9,0,6.8v36.4c0,1.9,1.5,3.4,3.4,3.4h43.2c1.9,0,3.4-1.5,3.4-3.4V6.8
					C50,4.9,48.5,3.4,46.6,3.4z"/>
			</defs>
			<clipPath id="SVGID_2_">
				<use xlink:href="#SVGID_1_"  overflow="visible"/>
			</clipPath>
			<g clip-path="url(#SVGID_2_)">
				<path fill="#0F9D58" d="M4.5,8h40.9V42H4.5V8z"/>
				<path fill="#57BB8A" d="M34.1,26.1c1.4,0,2.6-1.1,2.6-2.6S35.5,21,34.1,21c-1.4,0-2.6,1.1-2.6,2.6S32.7,26.1,34.1,26.1z
					 M34.1,27.8c-2.7,0-5.7,1.5-5.7,3.2V33h11.4v-1.9C39.8,29.3,36.8,27.8,34.1,27.8z M15.9,26.1c1.4,0,2.6-1.1,2.6-2.6
					S17.3,21,15.9,21s-2.6,1.1-2.6,2.6S14.5,26.1,15.9,26.1z M15.9,27.8c-2.7,0-5.7,1.5-5.7,3.2V33h11.4v-1.9
					C21.6,29.3,18.6,27.8,15.9,27.8z"/>
				<path fill="#F7F7F7" d="M25,23.9c1.9,0,3.4-1.5,3.4-3.4c0-1.9-1.5-3.4-3.4-3.4c-1.9,0-3.4,1.5-3.4,3.4
					C21.6,22.3,23.1,23.9,25,23.9z M25,26.1c-3.8,0-8,2-8,4.5V33H33v-2.3C33,28.2,28.8,26.1,25,26.1z"/>
				
					<image overflow="visible" opacity="0.2" enable-background="new    " width="204" height="88" xlink:href="3BD5ED7EA8F21947.png"  transform="matrix(6.508264e-02 0 0 6.508264e-02 28.0207 38.0682)">
				</image>
				<path fill="#F1F1F1" d="M29.5,39.8h10.2V42H29.5V39.8z"/>
				<path fill="#F4B400" d="M46.6,3.4H3.4C1.5,3.4,0,4.9,0,6.8v36.4c0,1.9,1.5,3.4,3.4,3.4h43.2c1.9,0,3.4-1.5,3.4-3.4V6.8
					C50,4.9,48.5,3.4,46.6,3.4z M45.5,42H4.5V8h40.9V42z"/>
				<path opacity="0.2" fill="#FFFFFF" enable-background="new    " d="M46.6,3.4H3.4C1.5,3.4,0,4.9,0,6.8v0.3
					c0-1.9,1.5-3.4,3.4-3.4h43.2c1.9,0,3.4,1.5,3.4,3.4V6.8C50,4.9,48.5,3.4,46.6,3.4z"/>
				<path opacity="0.2" fill="#BF360C" enable-background="new    " d="M46.6,46.3H3.4c-1.9,0-3.4-1.5-3.4-3.4v0.3
					c0,1.9,1.5,3.4,3.4,3.4h43.2c1.9,0,3.4-1.5,3.4-3.4v-0.3C50,44.8,48.5,46.3,46.6,46.3z"/>
				
					<linearGradient id="SVGID_3_" gradientUnits="userSpaceOnUse" x1="4313.2842" y1="-6048.1514" x2="4313.2842" y2="-6084.3896" gradientTransform="matrix(0.125 0 0 -0.125 -502.25 -713.9103)">
					<stop  offset="0" style="stop-color:#BF360C;stop-opacity:0.2"/>
					<stop  offset="1" style="stop-color:#BF360C;stop-opacity:2.000000e-02"/>
				</linearGradient>
				<path fill="url(#SVGID_3_)" d="M39.8,42H29.5l4.5,4.5h10.2L39.8,42z"/>
				<path opacity="0.2" fill="#263238" enable-background="new    " d="M4.5,7.7h40.9V8H4.5V7.7z"/>
			</g>
		</g>
		<g>
			<defs>
				<path id="SVGID_4_" d="M46.6,3.4H3.4C1.5,3.4,0,4.9,0,6.8v36.4c0,1.9,1.5,3.4,3.4,3.4h43.2c1.9,0,3.4-1.5,3.4-3.4V6.8
					C50,4.9,48.5,3.4,46.6,3.4z"/>
			</defs>
			<clipPath id="SVGID_5_">
				<use xlink:href="#SVGID_4_"  overflow="visible"/>
			</clipPath>
			<path opacity="0.2" clip-path="url(#SVGID_5_)" fill="#FFFFFF" enable-background="new    " d="M4.5,42h40.9v0.3H4.5V42z"/>
		</g>
		
			<radialGradient id="SVGID_6_" cx="4031.6365" cy="-5746.6533" r="477.7432" gradientTransform="matrix(0.125 0 0 -0.125 -502.25 -713.9103)" gradientUnits="userSpaceOnUse">
			<stop  offset="0" style="stop-color:#FFFFFF;stop-opacity:0.1"/>
			<stop  offset="1" style="stop-color:#FFFFFF;stop-opacity:0"/>
		</radialGradient>
		<path fill="url(#SVGID_6_)" d="M46.6,3.4H3.4C1.5,3.4,0,4.9,0,6.8v36.4c0,1.9,1.5,3.4,3.4,3.4h43.2c1.9,0,3.4-1.5,3.4-3.4V6.8
			C50,4.9,48.5,3.4,46.6,3.4z"/>
	</g>
</g>
</svg>
