<svg id="Layer_1" data-name="Layer 1" xmlns="http://www.w3.org/2000/svg" viewBox="0 0 50 50"><defs><style>.cls-1{fill:#fafafa;}.cls-2{fill:#212121;opacity:0.1;}.cls-2,.cls-3{isolation:isolate;}.cls-3,.cls-6{fill:#fff;}.cls-3{opacity:0.4;}.cls-4{fill:#1a73e8;}.cls-5{fill:#185abc;}.cls-7{fill:#8ab4f8;}</style></defs><circle class="cls-1" cx="25" cy="25" r="25"/><path class="cls-2" d="M50,24.86a25,25,0,0,1-50,0V25a25,25,0,1,0,50,0Z"/><path class="cls-3" d="M33,1.29A25,25,0,0,0,0,25v.14a25,25,0,0,1,50,0V25A25,25,0,0,0,33,1.29Z"/><circle class="cls-4" cx="25" cy="25" r="25"/><path class="cls-5" d="M34.09,35.8h-17a4.42,4.42,0,0,1-4.55-4.25V33a4.66,4.66,0,0,0,4.55,4.55h17A4.66,4.66,0,0,0,38.64,33V31.53A4.42,4.42,0,0,1,34.09,35.8Z"/><path class="cls-5" d="M12.5,23.58V21.65L9.33,16.42a1.28,1.28,0,0,1-.23-.8h0v2.21a1.36,1.36,0,0,0,.22.64l3.19,5.11Z"/><path class="cls-6" d="M34.09,14.77H10.22a1,1,0,0,0-.85,1.71l3.13,5.4v9.65a4.38,4.38,0,0,0,4.26,4.55H34.09a4.61,4.61,0,0,0,4.55-4.55V19.32A4.61,4.61,0,0,0,34.09,14.77Z"/><path class="cls-7" d="M33.81,21.59H17.33a1.29,1.29,0,0,1-1.42-1.14,1.29,1.29,0,0,1,1.42-1.13H33.81a1.29,1.29,0,0,1,1.42,1.13A1.29,1.29,0,0,1,33.81,21.59Z"/><path class="cls-7" d="M33.81,26.14H17.33A1.29,1.29,0,0,1,15.91,25a1.29,1.29,0,0,1,1.42-1.14H33.81A1.29,1.29,0,0,1,35.23,25,1.29,1.29,0,0,1,33.81,26.14Z"/><path class="cls-7" d="M29.26,30.68H17.33a1.16,1.16,0,1,1,0-2.27H29.26a1.16,1.16,0,1,1,0,2.27Z"/></svg>