<svg id="Layer_1" data-name="Layer 1" xmlns="http://www.w3.org/2000/svg" viewBox="0 0 50 50"><defs><style>.cls-1{fill:#1a73e8;}.cls-2{fill:#185abc;}.cls-3{fill:#fff;}.cls-4{fill:#f1f3f4;}.cls-5{fill:#dadce0;}</style></defs><circle id="Circle" class="cls-1" cx="25" cy="25" r="25"/><g id="new_shadow" data-name="new shadow"><path class="cls-2" d="M14.2,11.65c-2,0-4.26,2.27-4.26,4.83a27.15,27.15,0,0,0,.85,6A24.89,24.89,0,0,0,26.14,37.78a19.27,19.27,0,0,0,6.25,1.14c4.26,0,6-1.42,6.81-3.41.34-.78-4.83.85-4.83.85L20.45,30.68l-6-8.24Z"/></g><g id="phone"><path id="phone-2" data-name="phone" class="cls-3" d="M39.16,29.89c-.39-1.94-.71-2.54-2.55-2.57a24.67,24.67,0,0,1-3.94-.05c-1.36-.15-1.58-.05-2.27.86l-2,3.4A20.54,20.54,0,0,1,18.18,23.3l2.55-2.53a2.53,2.53,0,0,0,.56-2.85,31.89,31.89,0,0,1-.85-4.28c-.32-1.83-.6-2.2-2.55-2.28H14.77c-2.11,0-3.47,1.87-3.4,4a21.76,21.76,0,0,0,1.42,8A25,25,0,0,0,28.1,36.73a18.94,18.94,0,0,0,8.22.57c2.09-.28,3.76-1.89,3.41-4Z"/><path id="grey_handle" data-name="grey handle" class="cls-4" d="M15.2,27.42a24.67,24.67,0,0,0,9.69,8.09l2.55-4.35A20.54,20.54,0,0,1,18.64,24Z"/><path id="grey_2" data-name="grey 2" class="cls-5" d="M28.41,31.53c-.33-.11-.65-.24-1-.37l-2.55,4.35.94.41Z"/><path id="grey_1" data-name="grey 1" class="cls-5" d="M15.32,27.58l3.44-3.44c-.22-.3-.41-.58-.58-.84l-3.45,3.45C14.92,27,15.11,27.3,15.32,27.58Z"/></g></svg>