<svg id="Layer_1" data-name="Layer 1" xmlns="http://www.w3.org/2000/svg" viewBox="0 0 50 50"><defs><style>.cls-1{fill:#4285f4;}.cls-2{fill:#34a853;}.cls-3{fill:#fabb05;}.cls-4{fill:#e94235;}.cls-5{fill:#5f6368;}</style></defs><path class="cls-1" d="M6.35,25.07a3.85,3.85,0,0,0-.06-.69h-3v1.24H5a1.51,1.51,0,0,1-.64,1v.82h1A3.19,3.19,0,0,0,6.35,25.07Z"/><path class="cls-2" d="M3.24,28.24a3.14,3.14,0,0,0,2.15-.78l-1-.82a1.9,1.9,0,0,1-1.1.31,1.93,1.93,0,0,1-1.81-1.33H.35v.83A3.23,3.23,0,0,0,3.24,28.24Z"/><path class="cls-3" d="M1.43,25.62a2,2,0,0,1,0-1.24v-.83H.35a3.18,3.18,0,0,0,0,2.9Z"/><path class="cls-4" d="M3.24,23.05a1.75,1.75,0,0,1,1.24.48l.93-.92a3.1,3.1,0,0,0-2.17-.85A3.23,3.23,0,0,0,.35,23.55l1.08.83A1.93,1.93,0,0,1,3.24,23.05Z"/><path class="cls-5" d="M13.06,22.93h.6l1.24,2.16h0l1.24-2.16h.6v3.81h-.6V24.67l0-.64h0l-1.08,1.9h-.36L13.66,24h0l0,.64v2.07h-.6Z"/><path class="cls-5" d="M19.07,26.42h0a1.63,1.63,0,0,1-.3.28.84.84,0,0,1-.47.12,1.23,1.23,0,0,1-.39-.06,1.13,1.13,0,0,1-.32-.19.83.83,0,0,1-.21-.28.86.86,0,0,1-.07-.36.75.75,0,0,1,.08-.37.7.7,0,0,1,.23-.28.88.88,0,0,1,.35-.17,1.21,1.21,0,0,1,.43-.07,1.37,1.37,0,0,1,.44.06,1.26,1.26,0,0,1,.26.09v-.1a.42.42,0,0,0-.05-.22.45.45,0,0,0-.13-.17.82.82,0,0,0-.2-.12,1,1,0,0,0-.24,0,.78.78,0,0,0-.35.08.74.74,0,0,0-.28.25l-.47-.31a1.23,1.23,0,0,1,.46-.39,1.61,1.61,0,0,1,.63-.13,1.3,1.3,0,0,1,.9.29,1.06,1.06,0,0,1,.32.82v1.59h-.59Zm0-.77a1.27,1.27,0,0,0-.26-.11,1.06,1.06,0,0,0-.33,0,.74.74,0,0,0-.44.12.38.38,0,0,0-.16.31.31.31,0,0,0,0,.17.45.45,0,0,0,.11.13.53.53,0,0,0,.15.08l.18,0a.87.87,0,0,0,.28,0,.86.86,0,0,0,.22-.15.69.69,0,0,0,.16-.22A.58.58,0,0,0,19.07,25.65Z"/><path class="cls-5" d="M22.14,26.4h0a.93.93,0,0,1-.32.3,1.08,1.08,0,0,1-.52.12,1.12,1.12,0,0,1-.48-.1,1.41,1.41,0,0,1-.4-.29,1.62,1.62,0,0,1-.27-.44,1.43,1.43,0,0,1-.1-.56,1.42,1.42,0,0,1,.1-.55,1.48,1.48,0,0,1,.27-.44,1.24,1.24,0,0,1,.4-.29,1.13,1.13,0,0,1,.48-.11,1.08,1.08,0,0,1,.52.13.91.91,0,0,1,.32.29h0l0-.36V22.93h.59v3.81h-.56Zm-.76-.13a1,1,0,0,0,.29-.05.81.81,0,0,0,.24-.17.78.78,0,0,0,.17-.26,1,1,0,0,0,.06-.36,1,1,0,0,0-.06-.35.69.69,0,0,0-.17-.26.66.66,0,0,0-.24-.17.75.75,0,0,0-.29-.06.77.77,0,0,0-.3.06.81.81,0,0,0-.24.17,1,1,0,0,0-.17.26,1.05,1.05,0,0,0,0,.7.89.89,0,0,0,.17.27.81.81,0,0,0,.24.17A1,1,0,0,0,21.38,26.27Z"/><path class="cls-5" d="M25.66,26.11a1.35,1.35,0,0,1-.47.51,1.26,1.26,0,0,1-.74.2,1.33,1.33,0,0,1-.54-.1,1.3,1.3,0,0,1-.43-.29,1.46,1.46,0,0,1-.29-.44,1.64,1.64,0,0,1-.1-.56,1.61,1.61,0,0,1,.1-.53,1.16,1.16,0,0,1,.27-.44,1.08,1.08,0,0,1,.42-.3,1.19,1.19,0,0,1,.54-.12,1.53,1.53,0,0,1,.54.1,1.18,1.18,0,0,1,.4.29,1.09,1.09,0,0,1,.25.43,1.69,1.69,0,0,1,.09.56v.1a.06.06,0,0,0,0,0h-2a1.06,1.06,0,0,0,.1.33.65.65,0,0,0,.18.22.58.58,0,0,0,.24.14.82.82,0,0,0,.26,0,.7.7,0,0,0,.42-.12.91.91,0,0,0,.27-.31Zm-.55-1a.83.83,0,0,0-.05-.18.57.57,0,0,0-.12-.18.77.77,0,0,0-.21-.14.79.79,0,0,0-.32-.06.67.67,0,0,0-.44.15.75.75,0,0,0-.25.41Z"/><path class="cls-5" d="M27.3,22.93h.59V24.1l0,.36h0a.86.86,0,0,1,.33-.29,1.05,1.05,0,0,1,.52-.13,1.12,1.12,0,0,1,.47.11,1.14,1.14,0,0,1,.4.29,1.48,1.48,0,0,1,.27.44,1.42,1.42,0,0,1,.1.55,1.43,1.43,0,0,1-.1.56,1.62,1.62,0,0,1-.27.44,1.28,1.28,0,0,1-.4.29,1.1,1.1,0,0,1-.47.1,1.05,1.05,0,0,1-.52-.12.88.88,0,0,1-.33-.3h0v.34H27.3Zm1.33,3.34a1,1,0,0,0,.29-.05.81.81,0,0,0,.24-.17.73.73,0,0,0,.17-.27,1.05,1.05,0,0,0,0-.7.78.78,0,0,0-.17-.26.81.81,0,0,0-.24-.17.75.75,0,0,0-.29-.06.77.77,0,0,0-.3.06.66.66,0,0,0-.24.17.84.84,0,0,0-.17.26,1,1,0,0,0-.06.35,1,1,0,0,0,.06.36,1,1,0,0,0,.17.26.81.81,0,0,0,.24.17A1,1,0,0,0,28.63,26.27Z"/><path class="cls-5" d="M31.05,26.59,30,24.13h.66l.72,1.73h0l.7-1.73h.66l-1.64,3.76h-.63Z"/><path class="cls-5" d="M35.92,26.77a2.05,2.05,0,1,1,0-4.1,1.94,1.94,0,0,1,1.4.57l-.39.39a1.48,1.48,0,1,0-1,2.58,1.38,1.38,0,0,0,1-.41,1.17,1.17,0,0,0,.31-.71H35.92v-.56H37.8a2,2,0,0,1-.45,1.66A1.86,1.86,0,0,1,35.92,26.77Z"/><path class="cls-5" d="M40.67,25.45a1.33,1.33,0,1,1-1.32-1.32A1.31,1.31,0,0,1,40.67,25.45Zm-.58,0a.75.75,0,0,0-.74-.8.8.8,0,1,0,.74.8Z"/><path class="cls-5" d="M43.55,25.45a1.32,1.32,0,1,1-1.32-1.32A1.3,1.3,0,0,1,43.55,25.45Zm-.57,0a.76.76,0,0,0-.75-.8.8.8,0,0,0,0,1.6A.77.77,0,0,0,43,25.45Z"/><path class="cls-5" d="M46.33,24.21v2.37A1.21,1.21,0,0,1,45.07,28a1.25,1.25,0,0,1-1.16-.78l.5-.21a.72.72,0,0,0,.66.47.68.68,0,0,0,.71-.77v-.19h0a.9.9,0,0,1-.7.3,1.32,1.32,0,0,1,0-2.64.93.93,0,0,1,.7.29h0v-.21Zm-.51,1.24a.74.74,0,0,0-.71-.8.8.8,0,0,0,0,1.6A.74.74,0,0,0,45.82,25.45Z"/><path class="cls-5" d="M47.3,22.82V26.7h-.58V22.82Z"/><path class="cls-5" d="M49.53,25.88l.45.3a1.32,1.32,0,0,1-1.1.59,1.29,1.29,0,0,1-1.31-1.32,1.25,1.25,0,0,1,1.24-1.32,1.21,1.21,0,0,1,1.13.84l.06.15-1.76.73a.67.67,0,0,0,.64.4A.76.76,0,0,0,49.53,25.88Zm-1.39-.47,1.18-.49a.5.5,0,0,0-.49-.28A.73.73,0,0,0,48.14,25.41Z"/></svg>