<svg id="Layer_1" data-name="Layer 1" xmlns="http://www.w3.org/2000/svg" viewBox="0 0 50 50"><defs><style>.cls-1{fill:#00a94b;}.cls-2{fill:#ff4131;}.cls-3{fill:#ffbc00;}.cls-4{fill:#0085f7;}</style></defs><circle class="cls-1" cx="39.37" cy="21.48" r="5.19"/><circle class="cls-2" cx="45.15" cy="10.82" r="4.85"/><path class="cls-3" d="M32.52,44.11a4.85,4.85,0,0,1-4.43-2.88L15.4,12.71a4.84,4.84,0,1,1,8.85-3.94L37,37.29a4.85,4.85,0,0,1-2.46,6.4A4.92,4.92,0,0,1,32.52,44.11Z"/><path class="cls-4" d="M17.53,44a5.29,5.29,0,0,1-4.82-3.13L.46,13.37a5.27,5.27,0,0,1,9.63-4.29L22.35,36.61a5.28,5.28,0,0,1-2.68,7A5.22,5.22,0,0,1,17.53,44Z"/></svg>