<?xml version="1.0" encoding="UTF-8" standalone="no"?><!DOCTYPE svg PUBLIC "-//W3C//DTD SVG 1.1//EN" "http://www.w3.org/Graphics/SVG/1.1/DTD/svg11.dtd"><svg width="100%" height="100%" viewBox="0 0 1738 1738" version="1.1" xmlns="http://www.w3.org/2000/svg" xmlns:xlink="http://www.w3.org/1999/xlink" xml:space="preserve" xmlns:serif="http://www.serif.com/" style="fill-rule:evenodd;clip-rule:evenodd;stroke-linejoin:round;stroke-miterlimit:2;"><path d="M1735.97,867.988c-0,-479.376 -388.609,-867.988 -867.984,-867.988c-479.375,0 -867.987,388.613 -867.987,867.988c-0,433.245 317.412,792.325 732.362,857.445l0,-606.545l-220.383,-0l0,-250.9l220.384,-0l-0,-191.234c-0,-217.533 129.583,-337.691 327.845,-337.691c94.967,-0 194.304,16.945 194.304,16.945l0,213.609l-109.441,-0c-107.829,-0 -141.459,66.912 -141.459,135.558l0,162.813l240.73,-0l-38.475,250.899l-202.255,0.001l0,606.545c414.963,-65.12 732.359,-424.2 732.359,-857.445Z" style="fill:#0873f6;fill-rule:nonzero;"/></svg>