<?xml version="1.0" encoding="UTF-8" standalone="no"?><!DOCTYPE svg PUBLIC "-//W3C//DTD SVG 1.1//EN" "http://www.w3.org/Graphics/SVG/1.1/DTD/svg11.dtd"><svg width="100%" height="100%" viewBox="0 0 1738 1738" version="1.1" xmlns="http://www.w3.org/2000/svg" xmlns:xlink="http://www.w3.org/1999/xlink" xml:space="preserve" xmlns:serif="http://www.serif.com/" style="fill-rule:evenodd;clip-rule:evenodd;stroke-linejoin:round;stroke-miterlimit:2;"><path d="M1412.4,1155.75l-0,-1120.3l-148.942,0l0,210.208l-4.633,0c-15.263,-32.916 -34.792,-64.462 -60.904,-94.545c-26.042,-29.813 -55.488,-56.2 -89.113,-79.134c-33.716,-22.725 -69.604,-40.591 -109.896,-53.246c-40,-12.225 -82.466,-18.733 -128.108,-18.733c-87.517,0 -166.371,16.267 -234.808,48.471c-68.509,32.329 -126.08,76.458 -172.521,132.379c-46.438,55.904 -81.959,121.233 -106.334,196.113c-24.308,75 -36.616,153.991 -36.616,237.483c-0,86.733 10.208,168.246 30.746,244.633c20.696,76.458 53.316,142.954 98.958,199.809c45.642,56.425 102.154,101.041 171.808,132.587c69.513,31.546 153.28,47.813 251.092,47.813c90.279,-0 168.542,-22.775 235.954,-68.421c67.434,-45.659 118.492,-106.563 153.284,-182.654l4.425,-0l-0,165.208c-0,147.862 -30.467,260.937 -91.442,340.362c-60.763,78.196 -160.883,118.492 -299.913,118.492c-41.37,0 -81.595,-4.429 -120.729,-13.108c-39.216,-8.68 -74.946,-22.779 -107.566,-41.234c-31.617,-19.6 -59.83,-43.471 -82.692,-75.087c-22.85,-31.459 -38.038,-69.513 -45.713,-115.225l-152.412,-0c4.842,64.166 22.775,119.654 53.317,166.371c30.658,46.737 69.512,84.791 115.883,115.245c46.371,29.359 98.887,51.059 157.117,65.242c58.666,14.029 118.562,21.7 180.4,21.7c100.054,0 183.82,-14.096 252.187,-40.137c68.492,-27.205 123.975,-65.259 166.442,-116.321c43.471,-51.213 73.854,-112.063 93.525,-184.896c19.529,-72.846 30.4,-154.375 30.4,-243.575l-3.196,4.496Zm-541.371,-40.296c-69.079,-0 -129.062,-13.679 -179.325,-41.3c-50.433,-27.5 -92.379,-63.804 -125.296,-108.733c-33.783,-44.913 -57.654,-96.355 -73.921,-154.721c-16.283,-58.388 -24.029,-118.125 -24.029,-179.688c0,-63.004 7.604,-124.791 21.771,-185.4c15.192,-60.766 39.063,-114.808 71.771,-162.05c32.621,-47.154 75.017,-85.504 125,-114.583c49.983,-29.079 110.887,-43.767 181.562,-43.767c70.68,0 130.434,15.121 180.488,44.929c48.904,30.017 90.208,69.375 121.733,118.196c31.546,48.975 54.342,103.367 68.509,163.125c14.116,59.759 20.625,119.792 20.625,179.55c-0,61.629 -8.68,121.371 -24.967,179.688c-16.333,58.366 -41.371,109.808 -75.083,154.721c-33.63,44.929 -73.855,81.233 -122.834,108.733c-48.887,27.621 -105.466,41.3 -170.641,41.3l4.637,-0Z" style="fill:#4d4020;fill-rule:nonzero;"/></svg>