<?xml version="1.0" encoding="UTF-8" standalone="no"?><!DOCTYPE svg PUBLIC "-//W3C//DTD SVG 1.1//EN" "http://www.w3.org/Graphics/SVG/1.1/DTD/svg11.dtd"><svg width="100%" height="100%" viewBox="0 0 1738 1738" version="1.1" xmlns="http://www.w3.org/2000/svg" xmlns:xlink="http://www.w3.org/1999/xlink" xml:space="preserve" xmlns:serif="http://www.serif.com/" style="fill-rule:evenodd;clip-rule:evenodd;stroke-linejoin:round;stroke-miterlimit:2;"><path d="M1731.02,511.712c-4.225,-92.402 -18.902,-155.505 -40.36,-210.713c-21.789,-57.924 -55.963,-110.39 -100.124,-153.757c-43.354,-44.161 -95.833,-78.349 -153.757,-100.151c-55.222,-21.445 -118.311,-36.108 -210.713,-40.307c-92.575,-4.238 -122.153,-5.245 -357.901,-5.245c-235.747,-0 -265.325,1.007 -357.9,5.219c-92.402,4.225 -155.491,18.901 -210.713,40.359c-57.924,21.79 -110.39,55.964 -153.757,100.125c-44.161,43.353 -78.348,95.82 -100.151,153.743c-21.445,55.222 -36.108,118.325 -40.307,210.714c-4.238,92.588 -5.245,122.152 -5.245,357.9c0,235.761 1.007,265.339 5.245,357.913c4.213,92.389 18.889,155.492 40.347,210.714c21.789,57.91 55.963,110.39 100.125,153.743c43.353,44.161 95.833,78.335 153.756,100.125c55.209,21.471 118.311,36.134 210.714,40.359c92.587,4.226 122.152,5.219 357.9,5.219c235.748,0 265.325,-0.993 357.9,-5.219c92.402,-4.225 155.492,-18.888 210.713,-40.359c116.603,-45.089 208.78,-137.266 253.868,-253.868c21.472,-55.222 36.135,-118.325 40.36,-210.714c4.212,-92.587 5.219,-122.152 5.219,-357.9c-0,-235.761 -1.007,-265.325 -5.219,-357.9Zm-156.26,708.687c-3.855,84.641 -18.001,130.603 -29.883,161.188c-29.206,75.713 -89.037,135.544 -164.75,164.75c-30.585,11.882 -76.547,26.028 -161.188,29.883c-91.515,4.186 -118.973,5.06 -350.774,5.06c-231.813,-0 -259.259,-0.874 -350.787,-5.06c-84.627,-3.855 -130.59,-18.001 -161.187,-29.883c-37.698,-13.921 -71.805,-36.107 -99.807,-64.943c-28.836,-28.002 -51.023,-62.097 -64.944,-99.807c-11.881,-30.585 -26.028,-76.547 -29.882,-161.188c-4.173,-91.528 -5.06,-118.986 -5.06,-350.774c-0,-231.8 0.887,-259.245 5.06,-350.787c3.868,-84.64 18.001,-130.603 29.882,-161.187c13.921,-37.711 36.121,-71.819 64.944,-99.82c28.002,-28.836 62.109,-51.023 99.82,-64.931c30.584,-11.895 76.547,-26.028 161.188,-29.895c91.528,-4.173 118.986,-5.06 350.773,-5.06l-0.013,-0c231.788,-0 259.246,0.887 350.787,5.073c84.641,3.854 130.59,18.001 161.188,29.882c37.697,13.921 71.805,36.108 99.807,64.931c28.836,28.001 51.022,62.109 64.93,99.82c11.895,30.584 26.041,76.547 29.896,161.187c4.172,91.528 5.06,118.987 5.06,350.774c-0,231.801 -0.874,259.246 -5.06,350.787Z" style="fill:url(#_Linear1);fill-rule:nonzero;"/><path d="M868.15,423.84c-246.185,-0 -445.759,199.587 -445.759,445.772c0,246.186 199.574,445.759 445.759,445.759c246.199,0 445.773,-199.573 445.773,-445.759c-0,-246.185 -199.574,-445.772 -445.773,-445.772Zm0,735.126c-159.796,-0.014 -289.353,-129.557 -289.34,-289.367c0,-159.797 129.544,-289.353 289.353,-289.353c159.81,0.013 289.354,129.556 289.354,289.353c-0,159.81 -129.557,289.367 -289.367,289.367Z" style="fill:url(#_Linear2);fill-rule:nonzero;"/><path d="M1435.7,406.236c0,57.526 -46.638,104.165 -104.165,104.165c-57.539,-0 -104.177,-46.639 -104.177,-104.165c-0,-57.539 46.638,-104.178 104.177,-104.178c57.527,0 104.165,46.639 104.165,104.178Z" style="fill:url(#_Linear3);fill-rule:nonzero;"/><defs><linearGradient id="_Linear1" x1="0" y1="0" x2="1" y2="0" gradientUnits="userSpaceOnUse" gradientTransform="matrix(1444.76,-1444.76,1444.76,1444.76,145.785,1591.98)"><stop offset="0" style="stop-color:#ffd600;stop-opacity:1"/><stop offset="0.5" style="stop-color:#ff0100;stop-opacity:1"/><stop offset="1" style="stop-color:#d800b9;stop-opacity:1"/></linearGradient><linearGradient id="_Linear2" x1="0" y1="0" x2="1" y2="0" gradientUnits="userSpaceOnUse" gradientTransform="matrix(630.407,-630.407,630.407,630.407,552.954,1184.81)"><stop offset="0" style="stop-color:#ff6400;stop-opacity:1"/><stop offset="0.5" style="stop-color:#ff0100;stop-opacity:1"/><stop offset="1" style="stop-color:#fd0056;stop-opacity:1"/></linearGradient><linearGradient id="_Linear3" x1="0" y1="0" x2="1" y2="0" gradientUnits="userSpaceOnUse" gradientTransform="matrix(147.314,-147.314,147.314,147.314,1257.88,479.887)"><stop offset="0" style="stop-color:#f30072;stop-opacity:1"/><stop offset="1" style="stop-color:#e50097;stop-opacity:1"/></linearGradient></defs></svg>