<?xml version="1.0" encoding="UTF-8" standalone="no"?><!DOCTYPE svg PUBLIC "-//W3C//DTD SVG 1.1//EN" "http://www.w3.org/Graphics/SVG/1.1/DTD/svg11.dtd"><svg width="100%" height="100%" viewBox="0 0 1738 1738" version="1.1" xmlns="http://www.w3.org/2000/svg" xmlns:xlink="http://www.w3.org/1999/xlink" xml:space="preserve" xmlns:serif="http://www.serif.com/" style="fill-rule:evenodd;clip-rule:evenodd;stroke-linejoin:round;stroke-miterlimit:2;"><path d="M1479.17,1479.46l-257.171,-0l0.016,-402.85c-0.016,-96.075 -1.958,-219.705 -133.975,-219.705c-134.045,0 -154.512,104.534 -154.512,212.605l-0,409.95l-257.1,-0l0.017,-828.421l246.962,-0l0,112.916l3.317,0c34.512,-65.104 118.416,-133.82 243.783,-133.82c260.488,-0 308.663,171.441 308.663,394.6l-0,454.725Zm-1093.11,-941.771c-82.741,-0 -149.216,-66.979 -149.216,-149.375c-0,-82.329 66.545,-149.238 149.233,-149.238c82.467,0 149.308,66.909 149.308,149.238c0,82.396 -66.929,149.375 -149.325,149.375Zm128.909,941.771l-257.813,-0l0,-828.421l257.813,-0l-0,828.421Zm1092.74,-1479.46l-1479.6,0c-70.816,0 -128.108,55.992 -128.108,125.071l-0,1485.97c-0,69.15 57.292,125.071 128.108,125.071l1479.39,-0c70.746,-0 128.612,-55.921 128.612,-125.071l0,-1485.97c0,-69.083 -57.866,-125.071 -128.612,-125.071l0.208,0Z" style="fill:#0063c5;fill-rule:nonzero;"/></svg>