<?xml version="1.0" encoding="UTF-8" standalone="no"?><!DOCTYPE svg PUBLIC "-//W3C//DTD SVG 1.1//EN" "http://www.w3.org/Graphics/SVG/1.1/DTD/svg11.dtd"><svg width="100%" height="100%" viewBox="0 0 1459 1459" version="1.1" xmlns="http://www.w3.org/2000/svg" xmlns:xlink="http://www.w3.org/1999/xlink" xml:space="preserve" xmlns:serif="http://www.serif.com/" style="fill-rule:evenodd;clip-rule:evenodd;stroke-linejoin:round;stroke-miterlimit:2;"><path d="M910.45,331.738c27.242,-28.213 64.829,-44.167 104.063,-44.167c79.358,-0 144.67,65.312 144.67,144.687c0,39.217 -15.954,76.805 -44.166,104.063l-217.013,217.012c-56.112,56.096 -148.454,56.096 -204.567,0c-13.487,-13.02 -31.508,-20.312 -50.258,-20.312c-39.687,-0 -72.346,32.654 -72.346,72.342c0,18.733 7.292,36.774 20.313,50.245c112.241,112.205 296.908,112.205 409.15,0l217.012,-217.016c52.084,-53.921 81.217,-126.042 81.217,-201.005c0,-158.733 -130.608,-289.358 -289.342,-289.358c-74.983,0 -147.1,29.15 -201.025,81.233l-108.504,108.505c-14.117,13.612 -22.083,32.416 -22.083,52.033c-0,39.671 32.654,72.325 72.341,72.325c19.6,-0 38.405,-7.967 52.034,-22.083l108.504,-108.505Zm-361.7,361.701c56.129,-56.113 148.454,-56.113 204.583,-0c13.613,14.095 32.413,22.083 52.034,22.083c39.666,-0 72.325,-32.658 72.325,-72.346c-0,-19.617 -7.971,-38.4 -22.084,-52.029c-112.221,-112.204 -296.908,-112.204 -409.133,-0l-217.013,217.012c-56.441,54.496 -88.333,129.671 -88.333,208.125c0,158.734 130.608,289.359 289.342,289.359c78.454,-0 153.625,-31.909 208.125,-88.334l108.504,-108.508c14.117,-13.625 22.083,-32.429 22.083,-52.029c0,-39.688 -32.654,-72.346 -72.325,-72.346c-19.616,0 -38.421,7.971 -52.033,22.083l-108.504,108.509c-27.259,28.212 -64.846,44.166 -104.063,44.166c-79.375,0 -144.687,-65.312 -144.687,-144.67c-0,-39.234 15.954,-76.821 44.166,-104.063l217.013,-217.012Z" style="fill:#262626;fill-rule:nonzero;"/></svg>