<?xml version="1.0" encoding="UTF-8" standalone="no"?><!DOCTYPE svg PUBLIC "-//W3C//DTD SVG 1.1//EN" "http://www.w3.org/Graphics/SVG/1.1/DTD/svg11.dtd"><svg width="100%" height="100%" viewBox="0 0 18525 10575" version="1.1" xmlns="http://www.w3.org/2000/svg" xmlns:xlink="http://www.w3.org/1999/xlink" xml:space="preserve" xmlns:serif="http://www.serif.com/" style="fill-rule:evenodd;clip-rule:evenodd;stroke-linejoin:round;stroke-miterlimit:2;"><g><path d="M5222.88,0c2884.51,0 5222.67,2354.5 5222.67,5258.71c-0,2904.22 -2338.35,5258.54 -5222.71,5258.54c-2884.34,0 -5222.88,-2354.31 -5222.88,-5258.54c0,-2904.22 2338.35,-5258.71 5222.88,-5258.71l0.042,0Zm8340.54,308.038c1442.25,-0 2611.43,2216.27 2611.43,4950.67l0.171,0c-0,2733.68 -1169.17,4950.67 -2611.43,4950.67c-1442.26,-0 -2611.44,-2216.98 -2611.44,-4950.67c0,-2733.7 1168.99,-4950.67 2611.27,-4950.67Zm4036.65,515.662c507.133,0 918.454,1985.59 918.454,4435c-0,2448.71 -411.146,4435 -918.454,4435c-507.313,0 -918.267,-1985.77 -918.267,-4435c0,-2449.25 411.129,-4435 918.267,-4435Z" style="fill:#0d0d0d;fill-rule:nonzero;"/></g></svg>