<?xml version="1.0" encoding="UTF-8" standalone="no"?><!DOCTYPE svg PUBLIC "-//W3C//DTD SVG 1.1//EN" "http://www.w3.org/Graphics/SVG/1.1/DTD/svg11.dtd"><svg width="100%" height="100%" viewBox="0 0 1738 1738" version="1.1" xmlns="http://www.w3.org/2000/svg" xmlns:xlink="http://www.w3.org/1999/xlink" xml:space="preserve" xmlns:serif="http://www.serif.com/" style="fill-rule:evenodd;clip-rule:evenodd;stroke-linejoin:round;stroke-miterlimit:2;"><path d="M0,0l0,1736.11l1736.11,-0.001l-0.001,-1736.11l-1736.11,0Zm1442.28,411.321l-93.092,89.254c-8.037,6.125 -12.05,16.229 -10.345,26.196l-0,655.887c-1.667,9.929 2.325,20 10.345,26.109l90.921,89.271l0,19.6l-457.325,-0l0,-19.53l94.184,-91.512c9.27,-9.25 9.27,-11.925 9.27,-26.042l0,-530.241l-261.875,665.158l-35.433,-0l-304.983,-665.158l-0,445.816c-2.538,18.734 3.679,37.604 16.858,51.146l122.533,148.592l0,19.604l-347.362,-0l-0,-19.533l122.604,-148.663c13.075,-13.558 18.942,-32.571 15.783,-51.146l0,-515.471c1.459,-14.304 -4.012,-28.487 -14.687,-38.125l-108.942,-131.212l0,-19.534l338.109,0l261.354,573.126l229.737,-573.213l322.346,0l0,19.621Z" style="fill:#0d0d0d;fill-rule:nonzero;"/></svg>