<?xml version="1.0" encoding="UTF-8" standalone="no"?><!DOCTYPE svg PUBLIC "-//W3C//DTD SVG 1.1//EN" "http://www.w3.org/Graphics/SVG/1.1/DTD/svg11.dtd"><svg width="100%" height="100%" viewBox="0 0 1738 1738" version="1.1" xmlns="http://www.w3.org/2000/svg" xmlns:xlink="http://www.w3.org/1999/xlink" xml:space="preserve" xmlns:serif="http://www.serif.com/" style="fill-rule:evenodd;clip-rule:evenodd;stroke-linejoin:round;stroke-miterlimit:2;"><path d="M921.442,1352.8c-60.105,-118.284 -130.575,-237.779 -268.23,-237.779c-26.183,-0 -52.587,4.412 -76.616,15.12l-46.717,-93.245c56.858,-49.046 148.871,-87.813 267.133,-87.813c184.03,0 278.58,88.909 353.596,201.963c44.342,-96.563 65.4,-227.134 65.4,-388.821c0,-403.783 -126.166,-611.042 -421.166,-611.042c-290.642,0 -416.438,207.259 -416.438,611.042c0,401.704 125.796,606.842 416.438,606.842c46.304,-0 88.266,-4.984 126.6,-16.267Zm72.045,140.833c-63.729,17.154 -131.437,26.475 -198.416,26.475c-387.154,0 -766.063,-308.8 -766.063,-757.95c0.071,-453.196 378.909,-762.154 766.063,-762.154c393.592,0 768.8,306.563 768.8,762.221c-0,253.475 -118.263,459.429 -290.071,592.521c55.262,83.054 111.617,138.454 191.842,138.454c86.737,-0 121.529,-66.183 128.037,-119.271l112.625,0c6.663,70.45 -29.083,362.188 -344.758,362.188c-191.842,-0 -292.742,-110.538 -368.629,-240.746l0.57,-1.738Z" style="fill:#bb2920;fill-rule:nonzero;"/></svg>