<?xml version="1.0" encoding="UTF-8" standalone="no"?><!DOCTYPE svg PUBLIC "-//W3C//DTD SVG 1.1//EN" "http://www.w3.org/Graphics/SVG/1.1/DTD/svg11.dtd"><svg width="100%" height="100%" viewBox="0 0 1738 1738" version="1.1" xmlns="http://www.w3.org/2000/svg" xmlns:xlink="http://www.w3.org/1999/xlink" xml:space="preserve" xmlns:serif="http://www.serif.com/" style="fill-rule:evenodd;clip-rule:evenodd;stroke-linejoin:round;stroke-miterlimit:2;"><path d="M22.365,942.918c-3.616,-0 -6.485,2.796 -6.953,6.782l-12.67,96.244l12.67,94.585c0.468,3.986 3.335,6.763 6.953,6.763c3.501,-0 6.353,-2.758 6.912,-6.728l-0,-0.02l-0,0.02l15.018,-94.622l-15.018,-96.261c-0.541,-3.969 -3.428,-6.763 -6.912,-6.763Zm71.254,-52.584c-0.597,-4.136 -3.559,-6.988 -7.211,-6.988c-3.672,0 -6.709,2.945 -7.212,6.988c0,0.036 -17.031,155.61 -17.031,155.61l17.031,152.162c0.485,4.081 3.523,7.026 7.212,7.026c3.632,-0 6.596,-2.87 7.192,-6.987l19.377,-152.201l-19.358,-155.61Zm268.399,-143.535c-6.987,-0 -12.764,5.72 -13.099,12.987l-13.565,286.287l13.565,185.014c0.354,7.229 6.112,12.931 13.099,12.931c6.951,0 12.709,-5.721 13.119,-12.968l-0,0.056l15.335,-185.033l-15.335,-286.287c-0.412,-7.267 -6.17,-12.987 -13.119,-12.987Zm-138.914,99.503c-5.366,-0 -9.745,4.286 -10.176,10.006l-15.279,189.69l15.279,183.522c0.41,5.683 4.808,9.969 10.176,9.969c5.31,-0 9.689,-4.286 10.156,-9.969l17.366,-183.522l-17.366,-189.729c-0.467,-5.681 -4.846,-9.967 -10.156,-9.967Zm280.084,397.699c8.664,-0 15.708,-6.989 16.061,-15.934l13.306,-181.901l-13.286,-381.152c-0.354,-8.945 -7.399,-15.932 -16.062,-15.932c-8.74,-0 -15.801,7.006 -16.082,15.951l-11.795,381.114l11.795,181.976c0.28,8.871 7.341,15.878 16.063,15.878Zm289.008,0.858c11.926,-0 21.765,-9.821 21.987,-21.896l0,0.13l0,-0.13l9.281,-176.685l-9.282,-440.202c-0.205,-12.056 -10.062,-21.893 -21.988,-21.893c-11.944,-0 -21.801,9.82 -21.988,21.912l-8.292,440.034c0,0.28 8.292,176.945 8.292,176.945c0.189,11.963 10.063,21.785 21.99,21.785Zm-145.605,-0.69c10.381,-0 18.746,-8.33 19.026,-18.951l-0,0.13l11.291,-179.144l-11.31,-383.909c-0.28,-10.622 -8.646,-18.931 -19.026,-18.931c-10.454,-0 -18.819,8.311 -19.043,18.931l-10.042,383.929l10.061,179.106c0.224,10.509 8.59,18.839 19.043,18.839Zm-354.3,-1.678c6.168,0 11.163,-4.938 11.628,-11.441l16.361,-185.05l-16.361,-176.033c-0.446,-6.502 -5.439,-11.404 -11.628,-11.404c-6.259,-0 -11.254,4.937 -11.645,11.479l-14.405,175.958l14.405,185.033c0.41,6.52 5.384,11.458 11.645,11.458Zm-137.814,-10.136c4.509,-0 8.161,-3.56 8.682,-8.479l18.373,-177.915l-18.355,-184.622c-0.541,-4.937 -4.193,-8.498 -8.701,-8.498c-4.566,0 -8.219,3.579 -8.684,8.498l-16.174,184.622l16.174,177.878c0.448,4.937 4.1,8.516 8.685,8.516Zm564.638,-576.452c-11.273,-0 -20.312,8.964 -20.535,20.442l-9.167,369.896l9.167,177.988c0.224,11.329 9.243,20.293 20.535,20.293c11.254,0 20.237,-8.944 20.496,-20.422l0,0.149l10.286,-177.989l-10.286,-369.954c-0.261,-11.439 -9.244,-20.403 -20.496,-20.403Zm-286.774,588.471c7.79,-0 14.218,-6.356 14.591,-14.462l14.311,-183.785l-14.311,-351.765c-0.392,-8.126 -6.801,-14.46 -14.591,-14.46c-7.862,0 -14.272,6.354 -14.608,14.46l-12.67,351.765l12.689,183.861c0.315,8.03 6.725,14.386 14.589,14.386Zm159.803,-17.349l0,-0.094l12.298,-180.746l-12.298,-393.99c-0.299,-9.782 -8.013,-17.459 -17.535,-17.459c-9.579,-0 -17.293,7.658 -17.552,17.459l-10.919,393.971l10.937,180.84c0.261,9.689 7.976,17.347 17.535,17.347c9.54,-0 17.217,-7.658 17.536,-17.403l0,0.075l-0.002,0Zm930.154,-407.947c-29.199,-0 -57.056,5.907 -82.435,16.546c-16.958,-192.075 -178.026,-342.747 -374.499,-342.747c-48.074,-0 -94.939,9.466 -136.323,25.471c-16.081,6.224 -20.367,12.634 -20.516,25.063l0,676.401c0.168,13.043 10.286,23.907 23.014,25.194c0.541,0.056 586.941,0.353 590.743,0.353c117.69,0 213.114,-95.423 213.114,-213.131c-0.002,-117.709 -95.406,-213.15 -213.098,-213.15Zm-657.339,-276.263c-12.801,0 -23.31,10.51 -23.497,23.422l-9.615,480.097l9.634,174.243c0.168,12.728 10.678,23.219 23.478,23.219c12.763,-0 23.273,-10.491 23.459,-23.404l-0,0.204l10.453,-174.262l-10.453,-480.134c-0.186,-12.875 -10.696,-23.385 -23.459,-23.385Z" style="fill:url(#_Linear1);fill-rule:nonzero;"/><defs><linearGradient id="_Linear1" x1="0" y1="0" x2="1" y2="0" gradientUnits="userSpaceOnUse" gradientTransform="matrix(6.04792e-14,987.701,-987.701,6.04792e-14,606.614,805.315)"><stop offset="0" style="stop-color:#f79810;stop-opacity:1"/><stop offset="1" style="stop-color:#f8310e;stop-opacity:1"/></linearGradient></defs></svg>