<?xml version="1.0" encoding="UTF-8" standalone="no"?><!DOCTYPE svg PUBLIC "-//W3C//DTD SVG 1.1//EN" "http://www.w3.org/Graphics/SVG/1.1/DTD/svg11.dtd"><svg width="100%" height="100%" viewBox="0 0 1738 1738" version="1.1" xmlns="http://www.w3.org/2000/svg" xmlns:xlink="http://www.w3.org/1999/xlink" xml:space="preserve" xmlns:serif="http://www.serif.com/" style="fill-rule:evenodd;clip-rule:evenodd;stroke-linejoin:round;stroke-miterlimit:2;"><path d="M868.054,0c-477.429,0 -868.054,390.625 -868.054,868.054c0,477.434 390.625,868.059 868.054,868.059c477.434,-0 868.059,-390.625 868.059,-868.059c-0,-477.429 -386.288,-868.054 -868.059,-868.054Zm399.375,1254.34c-17.358,25.97 -47.741,34.72 -73.854,17.358c-203.992,-125.867 -460.067,-151.979 -763.958,-82.533c-30.242,8.82 -56.354,-12.95 -65.034,-38.992c-8.679,-30.454 13.021,-56.425 39.063,-65.104c329.862,-73.854 616.321,-43.404 842.012,95.483c30.384,13.021 34.655,47.675 21.771,73.788Zm104.167,-238.717c-21.771,30.383 -60.833,43.404 -91.283,21.7c-234.305,-143.229 -590.209,-186.629 -863.646,-99.825c-34.654,8.679 -73.784,-8.679 -82.467,-43.404c-8.679,-34.721 8.683,-73.854 43.404,-82.534c316.842,-95.416 707.467,-47.604 976.563,117.259c26.112,13.087 39.062,56.421 17.429,86.804Zm8.683,-243.054c-277.85,-164.934 -742.258,-182.292 -1007.02,-99.759c-43.4,12.95 -86.805,-13.091 -99.825,-52.154c-13.021,-43.471 13.02,-86.804 52.083,-99.896c308.158,-91.145 815.971,-73.783 1137.22,117.259c38.995,21.7 52.016,73.783 30.312,112.846c-21.629,30.454 -73.783,43.333 -112.775,21.704Z" style="fill:#22bf54;fill-rule:nonzero;"/></svg>