<?xml version="1.0" encoding="UTF-8" standalone="no"?><!DOCTYPE svg PUBLIC "-//W3C//DTD SVG 1.1//EN" "http://www.w3.org/Graphics/SVG/1.1/DTD/svg11.dtd"><svg width="100%" height="100%" viewBox="0 0 1738 1738" version="1.1" xmlns="http://www.w3.org/2000/svg" xmlns:xlink="http://www.w3.org/1999/xlink" xml:space="preserve" xmlns:serif="http://www.serif.com/" style="fill-rule:evenodd;clip-rule:evenodd;stroke-linejoin:round;stroke-miterlimit:2;"><path d="M1732.78,330.521c-64.012,28.125 -132.379,47.291 -204.341,56.058c73.333,-44.2 129.775,-113.871 156.458,-196.979c-68.8,40.138 -145.033,69.375 -226.196,85.642c-64.829,-69.375 -157.192,-112.775 -259.775,-112.775c-196.546,-0 -355.904,159.375 -355.904,355.691c-0,28.213 3.262,55.33 9.183,81.304c-295.85,-13.958 -558.071,-156.025 -733.575,-370.8c-30.887,52.225 -48.179,112.917 -48.179,179.03c0,123.695 62.938,232.429 158.283,296.3c-58.387,-1.875 -113.283,-17.934 -161.162,-44.563l-0,4.425c-0,172.517 122.462,316.409 285.433,349.167c-29.879,8.037 -61.408,12.362 -93.75,12.362c-22.708,0 -44.479,-2.17 -66.25,-6.216c45.642,141.283 176.859,244.287 333.038,247.187c-121.529,95.4 -275.538,152.258 -441.404,152.258c-28.213,0.017 -56.355,-1.65 -84.638,-4.845c158.35,100.85 344.913,159.791 546.65,159.791c654.946,0.017 1012.68,-542.237 1012.68,-1011.72c0,-15.105 0,-30.384 -1.096,-45.575c69.513,-49.825 130.209,-112.846 177.95,-184.304l-3.4,-1.459l0,0.017Z" style="fill:#059ff5;fill-rule:nonzero;"/></svg>