<?xml version="1.0" encoding="UTF-8" standalone="no"?><!DOCTYPE svg PUBLIC "-//W3C//DTD SVG 1.1//EN" "http://www.w3.org/Graphics/SVG/1.1/DTD/svg11.dtd"><svg width="100%" height="100%" viewBox="0 0 1738 1738" version="1.1" xmlns="http://www.w3.org/2000/svg" xmlns:xlink="http://www.w3.org/1999/xlink" xml:space="preserve" xmlns:serif="http://www.serif.com/" style="fill-rule:evenodd;clip-rule:evenodd;stroke-linejoin:round;stroke-miterlimit:2;"><path d="M1699.88,448.717c-20.454,-73.267 -77.866,-130.679 -151.129,-151.113c-135.258,-36.25 -679.967,-36.25 -679.967,-36.25c0,0 -543.191,-0.712 -679.912,36.25c-73.246,20.467 -130.642,77.917 -151.042,151.179c-25.658,138.509 -38.333,279.134 -37.829,420c-0.4,140.367 12.258,280.455 37.829,418.475c20.433,73.23 77.813,130.642 151.042,151.109c135.208,36.321 679.983,36.321 679.983,36.321c0,-0 543.108,-0 679.896,-36.321c73.283,-20.45 130.696,-77.896 151.129,-151.179c25,-138.055 37.1,-278.125 36.163,-418.405c1.058,-140.866 -11.059,-281.525 -36.163,-420.137l0,0.071Zm-1004.86,679.983l-0,-520.558l453.283,260.712l-453.283,259.846Z" style="fill:#f00;fill-rule:nonzero;"/></svg>